STARTFONT 2.1
COMMENT $Xorg: $
COMMENT ISO10646-1 extension by Markus Kuhn <mkuhn@acm.org>, 2001-03-20
COMMENT  (c) Copyright Bigelow & Holmes 1986, 1985. Lucida is a registered
COMMENT  trademark of Bigelow & Holmes. See LEGAL NOTICE file for terms 
COMMENT  of the license. 
FONT -B&H-LucidaBright-DemiBold-R-Normal--24-240-75-75-P-143-ISO10646-1
SIZE 24 72 72
FONTBOUNDINGBOX 44 37 -15 -10
STARTPROPERTIES 22
COMMENT Begin LogicalFontDescription
FONTNAME_REGISTRY ""
FOUNDRY "B&H"
FAMILY_NAME "LucidaBright"
WEIGHT_NAME "DemiBold"
SLANT "R"
SETWIDTH_NAME "Normal"
ADD_STYLE_NAME ""
PIXEL_SIZE 24
POINT_SIZE 240
RESOLUTION_X 75
RESOLUTION_Y 75
SPACING "P"
AVERAGE_WIDTH 143
CHARSET_REGISTRY "ISO10646"
CHARSET_ENCODING "1"
COMMENT END LogicalFontDescription
FONT_ASCENT 22
FONT_DESCENT 5
DEFAULT_CHAR 0
COPYRIGHT "Copyright Bigelow & Holmes 1986, 1985."
FACE_NAME "Lucida Bright Demibold"
X_HEIGHT 13
CAP_HEIGHT 17
ENDPROPERTIES
CHARS 756
STARTCHAR char0
ENCODING 0
SWIDTH 798 0
DWIDTH 19 0
BBX 17 17 1 0
BITMAP
AAAA80
000000
800080
000000
800080
000000
800080
000000
800080
000000
800080
000000
800080
000000
800080
000000
AAAA80
ENDCHAR
STARTCHAR space
ENCODING 32
SWIDTH 333 0
DWIDTH 8 0
BBX 1 1 0 0
BITMAP
00
ENDCHAR
STARTCHAR exclam
ENCODING 33
SWIDTH 265 0
DWIDTH 6 0
BBX 4 17 1 0
BITMAP
F0
F0
F0
F0
F0
F0
E0
E0
60
60
40
40
00
F0
F0
F0
F0
ENDCHAR
STARTCHAR quotedbl
ENCODING 34
SWIDTH 461 0
DWIDTH 11 0
BBX 8 7 2 11
BITMAP
FF
FF
E7
E7
66
42
42
ENDCHAR
STARTCHAR numbersign
ENCODING 35
SWIDTH 663 0
DWIDTH 16 0
BBX 15 17 0 0
BITMAP
0318
0318
0338
0630
0630
7FFE
7FFE
0C60
0C60
0C60
0C60
FFFC
FFFC
18C0
18C0
3180
3180
ENDCHAR
STARTCHAR dollar
ENCODING 36
SWIDTH 623 0
DWIDTH 15 0
BBX 11 22 2 -3
BITMAP
0400
0400
3FC0
7DC0
F4C0
F4C0
F400
FC00
7C00
3E00
1F00
07C0
07C0
05E0
05E0
C5E0
C5E0
E5C0
FF80
0400
0400
0400
ENDCHAR
STARTCHAR percent
ENCODING 37
SWIDTH 759 0
DWIDTH 18 0
BBX 19 17 0 0
BITMAP
3E00E0
6301C0
E38380
E38700
E38E00
E39C00
633800
3E7000
00EF80
01D8C0
03B8E0
0738E0
0E38E0
1C38E0
3838E0
7018C0
E00F80
ENDCHAR
STARTCHAR ampersand
ENCODING 38
SWIDTH 765 0
DWIDTH 18 0
BBX 17 17 1 0
BITMAP
07C000
0EE000
1EF000
1EF000
1EF000
0EC000
070000
1E1F80
330700
738600
F1C600
F1E400
F0FC00
F8F800
787C00
3FDF00
0F9F80
ENDCHAR
STARTCHAR quotesingle
ENCODING 39
SWIDTH 253 0
DWIDTH 6 0
BBX 3 7 2 11
BITMAP
E0
E0
E0
E0
40
40
40
ENDCHAR
STARTCHAR parenleft
ENCODING 40
SWIDTH 327 0
DWIDTH 8 0
BBX 7 22 0 -4
BITMAP
02
06
0C
18
38
78
70
70
F0
F0
F0
F0
F0
F0
70
70
78
38
18
0C
06
02
ENDCHAR
STARTCHAR parenright
ENCODING 41
SWIDTH 327 0
DWIDTH 8 0
BBX 7 22 0 -4
BITMAP
80
C0
60
30
38
3C
1C
1C
1E
1E
1E
1E
1E
1E
1C
1C
3C
38
30
60
C0
80
ENDCHAR
STARTCHAR asterisk
ENCODING 42
SWIDTH 434 0
DWIDTH 11 0
BBX 9 9 1 8
BITMAP
1C00
0800
4900
EF80
7300
1400
3600
7700
2200
ENDCHAR
STARTCHAR plus
ENCODING 43
SWIDTH 623 0
DWIDTH 15 0
BBX 14 14 1 0
BITMAP
0300
0300
0300
0300
0300
0300
FFFC
FFFC
0300
0300
0300
0300
0300
0300
ENDCHAR
STARTCHAR comma
ENCODING 44
SWIDTH 265 0
DWIDTH 6 0
BBX 4 8 1 -4
BITMAP
F0
F0
F0
F0
70
70
60
C0
ENDCHAR
STARTCHAR hyphen
ENCODING 45
SWIDTH 289 0
DWIDTH 7 0
BBX 5 3 1 6
BITMAP
F8
F8
F8
ENDCHAR
STARTCHAR period
ENCODING 46
SWIDTH 265 0
DWIDTH 6 0
BBX 4 4 1 0
BITMAP
F0
F0
F0
F0
ENDCHAR
STARTCHAR slash
ENCODING 47
SWIDTH 527 0
DWIDTH 13 0
BBX 13 22 0 -4
BITMAP
0018
0030
0030
0060
0060
00C0
00C0
0180
0180
0300
0300
0600
0600
0C00
0C00
1800
1800
3000
3000
6000
6000
C000
ENDCHAR
STARTCHAR zero
ENCODING 48
SWIDTH 623 0
DWIDTH 15 0
BBX 13 17 1 0
BITMAP
0F80
18C0
38E0
78F0
7070
F078
F078
F078
F078
F078
F078
F078
7070
78F0
38E0
18C0
0F80
ENDCHAR
STARTCHAR one
ENCODING 49
SWIDTH 623 0
DWIDTH 15 0
BBX 10 17 3 0
BITMAP
FE00
1E00
1E00
1E00
1E00
1E00
1E00
1E00
1E00
1E00
1E00
1E00
1E00
1E00
1E00
3F00
FFC0
ENDCHAR
STARTCHAR two
ENCODING 50
SWIDTH 623 0
DWIDTH 15 0
BBX 12 17 1 0
BITMAP
7F80
E1E0
C0F0
C0F0
00F0
00F0
00E0
01C0
0380
0600
0800
1000
3000
7FF0
7FF0
FFF0
FFF0
ENDCHAR
STARTCHAR three
ENCODING 51
SWIDTH 623 0
DWIDTH 15 0
BBX 12 17 2 0
BITMAP
7F00
E3C0
C1E0
C1E0
01E0
01C0
01C0
0300
3F80
03E0
01E0
00F0
00F0
C0F0
C1E0
E3C0
FF00
ENDCHAR
STARTCHAR four
ENCODING 52
SWIDTH 623 0
DWIDTH 15 0
BBX 14 17 0 0
BITMAP
0070
00F0
01F0
02F0
04F0
0CF0
08F0
10F0
20F0
60F0
FFFC
FFFC
FFFC
00F0
00F0
00F0
03FC
ENDCHAR
STARTCHAR five
ENCODING 53
SWIDTH 623 0
DWIDTH 15 0
BBX 10 17 3 0
BITMAP
FFC0
FFC0
FFC0
8000
8000
8000
8000
FC00
0F80
0780
03C0
03C0
03C0
C3C0
C380
C780
FE00
ENDCHAR
STARTCHAR six
ENCODING 54
SWIDTH 623 0
DWIDTH 15 0
BBX 13 17 1 0
BITMAP
07E0
1C70
3830
7830
7000
F000
F3C0
F7F0
F8F0
F078
F078
F078
7078
7078
3870
38E0
0F80
ENDCHAR
STARTCHAR seven
ENCODING 55
SWIDTH 623 0
DWIDTH 15 0
BBX 12 17 2 0
BITMAP
FFF0
FFF0
FFF0
FFE0
0060
00C0
0180
0100
0300
0600
0E00
1C00
1C00
3800
3800
7800
7800
ENDCHAR
STARTCHAR eight
ENCODING 56
SWIDTH 623 0
DWIDTH 15 0
BBX 13 17 1 0
BITMAP
0FC0
3DE0
78F0
78F0
78F0
7CE0
3FC0
1F00
0FC0
3BF0
70F8
F078
F078
F078
F070
78E0
1FC0
ENDCHAR
STARTCHAR nine
ENCODING 57
SWIDTH 623 0
DWIDTH 15 0
BBX 13 17 1 0
BITMAP
0F80
38E0
70E0
F070
F070
F078
F078
F078
78F8
7F78
1E78
0078
0070
60F0
60E0
71C0
3F00
ENDCHAR
STARTCHAR colon
ENCODING 58
SWIDTH 265 0
DWIDTH 6 0
BBX 4 13 1 0
BITMAP
F0
F0
F0
F0
00
00
00
00
00
F0
F0
F0
F0
ENDCHAR
STARTCHAR semicolon
ENCODING 59
SWIDTH 265 0
DWIDTH 6 0
BBX 4 17 1 -4
BITMAP
F0
F0
F0
F0
00
00
00
00
00
F0
F0
F0
F0
70
70
60
C0
ENDCHAR
STARTCHAR less
ENCODING 60
SWIDTH 623 0
DWIDTH 15 0
BBX 14 14 1 0
BITMAP
0004
001C
0078
01E0
0780
1E00
F800
7800
1E00
0780
01E0
0078
001C
0004
ENDCHAR
STARTCHAR equal
ENCODING 61
SWIDTH 623 0
DWIDTH 15 0
BBX 14 6 1 4
BITMAP
FFFC
FFFC
0000
0000
FFFC
FFFC
ENDCHAR
STARTCHAR greater
ENCODING 62
SWIDTH 623 0
DWIDTH 15 0
BBX 14 14 1 0
BITMAP
8000
E000
7800
1E00
0780
01E0
0078
007C
01E0
0780
1E00
7800
E000
8000
ENDCHAR
STARTCHAR question
ENCODING 63
SWIDTH 505 0
DWIDTH 12 0
BBX 12 17 0 0
BITMAP
7F80
E1E0
C0F0
C0F0
00F0
00E0
01C0
0180
0700
0E00
1E00
1E00
0000
1E00
1E00
1E00
1E00
ENDCHAR
STARTCHAR at
ENCODING 64
SWIDTH 861 0
DWIDTH 21 0
BBX 19 17 1 0
BITMAP
00FC00
030300
0C0080
100040
20FE20
618C20
430C20
C61C20
8E1C20
8E3C40
8E7C40
8FDD80
C71E00
400000
200000
181800
07F000
ENDCHAR
STARTCHAR A
ENCODING 65
SWIDTH 795 0
DWIDTH 19 0
BBX 19 17 0 0
BITMAP
006000
00E000
00F000
01F000
01F800
017800
027800
027C00
043C00
043E00
081E00
0FFF00
100F00
100780
200780
6003C0
F80FE0
ENDCHAR
STARTCHAR B
ENCODING 66
SWIDTH 639 0
DWIDTH 15 0
BBX 14 17 0 0
BITMAP
FFE0
3CF0
3C78
3C78
3C78
3C78
3C70
3CC0
3FC0
3CF0
3C78
3C3C
3C3C
3C3C
3C3C
3C78
FFE0
ENDCHAR
STARTCHAR C
ENCODING 67
SWIDTH 711 0
DWIDTH 17 0
BBX 15 17 1 0
BITMAP
03FC
1E0E
3C06
7806
7800
F000
F000
F000
F000
F000
F000
F800
7800
7C00
3E06
1FFE
03F8
ENDCHAR
STARTCHAR D
ENCODING 68
SWIDTH 794 0
DWIDTH 19 0
BBX 18 17 0 0
BITMAP
FFF800
3C1E00
3C0F00
3C0780
3C0380
3C03C0
3C03C0
3C03C0
3C03C0
3C03C0
3C03C0
3C0380
3C0780
3C0780
3C0F00
3C1E00
FFF800
ENDCHAR
STARTCHAR E
ENCODING 69
SWIDTH 601 0
DWIDTH 14 0
BBX 13 17 1 0
BITMAP
FFF8
3C18
3C18
3C00
3C00
3C00
3C00
3C20
3FE0
3C20
3C00
3C00
3C00
3C00
3C18
3C18
FFF8
ENDCHAR
STARTCHAR F
ENCODING 70
SWIDTH 584 0
DWIDTH 14 0
BBX 13 17 0 0
BITMAP
FFF8
3C18
3C18
3C00
3C00
3C00
3C00
3C20
3FE0
3C20
3C00
3C00
3C00
3C00
3C00
3C00
FF00
ENDCHAR
STARTCHAR G
ENCODING 71
SWIDTH 753 0
DWIDTH 18 0
BBX 17 17 1 0
BITMAP
03FC00
1E0E00
3C0600
780600
780000
F00000
F00000
F00000
F00000
F07F80
F01E00
F01E00
781E00
781E00
3C1E00
1E1E00
03FC00
ENDCHAR
STARTCHAR H
ENCODING 72
SWIDTH 798 0
DWIDTH 19 0
BBX 18 17 1 0
BITMAP
FF3FC0
3C0F00
3C0F00
3C0F00
3C0F00
3C0F00
3C0F00
3C0F00
3FFF00
3C0F00
3C0F00
3C0F00
3C0F00
3C0F00
3C0F00
3C0F00
FF3FC0
ENDCHAR
STARTCHAR I
ENCODING 73
SWIDTH 349 0
DWIDTH 8 0
BBX 8 17 0 0
BITMAP
FF
3C
3C
3C
3C
3C
3C
3C
3C
3C
3C
3C
3C
3C
3C
3C
FF
ENDCHAR
STARTCHAR J
ENCODING 74
SWIDTH 452 0
DWIDTH 11 0
BBX 11 21 0 -4
BITMAP
1FE0
0780
0780
0780
0780
0780
0780
0780
0780
0780
0780
0780
0780
0780
0780
0780
0780
0780
C700
CF00
FC00
ENDCHAR
STARTCHAR K
ENCODING 75
SWIDTH 747 0
DWIDTH 18 0
BBX 17 17 1 0
BITMAP
FF1F00
3C0C00
3C1800
3C3000
3C6000
3C4000
3C8000
3DC000
3FC000
3FE000
3DF000
3CF800
3CF800
3C7C00
3C3E00
3C1F00
FF3F80
ENDCHAR
STARTCHAR L
ENCODING 76
SWIDTH 584 0
DWIDTH 14 0
BBX 14 17 0 0
BITMAP
FF00
3C00
3C00
3C00
3C00
3C00
3C00
3C00
3C00
3C00
3C00
3C00
3C00
3C0C
3C0C
3C0C
FFFC
ENDCHAR
STARTCHAR M
ENCODING 77
SWIDTH 904 0
DWIDTH 22 0
BBX 21 17 0 0
BITMAP
FE01F8
3E03E0
3E03E0
3F03E0
3F07E0
3787E0
378DE0
37CDE0
33D9E0
33F9E0
31F9E0
31F1E0
31F1E0
30E1E0
30E1E0
3001E0
FC07F8
ENDCHAR
STARTCHAR N
ENCODING 78
SWIDTH 788 0
DWIDTH 19 0
BBX 18 17 0 0
BITMAP
F80FC0
3C0300
3E0300
3F0300
3F0300
3F8300
37C300
33E300
33E300
31F300
30FB00
307F00
307F00
303F00
301F00
300F00
FC0F00
ENDCHAR
STARTCHAR O
ENCODING 79
SWIDTH 810 0
DWIDTH 19 0
BBX 18 17 1 0
BITMAP
07F800
1E1E00
3C0F00
780780
780780
F003C0
F003C0
F003C0
F003C0
F003C0
F003C0
F003C0
780780
780780
3C0F00
1E1E00
03F000
ENDCHAR
STARTCHAR P
ENCODING 80
SWIDTH 614 0
DWIDTH 15 0
BBX 14 17 0 0
BITMAP
FFE0
3C78
3C3C
3C3C
3C3C
3C3C
3C3C
3C38
3C70
3FC0
3C00
3C00
3C00
3C00
3C00
3C00
FF00
ENDCHAR
STARTCHAR Q
ENCODING 81
SWIDTH 810 0
DWIDTH 19 0
BBX 21 21 1 -4
BITMAP
03F800
1E1E00
3C0F00
780780
780780
F003C0
F003C0
F003C0
F003C0
F003C0
F003C0
F003C0
780780
780780
3C0F00
1E1E00
03F800
000F00
0007F8
0003F0
000060
ENDCHAR
STARTCHAR R
ENCODING 82
SWIDTH 720 0
DWIDTH 17 0
BBX 17 17 0 0
BITMAP
FFE000
3C7800
3C3C00
3C3C00
3C3C00
3C3C00
3C7C00
3CF800
3FF000
3DE000
3CF000
3CF800
3C7C00
3C7C00
3C3E00
3C1F00
FF1F80
ENDCHAR
STARTCHAR S
ENCODING 83
SWIDTH 556 0
DWIDTH 13 0
BBX 12 17 1 0
BITMAP
1FC0
78E0
7060
F060
F000
F800
FE00
7F80
3FC0
0FE0
03F0
01F0
00F0
C0F0
C0E0
E1C0
7F00
ENDCHAR
STARTCHAR T
ENCODING 84
SWIDTH 714 0
DWIDTH 17 0
BBX 16 17 1 0
BITMAP
FFFF
C3C3
C3C3
C3C3
03C0
03C0
03C0
03C0
03C0
03C0
03C0
03C0
03C0
03C0
03C0
03C0
0FF0
ENDCHAR
STARTCHAR U
ENCODING 85
SWIDTH 747 0
DWIDTH 18 0
BBX 18 17 0 0
BITMAP
FF0FC0
3C0300
3C0300
3C0300
3C0300
3C0300
3C0300
3C0300
3C0300
3C0300
3C0300
3C0300
3C0300
3C0300
1E0600
0F0C00
03F800
ENDCHAR
STARTCHAR V
ENCODING 86
SWIDTH 753 0
DWIDTH 18 0
BBX 18 17 0 0
BITMAP
FE07C0
7C0100
3C0300
3E0200
1E0200
1F0600
0F0400
0F8C00
078800
078800
07D000
03D000
03E000
01E000
01E000
00C000
00C000
ENDCHAR
STARTCHAR W
ENCODING 87
SWIDTH 955 0
DWIDTH 23 0
BBX 23 17 0 0
BITMAP
FE083E
781C08
7C1C08
3C1C10
3C3E10
3E3E10
1E3E10
1E5F20
1E4F20
0F4F20
0F8FC0
0F87C0
0F87C0
070380
070380
070380
020100
ENDCHAR
STARTCHAR X
ENCODING 88
SWIDTH 702 0
DWIDTH 17 0
BBX 17 17 0 0
BITMAP
7F0F80
3E0600
3E0400
1F0C00
0F0800
0F9000
07E000
03E000
03E000
07F000
06F000
0EF800
1C7C00
183C00
303E00
701F00
F87F80
ENDCHAR
STARTCHAR Y
ENCODING 89
SWIDTH 717 0
DWIDTH 17 0
BBX 18 17 0 0
BITMAP
FF07C0
7C0300
3E0200
1F0200
1F0400
0F8800
07C800
07D000
03E000
01E000
01E000
01E000
01E000
01E000
01E000
01E000
07F800
ENDCHAR
STARTCHAR Z
ENCODING 90
SWIDTH 639 0
DWIDTH 15 0
BBX 13 17 1 0
BITMAP
7FF8
60F8
60F8
01F0
01E0
03E0
07C0
0780
0F80
0F00
1F00
3E00
3C00
7C00
7818
F818
FFF8
ENDCHAR
STARTCHAR bracketleft
ENCODING 91
SWIDTH 327 0
DWIDTH 8 0
BBX 6 22 1 -4
BITMAP
FC
F0
F0
F0
F0
F0
F0
F0
F0
F0
F0
F0
F0
F0
F0
F0
F0
F0
F0
F0
F0
FC
ENDCHAR
STARTCHAR backslash
ENCODING 92
SWIDTH 527 0
DWIDTH 13 0
BBX 13 22 0 -4
BITMAP
C000
6000
6000
3000
3000
1800
1800
0C00
0C00
0600
0600
0300
0300
0180
0180
00C0
00C0
0060
0060
0030
0030
0018
ENDCHAR
STARTCHAR bracketright
ENCODING 93
SWIDTH 327 0
DWIDTH 8 0
BBX 6 22 1 -4
BITMAP
FC
3C
3C
3C
3C
3C
3C
3C
3C
3C
3C
3C
3C
3C
3C
3C
3C
3C
3C
3C
3C
FC
ENDCHAR
STARTCHAR asciicircum
ENCODING 94
SWIDTH 623 0
DWIDTH 15 0
BBX 14 14 1 3
BITMAP
0100
0300
0300
0780
0780
0CC0
0CC0
1860
1860
3030
3030
6018
6018
C00C
ENDCHAR
STARTCHAR underscore
ENCODING 95
SWIDTH 500 0
DWIDTH 12 0
BBX 10 2 1 -3
BITMAP
FFC0
FFC0
ENDCHAR
STARTCHAR grave
ENCODING 96
SWIDTH 617 0
DWIDTH 15 0
BBX 6 4 4 14
BITMAP
F0
30
18
0C
ENDCHAR
STARTCHAR a
ENCODING 97
SWIDTH 556 0
DWIDTH 13 0
BBX 13 13 0 0
BITMAP
3F80
71C0
61E0
01E0
01E0
3FE0
79E0
F1E0
F1E0
F1E0
F9E0
7FE0
3C78
ENDCHAR
STARTCHAR b
ENCODING 98
SWIDTH 640 0
DWIDTH 15 0
BBX 15 18 0 0
BITMAP
FC00
3C00
3C00
3C00
3C00
3CF0
3DFC
3FFC
3E3E
3C1E
3C1E
3C1E
3C1E
3C1E
3C3C
3E3C
3BF8
39F0
ENDCHAR
STARTCHAR c
ENCODING 99
SWIDTH 541 0
DWIDTH 13 0
BBX 11 13 1 0
BITMAP
0FE0
38E0
7060
7060
F000
F000
F000
F000
F000
7800
7C20
3FE0
0FC0
ENDCHAR
STARTCHAR d
ENCODING 100
SWIDTH 652 0
DWIDTH 16 0
BBX 15 18 1 0
BITMAP
01F8
0078
0078
0078
0078
1E78
3FF8
78F8
7078
F078
F078
F078
F078
F078
F8F8
7FF8
7F7C
1E7E
ENDCHAR
STARTCHAR e
ENCODING 101
SWIDTH 568 0
DWIDTH 14 0
BBX 12 13 1 0
BITMAP
0F80
39C0
70E0
70F0
F0F0
FFF0
F000
F000
F000
7800
7C10
3FF0
0FE0
ENDCHAR
STARTCHAR f
ENCODING 102
SWIDTH 416 0
DWIDTH 10 0
BBX 11 18 0 0
BITMAP
0FC0
1C60
3C60
3C00
3C00
FFC0
3C00
3C00
3C00
3C00
3C00
3C00
3C00
3C00
3C00
3C00
3C00
FF00
ENDCHAR
STARTCHAR g
ENCODING 103
SWIDTH 599 0
DWIDTH 14 0
BBX 14 18 0 -5
BITMAP
0FFC
38E8
78F0
78F0
78F0
78F0
38E0
18E0
07C0
3800
7FF0
3FF8
1FF8
7078
F078
F070
78E0
3FC0
ENDCHAR
STARTCHAR h
ENCODING 104
SWIDTH 654 0
DWIDTH 16 0
BBX 16 18 0 0
BITMAP
FC00
3C00
3C00
3C00
3C00
3C70
3DF8
3DFC
3E3C
3C3C
3C3C
3C3C
3C3C
3C3C
3C3C
3C3C
3C3C
FFFF
ENDCHAR
STARTCHAR i
ENCODING 105
SWIDTH 325 0
DWIDTH 8 0
BBX 8 18 0 0
BITMAP
3C
3C
3C
3C
00
FC
3C
3C
3C
3C
3C
3C
3C
3C
3C
3C
3C
FF
ENDCHAR
STARTCHAR j
ENCODING 106
SWIDTH 355 0
DWIDTH 9 0
BBX 8 23 0 -5
BITMAP
0F
0F
0F
0F
00
1F
0F
0F
0F
0F
0F
0F
0F
0F
0F
0F
0F
0F
0F
CF
CF
CE
FC
ENDCHAR
STARTCHAR k
ENCODING 107
SWIDTH 654 0
DWIDTH 15 0
BBX 15 18 1 0
BITMAP
FC00
3C00
3C00
3C00
3C00
3C3C
3C30
3C20
3C40
3C80
3DC0
3FC0
3FE0
3DF0
3CF0
3CF8
3C7C
FF3E
ENDCHAR
STARTCHAR l
ENCODING 108
SWIDTH 325 0
DWIDTH 8 0
BBX 8 18 0 0
BITMAP
FC
3C
3C
3C
3C
3C
3C
3C
3C
3C
3C
3C
3C
3C
3C
3C
3C
FF
ENDCHAR
STARTCHAR m
ENCODING 109
SWIDTH 967 0
DWIDTH 23 0
BBX 24 13 0 0
BITMAP
FCF0F0
3DF9F8
3FFFFC
3E3E3C
3C3C3C
3C3C3C
3C3C3C
3C3C3C
3C3C3C
3C3C3C
3C3C3C
3C3C3C
FFFFFF
ENDCHAR
STARTCHAR n
ENCODING 110
SWIDTH 654 0
DWIDTH 16 0
BBX 16 13 0 0
BITMAP
FC70
7DF8
3DFC
3E3C
3C3C
3C3C
3C3C
3C3C
3C3C
3C3C
3C3C
3C3C
FFFF
ENDCHAR
STARTCHAR o
ENCODING 111
SWIDTH 617 0
DWIDTH 15 0
BBX 13 13 1 0
BITMAP
0F80
38E0
78F0
7070
F078
F078
F078
F078
F078
7070
78F0
38E0
0F80
ENDCHAR
STARTCHAR p
ENCODING 112
SWIDTH 652 0
DWIDTH 16 0
BBX 15 18 0 -5
BITMAP
FCF0
7DFC
3FFC
3E3E
3C1E
3C1E
3C1E
3C1E
3C1E
3C3C
3E3C
3FF8
3CF0
3C00
3C00
3C00
3C00
FF00
ENDCHAR
STARTCHAR q
ENCODING 113
SWIDTH 640 0
DWIDTH 15 0
BBX 15 18 1 -5
BITMAP
1E78
3FF8
78F8
7878
F078
F078
F078
F078
F078
F8F8
7FF8
7F78
1E78
0078
0078
0078
0078
01FE
ENDCHAR
STARTCHAR r
ENCODING 114
SWIDTH 462 0
DWIDTH 11 0
BBX 11 13 0 0
BITMAP
FCE0
3DE0
3FE0
3E60
3C00
3C00
3C00
3C00
3C00
3C00
3C00
3C00
FF00
ENDCHAR
STARTCHAR s
ENCODING 115
SWIDTH 525 0
DWIDTH 13 0
BBX 10 13 1 0
BITMAP
3F00
7980
F180
F180
F800
FF00
7F80
3FC0
07C0
C3C0
C3C0
E780
7E00
ENDCHAR
STARTCHAR t
ENCODING 116
SWIDTH 389 0
DWIDTH 9 0
BBX 9 16 0 0
BITMAP
1C00
3C00
3C00
FF80
3C00
3C00
3C00
3C00
3C00
3C00
3C00
3C00
3C00
3C00
1F80
0F80
ENDCHAR
STARTCHAR u
ENCODING 117
SWIDTH 654 0
DWIDTH 16 0
BBX 16 13 0 0
BITMAP
FCFC
3C3C
3C3C
3C3C
3C3C
3C3C
3C3C
3C3C
3C3C
3C7C
3FBC
1FBE
0E3F
ENDCHAR
STARTCHAR v
ENCODING 118
SWIDTH 657 0
DWIDTH 16 0
BBX 16 13 0 0
BITMAP
FE1F
7C04
3C0C
1E08
1E18
1F10
0F30
0FA0
07E0
07C0
03C0
0380
0180
ENDCHAR
STARTCHAR w
ENCODING 119
SWIDTH 880 0
DWIDTH 21 0
BBX 21 13 0 0
BITMAP
FE18F8
783820
7C3C20
3C7C60
3C7C40
1E7E40
1E9E80
1E9F80
0F0F80
0F0F00
0F0F00
060700
060600
ENDCHAR
STARTCHAR x
ENCODING 120
SWIDTH 608 0
DWIDTH 15 0
BBX 15 13 0 0
BITMAP
FF3E
7C18
3E30
1F20
0FC0
0F80
07C0
07E0
05F0
09F0
10F8
307C
F8FE
ENDCHAR
STARTCHAR y
ENCODING 121
SWIDTH 654 0
DWIDTH 16 0
BBX 16 18 0 -5
BITMAP
FE1F
7C04
3C0C
3E08
1E18
1F10
0F30
0FA0
07C0
07C0
0380
0380
0300
0100
0200
0600
0C00
3C00
ENDCHAR
STARTCHAR z
ENCODING 122
SWIDTH 584 0
DWIDTH 14 0
BBX 12 13 1 0
BITMAP
FFF0
C1F0
C3E0
03C0
07C0
0F80
1F00
1F00
3E00
7C00
7C30
F830
FFF0
ENDCHAR
STARTCHAR braceleft
ENCODING 123
SWIDTH 366 0
DWIDTH 9 0
BBX 6 22 1 -4
BITMAP
1C
38
78
78
78
78
78
78
78
70
E0
60
70
78
78
78
78
78
78
78
38
1C
ENDCHAR
STARTCHAR bar
ENCODING 124
SWIDTH 259 0
DWIDTH 6 0
BBX 2 22 2 -4
BITMAP
C0
C0
C0
C0
C0
C0
C0
C0
C0
C0
C0
C0
C0
C0
C0
C0
C0
C0
C0
C0
C0
C0
ENDCHAR
STARTCHAR braceright
ENCODING 125
SWIDTH 366 0
DWIDTH 9 0
BBX 6 22 1 -4
BITMAP
E0
70
78
78
78
78
78
78
78
38
1C
18
38
78
78
78
78
78
78
78
70
E0
ENDCHAR
STARTCHAR asciitilde
ENCODING 126
SWIDTH 623 0
DWIDTH 15 0
BBX 14 6 1 4
BITMAP
3800
7E04
4704
8388
81F8
8070
ENDCHAR
STARTCHAR space
ENCODING 160
SWIDTH 333 0
DWIDTH 8 0
BBX 1 1 0 0
BITMAP
00
ENDCHAR
STARTCHAR exclamdown
ENCODING 161
SWIDTH 265 0
DWIDTH 6 0
BBX 4 18 1 -5
BITMAP
F0
F0
F0
F0
00
40
40
60
60
60
E0
E0
F0
F0
F0
F0
F0
F0
ENDCHAR
STARTCHAR cent
ENCODING 162
SWIDTH 623 0
DWIDTH 15 0
BBX 11 17 2 0
BITMAP
0200
0200
0FE0
3AE0
7260
7260
F200
F200
F200
F200
F200
7200
7A20
3FE0
0FC0
0200
0200
ENDCHAR
STARTCHAR sterling
ENCODING 163
SWIDTH 623 0
DWIDTH 15 0
BBX 11 17 3 0
BITMAP
07C0
1C60
1C60
3C60
3C00
3C00
3C00
FF00
3C00
3C00
3C00
3800
6000
FFE0
FFE0
FFE0
FFE0
ENDCHAR
STARTCHAR currency
ENCODING 164
SWIDTH 623 0
DWIDTH 15 0
BBX 14 15 0 1
BITMAP
8004
4008
2790
1FE0
1CE0
3870
3030
3030
3030
3870
1CE0
1FE0
2790
4008
8004
ENDCHAR
STARTCHAR yen
ENCODING 165
SWIDTH 623 0
DWIDTH 15 0
BBX 16 17 0 0
BITMAP
FE0F
7C06
3C04
3E08
1F08
1F10
0FA0
07A0
07C0
1FF8
03C0
03C0
1FF8
03C0
03C0
03C0
0FF0
ENDCHAR
STARTCHAR brokenbar
ENCODING 166
SWIDTH 259 0
DWIDTH 6 0
BBX 2 22 2 -4
BITMAP
C0
C0
C0
C0
C0
C0
C0
C0
C0
C0
00
00
C0
C0
C0
C0
C0
C0
C0
C0
C0
C0
ENDCHAR
STARTCHAR section
ENCODING 167
SWIDTH 623 0
DWIDTH 15 0
BBX 11 22 2 -5
BITMAP
1FC0
79C0
F0C0
F0C0
F000
FC00
7F00
3FC0
6FC0
E7E0
E1E0
F0E0
FCE0
7EC0
7F80
1FC0
07E0
03E0
C1E0
C1E0
E3C0
7F00
ENDCHAR
STARTCHAR dieresis
ENCODING 168
SWIDTH 617 0
DWIDTH 15 0
BBX 7 3 4 14
BITMAP
C6
C6
C6
ENDCHAR
STARTCHAR copyright
ENCODING 169
SWIDTH 855 0
DWIDTH 21 0
BBX 18 17 1 0
BITMAP
03F000
0C0C00
100200
200100
41F880
470880
8E0840
8E0040
8E0040
8E0040
8E0040
470880
41F880
200100
100200
0C0C00
03F000
ENDCHAR
STARTCHAR ordfeminine
ENCODING 170
SWIDTH 488 0
DWIDTH 12 0
BBX 11 9 1 8
BITMAP
7F00
C3C0
C3C0
03C0
3FC0
F3C0
F3C0
FFC0
79E0
ENDCHAR
STARTCHAR guillemotleft
ENCODING 171
SWIDTH 566 0
DWIDTH 14 0
BBX 12 11 1 1
BITMAP
0410
0C30
1860
38C0
71C0
F380
71C0
38C0
1860
0C30
0410
ENDCHAR
STARTCHAR logicalnot
ENCODING 172
SWIDTH 623 0
DWIDTH 15 0
BBX 14 6 1 4
BITMAP
FFFC
FFFC
000C
000C
000C
000C
ENDCHAR
STARTCHAR hyphen
ENCODING 173
SWIDTH 289 0
DWIDTH 7 0
BBX 5 3 1 6
BITMAP
F8
F8
F8
ENDCHAR
STARTCHAR registered
ENCODING 174
SWIDTH 623 0
DWIDTH 15 0
BBX 12 11 2 6
BITMAP
1F80
30C0
4020
9F90
8890
8890
8F10
8B10
59A0
30C0
1F80
ENDCHAR
STARTCHAR macron
ENCODING 175
SWIDTH 617 0
DWIDTH 15 0
BBX 7 2 4 15
BITMAP
FE
FE
ENDCHAR
STARTCHAR degree
ENCODING 176
SWIDTH 259 0
DWIDTH 6 0
BBX 4 4 1 13
BITMAP
60
90
90
60
ENDCHAR
STARTCHAR plusminus
ENCODING 177
SWIDTH 623 0
DWIDTH 15 0
BBX 14 14 1 0
BITMAP
0300
0300
0300
0300
FFFC
FFFC
0300
0300
0300
0300
0000
0000
FFFC
FFFC
ENDCHAR
STARTCHAR twosuperior
ENCODING 178
SWIDTH 374 0
DWIDTH 9 0
BBX 7 10 -14 7
BITMAP
FC
CE
86
06
0C
18
30
40
FE
FE
ENDCHAR
STARTCHAR threesuperior
ENCODING 179
SWIDTH 374 0
DWIDTH 9 0
BBX 7 10 -14 7
BITMAP
FC
8E
86
04
78
0C
06
86
8E
F8
ENDCHAR
STARTCHAR acute
ENCODING 180
SWIDTH 617 0
DWIDTH 15 0
BBX 6 4 5 14
BITMAP
3C
30
60
C0
ENDCHAR
STARTCHAR mu
ENCODING 181
SWIDTH 705 0
DWIDTH 17 0
BBX 16 17 0 -4
BITMAP
FCFC
3C3C
3C3C
3C3C
3C3C
3C3C
3C3C
3C3C
3C3C
3C7C
3FFC
3FBC
3F3F
3C00
3C00
3C00
3C00
ENDCHAR
STARTCHAR paragraph
ENCODING 182
SWIDTH 623 0
DWIDTH 15 0
BBX 10 21 1 -4
BITMAP
3FC0
7FC0
FC40
FC40
FC40
FC40
7C40
7C40
1C40
0440
0440
0440
0440
0440
0440
0440
0440
0440
0440
0440
0440
ENDCHAR
STARTCHAR periodcentered
ENCODING 183
SWIDTH 623 0
DWIDTH 15 0
BBX 3 4 6 5
BITMAP
E0
E0
E0
E0
ENDCHAR
STARTCHAR cedilla
ENCODING 184
SWIDTH 617 0
DWIDTH 15 0
BBX 4 6 6 -5
BITMAP
60
40
F0
70
70
E0
ENDCHAR
STARTCHAR onesuperior
ENCODING 185
SWIDTH 374 0
DWIDTH 9 0
BBX 6 10 -15 7
BITMAP
F0
30
30
30
30
30
30
30
30
FC
ENDCHAR
STARTCHAR ordmasculine
ENCODING 186
SWIDTH 488 0
DWIDTH 12 0
BBX 10 9 1 8
BITMAP
1E00
7380
F3C0
F3C0
F3C0
F3C0
F3C0
7380
1E00
ENDCHAR
STARTCHAR guillemotright
ENCODING 187
SWIDTH 566 0
DWIDTH 14 0
BBX 12 11 1 1
BITMAP
8200
C300
6180
31C0
38E0
1CF0
38E0
31C0
6180
C300
8200
ENDCHAR
STARTCHAR onequarter
ENCODING 188
SWIDTH 803 0
DWIDTH 19 0
BBX 18 17 5 0
BITMAP
7807C0
180700
180F00
181E00
183C00
187800
187000
18F380
19E380
7FC580
038980
079180
0F3FC0
1E3FC0
3C0180
380180
F803C0
ENDCHAR
STARTCHAR onehalf
ENCODING 189
SWIDTH 803 0
DWIDTH 19 0
BBX 18 17 5 0
BITMAP
7807C0
180700
180F00
181E00
183C00
187800
187000
18FF00
19F380
7FE180
038180
078300
0F0600
1E0C00
3C1000
383F80
F83F80
ENDCHAR
STARTCHAR threequarters
ENCODING 190
SWIDTH 803 0
DWIDTH 19 0
BBX 18 17 5 0
BITMAP
FC07C0
8E0700
860F00
041E00
783C00
0C7800
067000
86F380
8FE380
FBC580
038980
079180
0F3FC0
1E3FC0
3C0180
380180
F803C0
ENDCHAR
STARTCHAR questiondown
ENCODING 191
SWIDTH 505 0
DWIDTH 12 0
BBX 12 18 0 -5
BITMAP
0780
0780
0780
0780
0000
0780
0780
0700
0600
0C00
1800
7000
F000
F000
F030
F830
7C70
1FE0
ENDCHAR
STARTCHAR Agrave
ENCODING 192
SWIDTH 795 0
DWIDTH 19 0
BBX 19 22 0 0
BITMAP
03C000
00C000
006000
003000
000000
006000
00E000
00F000
01F000
01F800
017800
027800
027C00
043C00
043E00
081E00
0FFF00
100F00
100780
200780
6003C0
F80FE0
ENDCHAR
STARTCHAR Aacute
ENCODING 193
SWIDTH 795 0
DWIDTH 19 0
BBX 19 22 0 0
BITMAP
007800
006000
00C000
018000
000000
006000
00E000
00F000
01F000
01F800
017800
027800
027C00
043C00
043E00
081E00
0FFF00
100F00
100780
200780
6003C0
F80FE0
ENDCHAR
STARTCHAR Acircumflex
ENCODING 194
SWIDTH 795 0
DWIDTH 19 0
BBX 19 22 0 0
BITMAP
00F000
00F000
019800
030C00
000000
006000
00E000
00F000
01F000
01F800
017800
027800
027C00
043C00
043E00
081E00
0FFF00
100F00
100780
200780
6003C0
F80FE0
ENDCHAR
STARTCHAR Atilde
ENCODING 195
SWIDTH 795 0
DWIDTH 19 0
BBX 19 22 0 0
BITMAP
01C400
03FC00
03FC00
023800
000000
006000
00E000
00F000
01F000
01F800
017800
027800
027C00
043C00
043E00
081E00
0FFF00
100F00
100780
200780
6003C0
F80FE0
ENDCHAR
STARTCHAR Adieresis
ENCODING 196
SWIDTH 795 0
DWIDTH 19 0
BBX 19 21 0 0
BITMAP
031800
031800
031800
000000
006000
00E000
00F000
01F000
01F800
017800
027800
027C00
043C00
043E00
081E00
0FFF00
100F00
100780
200780
6003C0
F80FE0
ENDCHAR
STARTCHAR Aring
ENCODING 197
SWIDTH 795 0
DWIDTH 19 0
BBX 19 22 0 0
BITMAP
006000
009000
009000
006000
000000
006000
00E000
00F000
01F000
01F800
017800
027800
027C00
043C00
043E00
081E00
0FFF00
100F00
100780
200780
6003C0
F80FE0
ENDCHAR
STARTCHAR AE
ENCODING 198
SWIDTH 959 0
DWIDTH 23 0
BBX 22 17 0 0
BITMAP
003FF8
003C18
007C18
00FC00
00BC00
013C00
013C00
023C30
063FF0
043C30
083C00
0FFC00
103C00
303C00
203C0C
603C0C
F0FFFC
ENDCHAR
STARTCHAR Ccedilla
ENCODING 199
SWIDTH 711 0
DWIDTH 17 0
BBX 15 22 1 -5
BITMAP
03FC
1E0E
3C06
7806
7800
F000
F000
F000
F000
F000
F000
F800
7800
7C00
3E06
1FFE
03F8
0100
03C0
01C0
01C0
0380
ENDCHAR
STARTCHAR Egrave
ENCODING 200
SWIDTH 601 0
DWIDTH 14 0
BBX 13 22 1 0
BITMAP
1E00
0600
0300
0180
0000
FFF8
3C18
3C18
3C00
3C00
3C00
3C00
3C20
3FE0
3C20
3C00
3C00
3C00
3C00
3C18
3C18
FFF8
ENDCHAR
STARTCHAR Eacute
ENCODING 201
SWIDTH 601 0
DWIDTH 14 0
BBX 13 22 1 0
BITMAP
03C0
0300
0600
0C00
0000
FFF8
3C18
3C18
3C00
3C00
3C00
3C00
3C20
3FE0
3C20
3C00
3C00
3C00
3C00
3C18
3C18
FFF8
ENDCHAR
STARTCHAR Ecircumflex
ENCODING 202
SWIDTH 601 0
DWIDTH 14 0
BBX 13 22 1 0
BITMAP
0780
0780
0CC0
1860
0000
FFF8
3C18
3C18
3C00
3C00
3C00
3C00
3C20
3FE0
3C20
3C00
3C00
3C00
3C00
3C18
3C18
FFF8
ENDCHAR
STARTCHAR Edieresis
ENCODING 203
SWIDTH 601 0
DWIDTH 14 0
BBX 13 21 1 0
BITMAP
18C0
18C0
18C0
0000
FFF8
3C18
3C18
3C00
3C00
3C00
3C00
3C20
3FE0
3C20
3C00
3C00
3C00
3C00
3C18
3C18
FFF8
ENDCHAR
STARTCHAR Igrave
ENCODING 204
SWIDTH 349 0
DWIDTH 8 0
BBX 8 22 0 0
BITMAP
F0
30
18
0C
00
FF
3C
3C
3C
3C
3C
3C
3C
3C
3C
3C
3C
3C
3C
3C
3C
FF
ENDCHAR
STARTCHAR Iacute
ENCODING 205
SWIDTH 349 0
DWIDTH 8 0
BBX 8 22 0 0
BITMAP
0F
0C
18
30
00
FF
3C
3C
3C
3C
3C
3C
3C
3C
3C
3C
3C
3C
3C
3C
3C
FF
ENDCHAR
STARTCHAR Icircumflex
ENCODING 206
SWIDTH 349 0
DWIDTH 8 0
BBX 8 22 0 0
BITMAP
3C
3C
66
C3
00
FF
3C
3C
3C
3C
3C
3C
3C
3C
3C
3C
3C
3C
3C
3C
3C
FF
ENDCHAR
STARTCHAR Idieresis
ENCODING 207
SWIDTH 349 0
DWIDTH 8 0
BBX 8 21 0 0
BITMAP
C6
C6
C6
00
FF
3C
3C
3C
3C
3C
3C
3C
3C
3C
3C
3C
3C
3C
3C
3C
FF
ENDCHAR
STARTCHAR Eth
ENCODING 208
SWIDTH 794 0
DWIDTH 19 0
BBX 18 17 0 0
BITMAP
7FF800
3C1E00
3C0F00
3C0780
3C0380
3C03C0
3C03C0
3C03C0
FFC3C0
3C03C0
3C03C0
3C03C0
3C0780
3C0780
3C0F00
3C1E00
7FF800
ENDCHAR
STARTCHAR Ntilde
ENCODING 209
SWIDTH 788 0
DWIDTH 19 0
BBX 18 22 0 0
BITMAP
038800
07F800
07F800
047000
000000
F80FC0
3C0300
3E0300
3F0300
3F0300
3F8300
37C300
33E300
33E300
31F300
30FB00
307F00
307F00
303F00
301F00
300F00
FC0F00
ENDCHAR
STARTCHAR Ograve
ENCODING 210
SWIDTH 810 0
DWIDTH 19 0
BBX 18 22 1 0
BITMAP
078000
018000
00C000
006000
000000
07F800
1E1E00
3C0F00
780780
780780
F003C0
F003C0
F003C0
F003C0
F003C0
F003C0
F003C0
780780
780780
3C0F00
1E1E00
03F000
ENDCHAR
STARTCHAR Oacute
ENCODING 211
SWIDTH 810 0
DWIDTH 19 0
BBX 18 22 1 0
BITMAP
007800
006000
00C000
018000
000000
07F800
1E1E00
3C0F00
780780
780780
F003C0
F003C0
F003C0
F003C0
F003C0
F003C0
F003C0
780780
780780
3C0F00
1E1E00
03F000
ENDCHAR
STARTCHAR Ocircumflex
ENCODING 212
SWIDTH 810 0
DWIDTH 19 0
BBX 18 22 1 0
BITMAP
01E000
01E000
033000
061800
000000
07F800
1E1E00
3C0F00
780780
780780
F003C0
F003C0
F003C0
F003C0
F003C0
F003C0
F003C0
780780
780780
3C0F00
1E1E00
03F000
ENDCHAR
STARTCHAR Otilde
ENCODING 213
SWIDTH 810 0
DWIDTH 19 0
BBX 18 22 1 0
BITMAP
038800
07F800
07F800
047000
000000
07F800
1E1E00
3C0F00
780780
780780
F003C0
F003C0
F003C0
F003C0
F003C0
F003C0
F003C0
780780
780780
3C0F00
1E1E00
03F000
ENDCHAR
STARTCHAR Odieresis
ENCODING 214
SWIDTH 810 0
DWIDTH 19 0
BBX 18 21 1 0
BITMAP
063000
063000
063000
000000
07F800
1E1E00
3C0F00
780780
780780
F003C0
F003C0
F003C0
F003C0
F003C0
F003C0
F003C0
780780
780780
3C0F00
1E1E00
03F000
ENDCHAR
STARTCHAR multiply
ENCODING 215
SWIDTH 623 0
DWIDTH 15 0
BBX 14 14 1 0
BITMAP
4008
E01C
7038
3870
1CE0
0FC0
0780
0780
0FC0
1CE0
3870
7038
E01C
4008
ENDCHAR
STARTCHAR Oslash
ENCODING 216
SWIDTH 810 0
DWIDTH 19 0
BBX 18 17 1 0
BITMAP
03F0C0
1E1F00
3C0F00
780780
780F80
F01BC0
F033C0
F063C0
F0C3C0
F183C0
F303C0
F603C0
7C0780
780780
3C0F00
3E1E00
C7F000
ENDCHAR
STARTCHAR Ugrave
ENCODING 217
SWIDTH 747 0
DWIDTH 18 0
BBX 18 22 0 0
BITMAP
078000
018000
00C000
006000
000000
FF0FC0
3C0300
3C0300
3C0300
3C0300
3C0300
3C0300
3C0300
3C0300
3C0300
3C0300
3C0300
3C0300
3C0300
1E0600
0F0C00
03F800
ENDCHAR
STARTCHAR Uacute
ENCODING 218
SWIDTH 747 0
DWIDTH 18 0
BBX 18 22 0 0
BITMAP
007800
006000
00C000
018000
000000
FF0FC0
3C0300
3C0300
3C0300
3C0300
3C0300
3C0300
3C0300
3C0300
3C0300
3C0300
3C0300
3C0300
3C0300
1E0600
0F0C00
03F800
ENDCHAR
STARTCHAR Ucircumflex
ENCODING 219
SWIDTH 747 0
DWIDTH 18 0
BBX 18 22 0 0
BITMAP
01E000
01E000
033000
061800
000000
FF0FC0
3C0300
3C0300
3C0300
3C0300
3C0300
3C0300
3C0300
3C0300
3C0300
3C0300
3C0300
3C0300
3C0300
1E0600
0F0C00
03F800
ENDCHAR
STARTCHAR Udieresis
ENCODING 220
SWIDTH 747 0
DWIDTH 18 0
BBX 18 21 0 0
BITMAP
063000
063000
063000
000000
FF0FC0
3C0300
3C0300
3C0300
3C0300
3C0300
3C0300
3C0300
3C0300
3C0300
3C0300
3C0300
3C0300
3C0300
1E0600
0F0C00
03F800
ENDCHAR
STARTCHAR Yacute
ENCODING 221
SWIDTH 717 0
DWIDTH 17 0
BBX 18 22 0 0
BITMAP
007800
006000
00C000
018000
000000
FF07C0
7C0300
3E0200
1F0200
1F0400
0F8800
07C800
07D000
03E000
01E000
01E000
01E000
01E000
01E000
01E000
01E000
07F800
ENDCHAR
STARTCHAR Thorn
ENCODING 222
SWIDTH 614 0
DWIDTH 15 0
BBX 14 17 0 0
BITMAP
FF00
3C00
3C00
3FF0
3C78
3C3C
3C3C
3C3C
3C3C
3C3C
3C38
3C78
3C70
3FC0
3C00
3C00
FF00
ENDCHAR
STARTCHAR germandbls
ENCODING 223
SWIDTH 700 0
DWIDTH 17 0
BBX 15 18 1 0
BITMAP
0FC0
1CF0
3CF0
3CF0
3CE0
3DC0
3D80
3F80
3FC0
3FE0
3DF8
3CFC
3C7E
3C3E
3C1E
3D9E
3D9C
FDF8
ENDCHAR
STARTCHAR agrave
ENCODING 224
SWIDTH 556 0
DWIDTH 13 0
BBX 13 18 0 0
BITMAP
1E00
0600
0300
0180
0000
3F80
71C0
61E0
01E0
01E0
3FE0
79E0
F1E0
F1E0
F1E0
F9E0
7FE0
3C78
ENDCHAR
STARTCHAR aacute
ENCODING 225
SWIDTH 556 0
DWIDTH 13 0
BBX 13 18 0 0
BITMAP
03C0
0300
0600
0C00
0000
3F80
71C0
61E0
01E0
01E0
3FE0
79E0
F1E0
F1E0
F1E0
F9E0
7FE0
3C78
ENDCHAR
STARTCHAR acircumflex
ENCODING 226
SWIDTH 556 0
DWIDTH 13 0
BBX 13 18 0 0
BITMAP
0F00
0F00
1980
30C0
0000
3F80
71C0
61E0
01E0
01E0
3FE0
79E0
F1E0
F1E0
F1E0
F9E0
7FE0
3C78
ENDCHAR
STARTCHAR atilde
ENCODING 227
SWIDTH 556 0
DWIDTH 13 0
BBX 13 18 0 0
BITMAP
1C40
3FC0
3FC0
2380
0000
3F80
71C0
61E0
01E0
01E0
3FE0
79E0
F1E0
F1E0
F1E0
F9E0
7FE0
3C78
ENDCHAR
STARTCHAR adieresis
ENCODING 228
SWIDTH 556 0
DWIDTH 13 0
BBX 13 17 0 0
BITMAP
18C0
18C0
18C0
0000
3F80
71C0
61E0
01E0
01E0
3FE0
79E0
F1E0
F1E0
F1E0
F9E0
7FE0
3C78
ENDCHAR
STARTCHAR aring
ENCODING 229
SWIDTH 556 0
DWIDTH 13 0
BBX 13 18 0 0
BITMAP
0600
0900
0900
0600
0000
3F80
71C0
61E0
01E0
01E0
3FE0
79E0
F1E0
F1E0
F1E0
F9E0
7FE0
3C78
ENDCHAR
STARTCHAR ae
ENCODING 230
SWIDTH 858 0
DWIDTH 21 0
BBX 19 13 0 0
BITMAP
3F9F00
70F3C0
60F1C0
00F1E0
00F1E0
1FFFE0
78F000
F0F000
F0F000
F0F800
F8FC20
7F3FE0
3C1FC0
ENDCHAR
STARTCHAR ccedilla
ENCODING 231
SWIDTH 541 0
DWIDTH 13 0
BBX 11 18 1 -5
BITMAP
0FE0
38E0
7060
7060
F000
F000
F000
F000
F000
7800
7C20
3FE0
0FC0
0400
0F00
0700
0700
0E00
ENDCHAR
STARTCHAR egrave
ENCODING 232
SWIDTH 568 0
DWIDTH 14 0
BBX 12 18 1 0
BITMAP
1E00
0600
0300
0180
0000
0F80
39C0
70E0
70F0
F0F0
FFF0
F000
F000
F000
7800
7C10
3FF0
0FE0
ENDCHAR
STARTCHAR eacute
ENCODING 233
SWIDTH 568 0
DWIDTH 14 0
BBX 12 18 1 0
BITMAP
03C0
0300
0600
0C00
0000
0F80
39C0
70E0
70F0
F0F0
FFF0
F000
F000
F000
7800
7C10
3FF0
0FE0
ENDCHAR
STARTCHAR ecircumflex
ENCODING 234
SWIDTH 568 0
DWIDTH 14 0
BBX 12 18 1 0
BITMAP
0F00
0F00
1980
30C0
0000
0F80
39C0
70E0
70F0
F0F0
FFF0
F000
F000
F000
7800
7C10
3FF0
0FE0
ENDCHAR
STARTCHAR edieresis
ENCODING 235
SWIDTH 568 0
DWIDTH 14 0
BBX 12 17 1 0
BITMAP
18C0
18C0
18C0
0000
0F80
39C0
70E0
70F0
F0F0
FFF0
F000
F000
F000
7800
7C10
3FF0
0FE0
ENDCHAR
STARTCHAR igrave
ENCODING 236
SWIDTH 325 0
DWIDTH 8 0
BBX 8 18 0 0
BITMAP
F0
30
18
0C
00
FC
3C
3C
3C
3C
3C
3C
3C
3C
3C
3C
3C
FF
ENDCHAR
STARTCHAR iacute
ENCODING 237
SWIDTH 325 0
DWIDTH 8 0
BBX 8 18 0 0
BITMAP
0F
0C
18
30
00
FC
3C
3C
3C
3C
3C
3C
3C
3C
3C
3C
3C
FF
ENDCHAR
STARTCHAR icircumflex
ENCODING 238
SWIDTH 325 0
DWIDTH 8 0
BBX 8 18 0 0
BITMAP
3C
3C
66
C3
00
FC
3C
3C
3C
3C
3C
3C
3C
3C
3C
3C
3C
FF
ENDCHAR
STARTCHAR idieresis
ENCODING 239
SWIDTH 325 0
DWIDTH 8 0
BBX 8 17 0 0
BITMAP
C6
C6
C6
00
FC
3C
3C
3C
3C
3C
3C
3C
3C
3C
3C
3C
FF
ENDCHAR
STARTCHAR eth
ENCODING 240
SWIDTH 652 0
DWIDTH 16 0
BBX 13 20 1 0
BITMAP
0100
0180
F200
1E00
0F80
33C0
41E0
1FF0
38F0
78F8
F078
F078
F078
F078
F078
F078
7070
78F0
38E0
0F80
ENDCHAR
STARTCHAR ntilde
ENCODING 241
SWIDTH 654 0
DWIDTH 16 0
BBX 16 18 0 0
BITMAP
0710
0FF0
0FF0
08E0
0000
FC70
7DF8
3DFC
3E3C
3C3C
3C3C
3C3C
3C3C
3C3C
3C3C
3C3C
3C3C
FFFF
ENDCHAR
STARTCHAR ograve
ENCODING 242
SWIDTH 617 0
DWIDTH 15 0
BBX 13 18 1 0
BITMAP
1E00
0600
0300
0180
0000
0F80
38E0
78F0
7070
F078
F078
F078
F078
F078
7070
78F0
38E0
0F80
ENDCHAR
STARTCHAR oacute
ENCODING 243
SWIDTH 617 0
DWIDTH 15 0
BBX 13 18 1 0
BITMAP
03C0
0300
0600
0C00
0000
0F80
38E0
78F0
7070
F078
F078
F078
F078
F078
7070
78F0
38E0
0F80
ENDCHAR
STARTCHAR ocircumflex
ENCODING 244
SWIDTH 617 0
DWIDTH 15 0
BBX 13 18 1 0
BITMAP
0F00
0F00
1980
30C0
0000
0F80
38E0
78F0
7070
F078
F078
F078
F078
F078
7070
78F0
38E0
0F80
ENDCHAR
STARTCHAR otilde
ENCODING 245
SWIDTH 617 0
DWIDTH 15 0
BBX 13 18 1 0
BITMAP
1C40
3FC0
3FC0
2380
0000
0F80
38E0
78F0
7070
F078
F078
F078
F078
F078
7070
78F0
38E0
0F80
ENDCHAR
STARTCHAR odieresis
ENCODING 246
SWIDTH 617 0
DWIDTH 15 0
BBX 13 17 1 0
BITMAP
18C0
18C0
18C0
0000
0F80
38E0
78F0
7070
F078
F078
F078
F078
F078
7070
78F0
38E0
0F80
ENDCHAR
STARTCHAR divide
ENCODING 247
SWIDTH 623 0
DWIDTH 15 0
BBX 15 13 0 0
BITMAP
0380
0380
0380
0000
0000
0000
FFFE
FFFE
0000
0000
0380
0380
0380
ENDCHAR
STARTCHAR oslash
ENCODING 248
SWIDTH 617 0
DWIDTH 15 0
BBX 16 13 0 0
BITMAP
07E3
1E7C
3C3C
383C
787E
78DE
799E
7B1E
7E1E
3C1C
3C3C
3C78
C7E0
ENDCHAR
STARTCHAR ugrave
ENCODING 249
SWIDTH 654 0
DWIDTH 16 0
BBX 16 18 0 0
BITMAP
0F00
0300
0180
00C0
0000
FCFC
3C3C
3C3C
3C3C
3C3C
3C3C
3C3C
3C3C
3C3C
3C7C
3FBC
1FBE
0E3F
ENDCHAR
STARTCHAR uacute
ENCODING 250
SWIDTH 654 0
DWIDTH 16 0
BBX 16 18 0 0
BITMAP
00F0
00C0
0180
0300
0000
FCFC
3C3C
3C3C
3C3C
3C3C
3C3C
3C3C
3C3C
3C3C
3C7C
3FBC
1FBE
0E3F
ENDCHAR
STARTCHAR ucircumflex
ENCODING 251
SWIDTH 654 0
DWIDTH 16 0
BBX 16 18 0 0
BITMAP
03C0
03C0
0660
0C30
0000
FCFC
3C3C
3C3C
3C3C
3C3C
3C3C
3C3C
3C3C
3C3C
3C7C
3FBC
1FBE
0E3F
ENDCHAR
STARTCHAR udieresis
ENCODING 252
SWIDTH 654 0
DWIDTH 16 0
BBX 16 17 0 0
BITMAP
0630
0630
0630
0000
FCFC
3C3C
3C3C
3C3C
3C3C
3C3C
3C3C
3C3C
3C3C
3C7C
3FBC
1FBE
0E3F
ENDCHAR
STARTCHAR yacute
ENCODING 253
SWIDTH 654 0
DWIDTH 16 0
BBX 16 23 0 -5
BITMAP
00F0
00C0
0180
0300
0000
FE1F
7C04
3C0C
3E08
1E18
1F10
0F30
0FA0
07C0
07C0
0380
0380
0300
0100
0200
0600
0C00
3C00
ENDCHAR
STARTCHAR thorn
ENCODING 254
SWIDTH 652 0
DWIDTH 16 0
BBX 15 21 0 -5
BITMAP
FC00
3C00
3C00
3CF0
3DFC
3FFC
3E3E
3C1E
3C1E
3C1E
3C1E
3C1E
3C3C
3E3C
3FF8
3CF0
3C00
3C00
3C00
3C00
FF00
ENDCHAR
STARTCHAR ydieresis
ENCODING 255
SWIDTH 654 0
DWIDTH 16 0
BBX 16 22 0 -5
BITMAP
0C60
0C60
0C60
0000
FE1F
7C04
3C0C
3E08
1E18
1F10
0F30
0FA0
07C0
07C0
0380
0380
0300
0100
0200
0600
0C00
3C00
ENDCHAR
STARTCHAR Amacron
ENCODING 256
SWIDTH 795 0
DWIDTH 19 0
BBX 19 20 0 0
BITMAP
03F800
03F800
000000
006000
00E000
00F000
01F000
01F800
017800
027800
027C00
043C00
043E00
081E00
0FFF00
100F00
100780
200780
6003C0
F80FE0
ENDCHAR
STARTCHAR amacron
ENCODING 257
SWIDTH 556 0
DWIDTH 13 0
BBX 13 16 0 0
BITMAP
1FC0
1FC0
0000
3F80
71C0
61E0
01E0
01E0
3FE0
79E0
F1E0
F1E0
F1E0
F9E0
7FE0
3C78
ENDCHAR
STARTCHAR Abreve
ENCODING 258
SWIDTH 795 0
DWIDTH 19 0
BBX 19 22 0 0
BITMAP
020400
03FC00
01F800
00F000
000000
006000
00E000
00F000
01F000
01F800
017800
027800
027C00
043C00
043E00
081E00
0FFF00
100F00
100780
200780
6003C0
F80FE0
ENDCHAR
STARTCHAR abreve
ENCODING 259
SWIDTH 556 0
DWIDTH 13 0
BBX 13 18 0 0
BITMAP
2040
3FC0
1F80
0F00
0000
3F80
71C0
61E0
01E0
01E0
3FE0
79E0
F1E0
F1E0
F1E0
F9E0
7FE0
3C78
ENDCHAR
STARTCHAR Aogonek
ENCODING 260
SWIDTH 795 0
DWIDTH 19 0
BBX 19 21 0 -4
BITMAP
006000
00E000
00F000
01F000
01F800
017800
027800
027C00
043C00
043E00
081E00
0FFF00
100F00
100780
200780
6003C0
F80FE0
003000
006000
006800
003800
ENDCHAR
STARTCHAR aogonek
ENCODING 261
SWIDTH 556 0
DWIDTH 13 0
BBX 13 17 0 -4
BITMAP
3F80
71C0
61E0
01E0
01E0
3FE0
79E0
F1E0
F1E0
F1E0
F9E0
7FE0
3C78
0300
0600
0680
0380
ENDCHAR
STARTCHAR Cacute
ENCODING 262
SWIDTH 711 0
DWIDTH 17 0
BBX 15 22 1 0
BITMAP
00F0
00C0
0180
0300
0000
03FC
1E0E
3C06
7806
7800
F000
F000
F000
F000
F000
F000
F800
7800
7C00
3E06
1FFE
03F8
ENDCHAR
STARTCHAR cacute
ENCODING 263
SWIDTH 541 0
DWIDTH 13 0
BBX 11 18 1 0
BITMAP
03C0
0300
0600
0C00
0000
0FE0
38E0
7060
7060
F000
F000
F000
F000
F000
7800
7C20
3FE0
0FC0
ENDCHAR
STARTCHAR Ccircumflex
ENCODING 264
SWIDTH 711 0
DWIDTH 17 0
BBX 15 22 1 0
BITMAP
03C0
03C0
0660
0C30
0000
03FC
1E0E
3C06
7806
7800
F000
F000
F000
F000
F000
F000
F800
7800
7C00
3E06
1FFE
03F8
ENDCHAR
STARTCHAR ccircumflex
ENCODING 265
SWIDTH 541 0
DWIDTH 13 0
BBX 11 18 1 0
BITMAP
0F00
0F00
1980
30C0
0000
0FE0
38E0
7060
7060
F000
F000
F000
F000
F000
7800
7C20
3FE0
0FC0
ENDCHAR
STARTCHAR Cdotaccent
ENCODING 266
SWIDTH 711 0
DWIDTH 17 0
BBX 15 22 1 0
BITMAP
0380
0380
0380
0380
0000
03FC
1E0E
3C06
7806
7800
F000
F000
F000
F000
F000
F000
F800
7800
7C00
3E06
1FFE
03F8
ENDCHAR
STARTCHAR cdotaccent
ENCODING 267
SWIDTH 541 0
DWIDTH 13 0
BBX 11 18 1 0
BITMAP
0700
0700
0700
0700
0000
0FE0
38E0
7060
7060
F000
F000
F000
F000
F000
7800
7C20
3FE0
0FC0
ENDCHAR
STARTCHAR Ccaron
ENCODING 268
SWIDTH 711 0
DWIDTH 17 0
BBX 15 22 1 0
BITMAP
0C30
0660
03C0
03C0
0000
03FC
1E0E
3C06
7806
7800
F000
F000
F000
F000
F000
F000
F800
7800
7C00
3E06
1FFE
03F8
ENDCHAR
STARTCHAR ccaron
ENCODING 269
SWIDTH 541 0
DWIDTH 13 0
BBX 11 18 1 0
BITMAP
30C0
1980
0F00
0F00
0000
0FE0
38E0
7060
7060
F000
F000
F000
F000
F000
7800
7C20
3FE0
0FC0
ENDCHAR
STARTCHAR Dcaron
ENCODING 270
SWIDTH 794 0
DWIDTH 19 0
BBX 18 22 0 0
BITMAP
061800
033000
01E000
01E000
000000
FFF800
3C1E00
3C0F00
3C0780
3C0380
3C03C0
3C03C0
3C03C0
3C03C0
3C03C0
3C03C0
3C0380
3C0780
3C0780
3C0F00
3C1E00
FFF800
ENDCHAR
STARTCHAR dcaron
ENCODING 271
SWIDTH 884 0
DWIDTH 21 0
BBX 19 18 1 0
BITMAP
01F9E0
0079E0
0079E0
0079E0
0078E0
1E78E0
3FF9C0
78F800
707800
F07800
F07800
F07800
F07800
F07800
F8F800
7FF800
7F7C00
1E7E00
ENDCHAR
STARTCHAR Dcroat
ENCODING 272
SWIDTH 794 0
DWIDTH 19 0
BBX 18 17 0 0
BITMAP
7FF800
3C1E00
3C0F00
3C0780
3C0380
3C03C0
3C03C0
3C03C0
FFC3C0
3C03C0
3C03C0
3C03C0
3C0780
3C0780
3C0F00
3C1E00
7FF800
ENDCHAR
STARTCHAR dcroat
ENCODING 273
SWIDTH 652 0
DWIDTH 16 0
BBX 15 18 1 0
BITMAP
01F8
0078
0078
01FE
01FE
1E78
3FF8
78F8
7078
F078
F078
F078
F078
F078
F8F8
7FF8
7F7C
1E7E
ENDCHAR
STARTCHAR Emacron
ENCODING 274
SWIDTH 601 0
DWIDTH 14 0
BBX 13 20 1 0
BITMAP
1FC0
1FC0
0000
FFF8
3C18
3C18
3C00
3C00
3C00
3C00
3C20
3FE0
3C20
3C00
3C00
3C00
3C00
3C18
3C18
FFF8
ENDCHAR
STARTCHAR emacron
ENCODING 275
SWIDTH 568 0
DWIDTH 14 0
BBX 12 16 1 0
BITMAP
1FC0
1FC0
0000
0F80
39C0
70E0
70F0
F0F0
FFF0
F000
F000
F000
7800
7C10
3FF0
0FE0
ENDCHAR
STARTCHAR Ebreve
ENCODING 276
SWIDTH 601 0
DWIDTH 14 0
BBX 13 22 1 0
BITMAP
2040
3FC0
1F80
0F00
0000
FFF8
3C18
3C18
3C00
3C00
3C00
3C00
3C20
3FE0
3C20
3C00
3C00
3C00
3C00
3C18
3C18
FFF8
ENDCHAR
STARTCHAR ebreve
ENCODING 277
SWIDTH 568 0
DWIDTH 14 0
BBX 12 18 1 0
BITMAP
2040
3FC0
1F80
0F00
0000
0F80
39C0
70E0
70F0
F0F0
FFF0
F000
F000
F000
7800
7C10
3FF0
0FE0
ENDCHAR
STARTCHAR Edotaccent
ENCODING 278
SWIDTH 601 0
DWIDTH 14 0
BBX 13 22 1 0
BITMAP
0700
0700
0700
0700
0000
FFF8
3C18
3C18
3C00
3C00
3C00
3C00
3C20
3FE0
3C20
3C00
3C00
3C00
3C00
3C18
3C18
FFF8
ENDCHAR
STARTCHAR edotaccent
ENCODING 279
SWIDTH 568 0
DWIDTH 14 0
BBX 12 18 1 0
BITMAP
0700
0700
0700
0700
0000
0F80
39C0
70E0
70F0
F0F0
FFF0
F000
F000
F000
7800
7C10
3FF0
0FE0
ENDCHAR
STARTCHAR Eogonek
ENCODING 280
SWIDTH 601 0
DWIDTH 14 0
BBX 13 21 1 -4
BITMAP
FFF8
3C18
3C18
3C00
3C00
3C00
3C00
3C20
3FE0
3C20
3C00
3C00
3C00
3C00
3C18
3C18
FFF8
0600
0C00
0D00
0700
ENDCHAR
STARTCHAR eogonek
ENCODING 281
SWIDTH 568 0
DWIDTH 14 0
BBX 12 17 1 -4
BITMAP
0F80
39C0
70E0
70F0
F0F0
FFF0
F000
F000
F000
7800
7C10
3FF0
0FE0
0600
0C00
0D00
0700
ENDCHAR
STARTCHAR Ecaron
ENCODING 282
SWIDTH 601 0
DWIDTH 14 0
BBX 13 22 1 0
BITMAP
30C0
1980
0F00
0F00
0000
FFF8
3C18
3C18
3C00
3C00
3C00
3C00
3C20
3FE0
3C20
3C00
3C00
3C00
3C00
3C18
3C18
FFF8
ENDCHAR
STARTCHAR ecaron
ENCODING 283
SWIDTH 568 0
DWIDTH 14 0
BBX 12 18 1 0
BITMAP
30C0
1980
0F00
0F00
0000
0F80
39C0
70E0
70F0
F0F0
FFF0
F000
F000
F000
7800
7C10
3FF0
0FE0
ENDCHAR
STARTCHAR Gcircumflex
ENCODING 284
SWIDTH 753 0
DWIDTH 18 0
BBX 17 22 1 0
BITMAP
03C000
03C000
066000
0C3000
000000
03FC00
1E0E00
3C0600
780600
780000
F00000
F00000
F00000
F00000
F07F80
F01E00
F01E00
781E00
781E00
3C1E00
1E1E00
03FC00
ENDCHAR
STARTCHAR gcircumflex
ENCODING 285
SWIDTH 599 0
DWIDTH 14 0
BBX 14 23 0 -5
BITMAP
0780
0780
0CC0
1860
0000
0FFC
38E8
78F0
78F0
78F0
78F0
38E0
18E0
07C0
3800
7FF0
3FF8
1FF8
7078
F078
F070
78E0
3FC0
ENDCHAR
STARTCHAR Gbreve
ENCODING 286
SWIDTH 753 0
DWIDTH 18 0
BBX 17 22 1 0
BITMAP
081000
0FF000
07E000
03C000
000000
03FC00
1E0E00
3C0600
780600
780000
F00000
F00000
F00000
F00000
F07F80
F01E00
F01E00
781E00
781E00
3C1E00
1E1E00
03FC00
ENDCHAR
STARTCHAR gbreve
ENCODING 287
SWIDTH 599 0
DWIDTH 14 0
BBX 14 23 0 -5
BITMAP
1020
1FE0
0FC0
0780
0000
0FFC
38E8
78F0
78F0
78F0
78F0
38E0
18E0
07C0
3800
7FF0
3FF8
1FF8
7078
F078
F070
78E0
3FC0
ENDCHAR
STARTCHAR Gdotaccent
ENCODING 288
SWIDTH 753 0
DWIDTH 18 0
BBX 17 22 1 0
BITMAP
038000
038000
038000
038000
000000
03FC00
1E0E00
3C0600
780600
780000
F00000
F00000
F00000
F00000
F07F80
F01E00
F01E00
781E00
781E00
3C1E00
1E1E00
03FC00
ENDCHAR
STARTCHAR gdotaccent
ENCODING 289
SWIDTH 599 0
DWIDTH 14 0
BBX 14 23 0 -5
BITMAP
0380
0380
0380
0380
0000
0FFC
38E8
78F0
78F0
78F0
78F0
38E0
18E0
07C0
3800
7FF0
3FF8
1FF8
7078
F078
F070
78E0
3FC0
ENDCHAR
STARTCHAR Gcommaaccent
ENCODING 290
SWIDTH 753 0
DWIDTH 18 0
BBX 17 26 1 -9
BITMAP
03FC00
1E0E00
3C0600
780600
780000
F00000
F00000
F00000
F00000
F07F80
F01E00
F01E00
781E00
781E00
3C1E00
1E1E00
03FC00
000000
01E000
01E000
01E000
01E000
00E000
00E000
00C000
018000
ENDCHAR
STARTCHAR gcommaaccent
ENCODING 291
SWIDTH 599 0
DWIDTH 14 0
BBX 14 26 0 -5
BITMAP
0380
0700
0700
0780
0780
0780
0780
0000
0FFC
38E8
78F0
78F0
78F0
78F0
38E0
18E0
07C0
3800
7FF0
3FF8
1FF8
7078
F078
F070
78E0
3FC0
ENDCHAR
STARTCHAR Hcircumflex
ENCODING 292
SWIDTH 798 0
DWIDTH 19 0
BBX 18 22 1 0
BITMAP
01E000
01E000
033000
061800
000000
FF3FC0
3C0F00
3C0F00
3C0F00
3C0F00
3C0F00
3C0F00
3C0F00
3FFF00
3C0F00
3C0F00
3C0F00
3C0F00
3C0F00
3C0F00
3C0F00
FF3FC0
ENDCHAR
STARTCHAR hcircumflex
ENCODING 293
SWIDTH 654 0
DWIDTH 16 0
BBX 16 23 0 0
BITMAP
1E00
1E00
3300
6180
0000
FC00
3C00
3C00
3C00
3C00
3C70
3DF8
3DFC
3E3C
3C3C
3C3C
3C3C
3C3C
3C3C
3C3C
3C3C
3C3C
FFFF
ENDCHAR
STARTCHAR Hbar
ENCODING 294
SWIDTH 798 0
DWIDTH 19 0
BBX 18 17 1 0
BITMAP
FF3FC0
3C0F00
3C0F00
FFFFC0
FFFFC0
3C0F00
3C0F00
3C0F00
3FFF00
3C0F00
3C0F00
3C0F00
3C0F00
3C0F00
3C0F00
3C0F00
FF3FC0
ENDCHAR
STARTCHAR hbar
ENCODING 295
SWIDTH 654 0
DWIDTH 16 0
BBX 16 18 0 0
BITMAP
FC00
3C00
3C00
FF00
FF00
3C70
3DF8
3DFC
3E3C
3C3C
3C3C
3C3C
3C3C
3C3C
3C3C
3C3C
3C3C
FFFF
ENDCHAR
STARTCHAR Itilde
ENCODING 296
SWIDTH 349 0
DWIDTH 8 0
BBX 8 22 0 0
BITMAP
71
FF
FF
8E
00
FF
3C
3C
3C
3C
3C
3C
3C
3C
3C
3C
3C
3C
3C
3C
3C
FF
ENDCHAR
STARTCHAR itilde
ENCODING 297
SWIDTH 325 0
DWIDTH 8 0
BBX 8 18 0 0
BITMAP
71
FF
FF
8E
00
FC
3C
3C
3C
3C
3C
3C
3C
3C
3C
3C
3C
FF
ENDCHAR
STARTCHAR Imacron
ENCODING 298
SWIDTH 349 0
DWIDTH 8 0
BBX 8 20 0 0
BITMAP
7F
7F
00
FF
3C
3C
3C
3C
3C
3C
3C
3C
3C
3C
3C
3C
3C
3C
3C
FF
ENDCHAR
STARTCHAR imacron
ENCODING 299
SWIDTH 325 0
DWIDTH 8 0
BBX 8 16 0 0
BITMAP
FE
FE
00
FC
3C
3C
3C
3C
3C
3C
3C
3C
3C
3C
3C
FF
ENDCHAR
STARTCHAR Ibreve
ENCODING 300
SWIDTH 349 0
DWIDTH 8 0
BBX 8 22 0 0
BITMAP
81
FF
7E
3C
00
FF
3C
3C
3C
3C
3C
3C
3C
3C
3C
3C
3C
3C
3C
3C
3C
FF
ENDCHAR
STARTCHAR ibreve
ENCODING 301
SWIDTH 325 0
DWIDTH 8 0
BBX 8 18 0 0
BITMAP
81
FF
7E
3C
00
FC
3C
3C
3C
3C
3C
3C
3C
3C
3C
3C
3C
FF
ENDCHAR
STARTCHAR Iogonek
ENCODING 302
SWIDTH 349 0
DWIDTH 8 0
BBX 8 21 0 -4
BITMAP
FF
3C
3C
3C
3C
3C
3C
3C
3C
3C
3C
3C
3C
3C
3C
3C
FF
18
30
34
1C
ENDCHAR
STARTCHAR iogonek
ENCODING 303
SWIDTH 325 0
DWIDTH 8 0
BBX 8 22 0 -4
BITMAP
3C
3C
3C
3C
00
FC
3C
3C
3C
3C
3C
3C
3C
3C
3C
3C
3C
FF
18
30
34
1C
ENDCHAR
STARTCHAR Idotaccent
ENCODING 304
SWIDTH 349 0
DWIDTH 8 0
BBX 8 22 0 0
BITMAP
1C
1C
1C
1C
00
FF
3C
3C
3C
3C
3C
3C
3C
3C
3C
3C
3C
3C
3C
3C
3C
FF
ENDCHAR
STARTCHAR dotlessi
ENCODING 305
SWIDTH 325 0
DWIDTH 8 0
BBX 8 13 0 0
BITMAP
FC
3C
3C
3C
3C
3C
3C
3C
3C
3C
3C
3C
FF
ENDCHAR
STARTCHAR IJ
ENCODING 306
SWIDTH 784 0
DWIDTH 19 0
BBX 19 21 0 -4
BITMAP
FF1FE0
3C0780
3C0780
3C0780
3C0780
3C0780
3C0780
3C0780
3C0780
3C0780
3C0780
3C0780
3C0780
3C0780
3C0780
3C0780
FF0780
000780
00C700
00CF00
00FC00
ENDCHAR
STARTCHAR ij
ENCODING 307
SWIDTH 664 0
DWIDTH 17 0
BBX 16 23 0 -5
BITMAP
3C0F
3C0F
3C0F
3C0F
0000
FC1F
3C0F
3C0F
3C0F
3C0F
3C0F
3C0F
3C0F
3C0F
3C0F
3C0F
3C0F
FF0F
000F
00CF
00CF
00CE
00FC
ENDCHAR
STARTCHAR Jcircumflex
ENCODING 308
SWIDTH 452 0
DWIDTH 11 0
BBX 11 26 0 -4
BITMAP
0780
0780
0CC0
1860
0000
1FE0
0780
0780
0780
0780
0780
0780
0780
0780
0780
0780
0780
0780
0780
0780
0780
0780
0780
C700
CF00
FC00
ENDCHAR
STARTCHAR jcircumflex
ENCODING 309
SWIDTH 355 0
DWIDTH 9 0
BBX 9 23 0 -5
BITMAP
1E00
1E00
3300
6180
0000
1F00
0F00
0F00
0F00
0F00
0F00
0F00
0F00
0F00
0F00
0F00
0F00
0F00
0F00
CF00
CF00
CE00
FC00
ENDCHAR
STARTCHAR Kcommaaccent
ENCODING 310
SWIDTH 747 0
DWIDTH 18 0
BBX 17 26 1 -9
BITMAP
FF1F00
3C0C00
3C1800
3C3000
3C6000
3C4000
3C8000
3DC000
3FC000
3FE000
3DF000
3CF800
3CF800
3C7C00
3C3E00
3C1F00
FF3F80
000000
03C000
03C000
03C000
03C000
01C000
01C000
018000
030000
ENDCHAR
STARTCHAR kcommaaccent
ENCODING 311
SWIDTH 654 0
DWIDTH 15 0
BBX 15 27 1 -9
BITMAP
FC00
3C00
3C00
3C00
3C00
3C3C
3C30
3C20
3C40
3C80
3DC0
3FC0
3FE0
3DF0
3CF0
3CF8
3C7C
FF3E
0000
0780
0780
0780
0780
0380
0380
0300
0600
ENDCHAR
STARTCHAR kgreenlandic
ENCODING 312
SWIDTH 654 0
DWIDTH 15 0
BBX 15 13 1 0
BITMAP
3C3C
3C30
3C20
3C40
3C80
3DC0
3FC0
3FE0
3DF0
3CF0
3CF8
3C7C
FF3E
ENDCHAR
STARTCHAR Lacute
ENCODING 313
SWIDTH 584 0
DWIDTH 14 0
BBX 14 22 0 0
BITMAP
0780
0600
0C00
1800
0000
FF00
3C00
3C00
3C00
3C00
3C00
3C00
3C00
3C00
3C00
3C00
3C00
3C00
3C0C
3C0C
3C0C
FFFC
ENDCHAR
STARTCHAR lacute
ENCODING 314
SWIDTH 325 0
DWIDTH 8 0
BBX 8 23 0 0
BITMAP
0F
0C
18
30
00
FC
3C
3C
3C
3C
3C
3C
3C
3C
3C
3C
3C
3C
3C
3C
3C
3C
FF
ENDCHAR
STARTCHAR Lcommaaccent
ENCODING 315
SWIDTH 584 0
DWIDTH 14 0
BBX 14 26 0 -9
BITMAP
FF00
3C00
3C00
3C00
3C00
3C00
3C00
3C00
3C00
3C00
3C00
3C00
3C00
3C0C
3C0C
3C0C
FFFC
0000
0780
0780
0780
0780
0380
0380
0300
0600
ENDCHAR
STARTCHAR lcommaaccent
ENCODING 316
SWIDTH 325 0
DWIDTH 8 0
BBX 8 27 0 -9
BITMAP
FC
3C
3C
3C
3C
3C
3C
3C
3C
3C
3C
3C
3C
3C
3C
3C
3C
FF
00
3C
3C
3C
3C
1C
1C
18
30
ENDCHAR
STARTCHAR Lcaron
ENCODING 317
SWIDTH 820 0
DWIDTH 19 0
BBX 18 18 0 0
BITMAP
0003C0
FF03C0
3C03C0
3C03C0
3C01C0
3C01C0
3C0380
3C0000
3C0000
3C0000
3C0000
3C0000
3C0000
3C0000
3C0C00
3C0C00
3C0C00
FFFC00
ENDCHAR
STARTCHAR lcaron
ENCODING 318
SWIDTH 574 0
DWIDTH 14 0
BBX 13 18 0 0
BITMAP
FC78
3C78
3C78
3C78
3C38
3C38
3C70
3C00
3C00
3C00
3C00
3C00
3C00
3C00
3C00
3C00
3C00
FF00
ENDCHAR
STARTCHAR Ldot
ENCODING 319
SWIDTH 1178 0
DWIDTH 28 0
BBX 22 17 0 0
BITMAP
FF0000
3C0000
3C0000
3C0000
3C0000
3C0000
3C0000
3C0000
3C001C
3C001C
3C001C
3C001C
3C0000
3C0C00
3C0C00
3C0C00
FFFC00
ENDCHAR
STARTCHAR ldot
ENCODING 320
SWIDTH 932 0
DWIDTH 23 0
BBX 17 18 0 0
BITMAP
FC0000
3C0000
3C0000
3C0000
3C0000
3C0000
3C0000
3C0000
3C0000
3C0380
3C0380
3C0380
3C0380
3C0000
3C0000
3C0000
3C0000
FF0000
ENDCHAR
STARTCHAR Lslash
ENCODING 321
SWIDTH 584 0
DWIDTH 14 0
BBX 14 17 0 0
BITMAP
FF00
3C00
3C00
3C00
3C00
3D00
3F00
3C00
7C00
FC00
BC00
3C00
3C00
3C0C
3C0C
3C0C
FFFC
ENDCHAR
STARTCHAR lslash
ENCODING 322
SWIDTH 325 0
DWIDTH 8 0
BBX 8 18 0 0
BITMAP
FC
3C
3C
3C
3C
3C
3D
3F
3C
7C
FC
BC
3C
3C
3C
3C
3C
FF
ENDCHAR
STARTCHAR Nacute
ENCODING 323
SWIDTH 788 0
DWIDTH 19 0
BBX 18 22 0 0
BITMAP
00F000
00C000
018000
030000
000000
F80FC0
3C0300
3E0300
3F0300
3F0300
3F8300
37C300
33E300
33E300
31F300
30FB00
307F00
307F00
303F00
301F00
300F00
FC0F00
ENDCHAR
STARTCHAR nacute
ENCODING 324
SWIDTH 654 0
DWIDTH 16 0
BBX 16 18 0 0
BITMAP
01E0
0180
0300
0600
0000
FC70
7DF8
3DFC
3E3C
3C3C
3C3C
3C3C
3C3C
3C3C
3C3C
3C3C
3C3C
FFFF
ENDCHAR
STARTCHAR Ncommaaccent
ENCODING 325
SWIDTH 788 0
DWIDTH 19 0
BBX 18 26 0 -9
BITMAP
F80FC0
3C0300
3E0300
3F0300
3F0300
3F8300
37C300
33E300
33E300
31F300
30FB00
307F00
307F00
303F00
301F00
300F00
FC0F00
000000
01E000
01E000
01E000
01E000
00E000
00E000
00C000
018000
ENDCHAR
STARTCHAR ncommaaccent
ENCODING 326
SWIDTH 654 0
DWIDTH 16 0
BBX 16 22 0 -9
BITMAP
FC70
7DF8
3DFC
3E3C
3C3C
3C3C
3C3C
3C3C
3C3C
3C3C
3C3C
3C3C
FFFF
0000
03C0
03C0
03C0
03C0
01C0
01C0
0180
0300
ENDCHAR
STARTCHAR Ncaron
ENCODING 327
SWIDTH 788 0
DWIDTH 19 0
BBX 18 22 0 0
BITMAP
0C3000
066000
03C000
03C000
000000
F80FC0
3C0300
3E0300
3F0300
3F0300
3F8300
37C300
33E300
33E300
31F300
30FB00
307F00
307F00
303F00
301F00
300F00
FC0F00
ENDCHAR
STARTCHAR ncaron
ENCODING 328
SWIDTH 654 0
DWIDTH 16 0
BBX 16 18 0 0
BITMAP
1860
0CC0
0780
0780
0000
FC70
7DF8
3DFC
3E3C
3C3C
3C3C
3C3C
3C3C
3C3C
3C3C
3C3C
3C3C
FFFF
ENDCHAR
STARTCHAR napostrophe
ENCODING 329
SWIDTH 906 0
DWIDTH 22 0
BBX 21 18 1 0
BITMAP
F00000
F00000
F00000
F00000
700000
77E380
E3EFC0
01EFE0
01F1E0
01E1E0
01E1E0
01E1E0
01E1E0
01E1E0
01E1E0
01E1E0
01E1E0
07FFF8
ENDCHAR
STARTCHAR Eng
ENCODING 330
SWIDTH 788 0
DWIDTH 19 0
BBX 18 22 0 -5
BITMAP
F80FC0
3C0300
3E0300
3F0300
3F0300
3F8300
37C300
33E300
33E300
31F300
30FB00
307F00
307F00
303F00
301F00
300F00
FC0F00
000F00
00CF00
00CF00
00CE00
00FC00
ENDCHAR
STARTCHAR eng
ENCODING 331
SWIDTH 654 0
DWIDTH 16 0
BBX 14 18 0 -5
BITMAP
FC70
7DF8
3DFC
3E3C
3C3C
3C3C
3C3C
3C3C
3C3C
3C3C
3C3C
3C3C
FF3C
003C
033C
033C
0338
03F0
ENDCHAR
STARTCHAR Omacron
ENCODING 332
SWIDTH 810 0
DWIDTH 19 0
BBX 18 20 1 0
BITMAP
03F800
03F800
000000
07F800
1E1E00
3C0F00
780780
780780
F003C0
F003C0
F003C0
F003C0
F003C0
F003C0
F003C0
780780
780780
3C0F00
1E1E00
03F000
ENDCHAR
STARTCHAR omacron
ENCODING 333
SWIDTH 617 0
DWIDTH 15 0
BBX 13 16 1 0
BITMAP
1FC0
1FC0
0000
0F80
38E0
78F0
7070
F078
F078
F078
F078
F078
7070
78F0
38E0
0F80
ENDCHAR
STARTCHAR Obreve
ENCODING 334
SWIDTH 810 0
DWIDTH 19 0
BBX 18 22 1 0
BITMAP
040800
07F800
03F000
01E000
000000
07F800
1E1E00
3C0F00
780780
780780
F003C0
F003C0
F003C0
F003C0
F003C0
F003C0
F003C0
780780
780780
3C0F00
1E1E00
03F000
ENDCHAR
STARTCHAR obreve
ENCODING 335
SWIDTH 617 0
DWIDTH 15 0
BBX 13 18 1 0
BITMAP
1020
1FE0
0FC0
0780
0000
0F80
38E0
78F0
7070
F078
F078
F078
F078
F078
7070
78F0
38E0
0F80
ENDCHAR
STARTCHAR Ohungarumlaut
ENCODING 336
SWIDTH 810 0
DWIDTH 19 0
BBX 18 22 1 0
BITMAP
00FC00
009800
013000
036000
000000
07F800
1E1E00
3C0F00
780780
780780
F003C0
F003C0
F003C0
F003C0
F003C0
F003C0
F003C0
780780
780780
3C0F00
1E1E00
03F000
ENDCHAR
STARTCHAR ohungarumlaut
ENCODING 337
SWIDTH 617 0
DWIDTH 15 0
BBX 13 18 1 0
BITMAP
07E0
04C0
0980
1B00
0000
0F80
38E0
78F0
7070
F078
F078
F078
F078
F078
7070
78F0
38E0
0F80
ENDCHAR
STARTCHAR OE
ENCODING 338
SWIDTH 1044 0
DWIDTH 25 0
BBX 23 17 1 0
BITMAP
07DFFE
1C3E06
381E06
781E00
701E00
F01E00
F01E00
F01E18
F01FF8
F01E18
F01E00
F01E00
701E00
781E00
381E06
1C3E06
07DFFE
ENDCHAR
STARTCHAR oe
ENCODING 339
SWIDTH 943 0
DWIDTH 23 0
BBX 21 13 1 0
BITMAP
0FC7C0
3C6CE0
787C70
703C78
F03C78
F03FF8
F03C00
F03C00
F03C00
703E00
783F08
3C4FF8
0F87F0
ENDCHAR
STARTCHAR Racute
ENCODING 340
SWIDTH 720 0
DWIDTH 17 0
BBX 17 22 0 0
BITMAP
00F000
00C000
018000
030000
000000
FFE000
3C7800
3C3C00
3C3C00
3C3C00
3C3C00
3C7C00
3CF800
3FF000
3DE000
3CF000
3CF800
3C7C00
3C7C00
3C3E00
3C1F00
FF1F80
ENDCHAR
STARTCHAR racute
ENCODING 341
SWIDTH 462 0
DWIDTH 11 0
BBX 11 18 0 0
BITMAP
03C0
0300
0600
0C00
0000
FCE0
3DE0
3FE0
3E60
3C00
3C00
3C00
3C00
3C00
3C00
3C00
3C00
FF00
ENDCHAR
STARTCHAR Rcommaaccent
ENCODING 342
SWIDTH 720 0
DWIDTH 17 0
BBX 17 26 0 -9
BITMAP
FFE000
3C7800
3C3C00
3C3C00
3C3C00
3C3C00
3C7C00
3CF800
3FF000
3DE000
3CF000
3CF800
3C7C00
3C7C00
3C3E00
3C1F00
FF1F80
000000
01E000
01E000
01E000
01E000
00E000
00E000
00C000
018000
ENDCHAR
STARTCHAR rcommaaccent
ENCODING 343
SWIDTH 462 0
DWIDTH 11 0
BBX 11 22 0 -9
BITMAP
FCE0
3DE0
3FE0
3E60
3C00
3C00
3C00
3C00
3C00
3C00
3C00
3C00
FF00
0000
1E00
1E00
1E00
1E00
0E00
0E00
0C00
1800
ENDCHAR
STARTCHAR Rcaron
ENCODING 344
SWIDTH 720 0
DWIDTH 17 0
BBX 17 22 0 0
BITMAP
0C3000
066000
03C000
03C000
000000
FFE000
3C7800
3C3C00
3C3C00
3C3C00
3C3C00
3C7C00
3CF800
3FF000
3DE000
3CF000
3CF800
3C7C00
3C7C00
3C3E00
3C1F00
FF1F80
ENDCHAR
STARTCHAR rcaron
ENCODING 345
SWIDTH 462 0
DWIDTH 11 0
BBX 11 18 0 0
BITMAP
30C0
1980
0F00
0F00
0000
FCE0
3DE0
3FE0
3E60
3C00
3C00
3C00
3C00
3C00
3C00
3C00
3C00
FF00
ENDCHAR
STARTCHAR Sacute
ENCODING 346
SWIDTH 556 0
DWIDTH 13 0
BBX 12 22 1 0
BITMAP
0780
0600
0C00
1800
0000
1FC0
78E0
7060
F060
F000
F800
FE00
7F80
3FC0
0FE0
03F0
01F0
00F0
C0F0
C0E0
E1C0
7F00
ENDCHAR
STARTCHAR sacute
ENCODING 347
SWIDTH 525 0
DWIDTH 13 0
BBX 10 18 1 0
BITMAP
0780
0600
0C00
1800
0000
3F00
7980
F180
F180
F800
FF00
7F80
3FC0
07C0
C3C0
C3C0
E780
7E00
ENDCHAR
STARTCHAR Scircumflex
ENCODING 348
SWIDTH 556 0
DWIDTH 13 0
BBX 12 22 1 0
BITMAP
1E00
1E00
3300
6180
0000
1FC0
78E0
7060
F060
F000
F800
FE00
7F80
3FC0
0FE0
03F0
01F0
00F0
C0F0
C0E0
E1C0
7F00
ENDCHAR
STARTCHAR scircumflex
ENCODING 349
SWIDTH 525 0
DWIDTH 13 0
BBX 10 18 1 0
BITMAP
1E00
1E00
3300
6180
0000
3F00
7980
F180
F180
F800
FF00
7F80
3FC0
07C0
C3C0
C3C0
E780
7E00
ENDCHAR
STARTCHAR Scedilla
ENCODING 350
SWIDTH 556 0
DWIDTH 13 0
BBX 12 22 1 -5
BITMAP
1FC0
78E0
7060
F060
F000
F800
FE00
7F80
3FC0
0FE0
03F0
01F0
00F0
C0F0
C0E0
E1C0
7F00
0400
0F00
0700
0700
0E00
ENDCHAR
STARTCHAR scedilla
ENCODING 351
SWIDTH 525 0
DWIDTH 13 0
BBX 10 18 1 -5
BITMAP
3F00
7980
F180
F180
F800
FF00
7F80
3FC0
07C0
C3C0
C3C0
E780
7E00
0800
1E00
0E00
0E00
1C00
ENDCHAR
STARTCHAR Scaron
ENCODING 352
SWIDTH 556 0
DWIDTH 13 0
BBX 12 22 1 0
BITMAP
30C0
1980
0F00
0F00
0000
1FC0
78E0
7060
F060
F000
F800
FE00
7F80
3FC0
0FE0
03F0
01F0
00F0
C0F0
C0E0
E1C0
7F00
ENDCHAR
STARTCHAR scaron
ENCODING 353
SWIDTH 525 0
DWIDTH 13 0
BBX 10 18 1 0
BITMAP
6180
3300
1E00
1E00
0000
3F00
7980
F180
F180
F800
FF00
7F80
3FC0
07C0
C3C0
C3C0
E780
7E00
ENDCHAR
STARTCHAR Tcommaaccent
ENCODING 354
SWIDTH 714 0
DWIDTH 17 0
BBX 16 22 1 -5
BITMAP
FFFF
C3C3
C3C3
C3C3
03C0
03C0
03C0
03C0
03C0
03C0
03C0
03C0
03C0
03C0
03C0
03C0
0FF0
0100
03C0
01C0
01C0
0380
ENDCHAR
STARTCHAR tcommaaccent
ENCODING 355
SWIDTH 389 0
DWIDTH 9 0
BBX 9 21 0 -5
BITMAP
1C00
3C00
3C00
FF80
3C00
3C00
3C00
3C00
3C00
3C00
3C00
3C00
3C00
3C00
1F80
0F80
0800
1E00
0E00
0E00
1C00
ENDCHAR
STARTCHAR Tcaron
ENCODING 356
SWIDTH 714 0
DWIDTH 17 0
BBX 16 22 1 0
BITMAP
0C30
0660
03C0
03C0
0000
FFFF
C3C3
C3C3
C3C3
03C0
03C0
03C0
03C0
03C0
03C0
03C0
03C0
03C0
03C0
03C0
03C0
0FF0
ENDCHAR
STARTCHAR tcaron
ENCODING 357
SWIDTH 635 0
DWIDTH 15 0
BBX 14 18 0 0
BITMAP
003C
003C
1C3C
3C3C
3C1C
FF9C
3C38
3C00
3C00
3C00
3C00
3C00
3C00
3C00
3C00
3C00
1F80
0F80
ENDCHAR
STARTCHAR Tbar
ENCODING 358
SWIDTH 714 0
DWIDTH 17 0
BBX 16 17 1 0
BITMAP
FFFF
C3C3
C3C3
C3C3
03C0
03C0
03C0
0FF0
0FF0
03C0
03C0
03C0
03C0
03C0
03C0
03C0
0FF0
ENDCHAR
STARTCHAR tbar
ENCODING 359
SWIDTH 389 0
DWIDTH 9 0
BBX 9 16 0 0
BITMAP
1C00
3C00
3C00
FF80
3C00
3C00
3C00
3C00
7F80
7F80
3C00
3C00
3C00
3C00
1F80
0F80
ENDCHAR
STARTCHAR Utilde
ENCODING 360
SWIDTH 747 0
DWIDTH 18 0
BBX 18 22 0 0
BITMAP
071000
0FF000
0FF000
08E000
000000
FF0FC0
3C0300
3C0300
3C0300
3C0300
3C0300
3C0300
3C0300
3C0300
3C0300
3C0300
3C0300
3C0300
3C0300
1E0600
0F0C00
03F800
ENDCHAR
STARTCHAR utilde
ENCODING 361
SWIDTH 654 0
DWIDTH 16 0
BBX 16 18 0 0
BITMAP
0710
0FF0
0FF0
08E0
0000
FCFC
3C3C
3C3C
3C3C
3C3C
3C3C
3C3C
3C3C
3C3C
3C7C
3FBC
1FBE
0E3F
ENDCHAR
STARTCHAR Umacron
ENCODING 362
SWIDTH 747 0
DWIDTH 18 0
BBX 18 20 0 0
BITMAP
07F000
07F000
000000
FF0FC0
3C0300
3C0300
3C0300
3C0300
3C0300
3C0300
3C0300
3C0300
3C0300
3C0300
3C0300
3C0300
3C0300
1E0600
0F0C00
03F800
ENDCHAR
STARTCHAR umacron
ENCODING 363
SWIDTH 654 0
DWIDTH 16 0
BBX 16 16 0 0
BITMAP
0FE0
0FE0
0000
FCFC
3C3C
3C3C
3C3C
3C3C
3C3C
3C3C
3C3C
3C3C
3C7C
3FBC
1FBE
0E3F
ENDCHAR
STARTCHAR Ubreve
ENCODING 364
SWIDTH 747 0
DWIDTH 18 0
BBX 18 22 0 0
BITMAP
081000
0FF000
07E000
03C000
000000
FF0FC0
3C0300
3C0300
3C0300
3C0300
3C0300
3C0300
3C0300
3C0300
3C0300
3C0300
3C0300
3C0300
3C0300
1E0600
0F0C00
03F800
ENDCHAR
STARTCHAR ubreve
ENCODING 365
SWIDTH 654 0
DWIDTH 16 0
BBX 16 18 0 0
BITMAP
0810
0FF0
07E0
03C0
0000
FCFC
3C3C
3C3C
3C3C
3C3C
3C3C
3C3C
3C3C
3C3C
3C7C
3FBC
1FBE
0E3F
ENDCHAR
STARTCHAR Uring
ENCODING 366
SWIDTH 747 0
DWIDTH 18 0
BBX 18 22 0 0
BITMAP
018000
024000
024000
018000
000000
FF0FC0
3C0300
3C0300
3C0300
3C0300
3C0300
3C0300
3C0300
3C0300
3C0300
3C0300
3C0300
3C0300
3C0300
1E0600
0F0C00
03F800
ENDCHAR
STARTCHAR uring
ENCODING 367
SWIDTH 654 0
DWIDTH 16 0
BBX 16 18 0 0
BITMAP
0180
0240
0240
0180
0000
FCFC
3C3C
3C3C
3C3C
3C3C
3C3C
3C3C
3C3C
3C3C
3C7C
3FBC
1FBE
0E3F
ENDCHAR
STARTCHAR Uhungarumlaut
ENCODING 368
SWIDTH 747 0
DWIDTH 18 0
BBX 18 22 0 0
BITMAP
01F800
013000
026000
06C000
000000
FF0FC0
3C0300
3C0300
3C0300
3C0300
3C0300
3C0300
3C0300
3C0300
3C0300
3C0300
3C0300
3C0300
3C0300
1E0600
0F0C00
03F800
ENDCHAR
STARTCHAR uhungarumlaut
ENCODING 369
SWIDTH 654 0
DWIDTH 16 0
BBX 16 18 0 0
BITMAP
03F0
0260
04C0
0D80
0000
FCFC
3C3C
3C3C
3C3C
3C3C
3C3C
3C3C
3C3C
3C3C
3C7C
3FBC
1FBE
0E3F
ENDCHAR
STARTCHAR Uogonek
ENCODING 370
SWIDTH 747 0
DWIDTH 18 0
BBX 18 21 0 -4
BITMAP
FF0FC0
3C0300
3C0300
3C0300
3C0300
3C0300
3C0300
3C0300
3C0300
3C0300
3C0300
3C0300
3C0300
3C0300
1E0600
0F0C00
03F800
00C000
018000
01A000
00E000
ENDCHAR
STARTCHAR uogonek
ENCODING 371
SWIDTH 654 0
DWIDTH 16 0
BBX 16 17 0 -4
BITMAP
FCFC
3C3C
3C3C
3C3C
3C3C
3C3C
3C3C
3C3C
3C3C
3C7C
3FBC
1FBE
0E3F
00C0
0180
01A0
00E0
ENDCHAR
STARTCHAR Wcircumflex
ENCODING 372
SWIDTH 955 0
DWIDTH 23 0
BBX 23 22 0 0
BITMAP
00F000
00F000
019800
030C00
000000
FE083E
781C08
7C1C08
3C1C10
3C3E10
3E3E10
1E3E10
1E5F20
1E4F20
0F4F20
0F8FC0
0F87C0
0F87C0
070380
070380
070380
020100
ENDCHAR
STARTCHAR wcircumflex
ENCODING 373
SWIDTH 880 0
DWIDTH 21 0
BBX 21 18 0 0
BITMAP
00F000
00F000
019800
030C00
000000
FE18F8
783820
7C3C20
3C7C60
3C7C40
1E7E40
1E9E80
1E9F80
0F0F80
0F0F00
0F0F00
060700
060600
ENDCHAR
STARTCHAR Ycircumflex
ENCODING 374
SWIDTH 717 0
DWIDTH 17 0
BBX 18 22 0 0
BITMAP
03C000
03C000
066000
0C3000
000000
FF07C0
7C0300
3E0200
1F0200
1F0400
0F8800
07C800
07D000
03E000
01E000
01E000
01E000
01E000
01E000
01E000
01E000
07F800
ENDCHAR
STARTCHAR ycircumflex
ENCODING 375
SWIDTH 654 0
DWIDTH 16 0
BBX 16 23 0 -5
BITMAP
0780
0780
0CC0
1860
0000
FE1F
7C04
3C0C
3E08
1E18
1F10
0F30
0FA0
07C0
07C0
0380
0380
0300
0100
0200
0600
0C00
3C00
ENDCHAR
STARTCHAR Ydieresis
ENCODING 376
SWIDTH 717 0
DWIDTH 17 0
BBX 18 21 0 0
BITMAP
063000
063000
063000
000000
FF07C0
7C0300
3E0200
1F0200
1F0400
0F8800
07C800
07D000
03E000
01E000
01E000
01E000
01E000
01E000
01E000
01E000
07F800
ENDCHAR
STARTCHAR Zacute
ENCODING 377
SWIDTH 639 0
DWIDTH 15 0
BBX 13 22 1 0
BITMAP
00F0
00C0
0180
0300
0000
7FF8
60F8
60F8
01F0
01E0
03E0
07C0
0780
0F80
0F00
1F00
3E00
3C00
7C00
7818
F818
FFF8
ENDCHAR
STARTCHAR zacute
ENCODING 378
SWIDTH 584 0
DWIDTH 14 0
BBX 12 18 1 0
BITMAP
03C0
0300
0600
0C00
0000
FFF0
C1F0
C3E0
03C0
07C0
0F80
1F00
1F00
3E00
7C00
7C30
F830
FFF0
ENDCHAR
STARTCHAR Zdotaccent
ENCODING 379
SWIDTH 639 0
DWIDTH 15 0
BBX 13 22 1 0
BITMAP
0380
0380
0380
0380
0000
7FF8
60F8
60F8
01F0
01E0
03E0
07C0
0780
0F80
0F00
1F00
3E00
3C00
7C00
7818
F818
FFF8
ENDCHAR
STARTCHAR zdotaccent
ENCODING 380
SWIDTH 584 0
DWIDTH 14 0
BBX 12 18 1 0
BITMAP
0700
0700
0700
0700
0000
FFF0
C1F0
C3E0
03C0
07C0
0F80
1F00
1F00
3E00
7C00
7C30
F830
FFF0
ENDCHAR
STARTCHAR Zcaron
ENCODING 381
SWIDTH 639 0
DWIDTH 15 0
BBX 13 22 1 0
BITMAP
1860
0CC0
0780
0780
0000
7FF8
60F8
60F8
01F0
01E0
03E0
07C0
0780
0F80
0F00
1F00
3E00
3C00
7C00
7818
F818
FFF8
ENDCHAR
STARTCHAR zcaron
ENCODING 382
SWIDTH 584 0
DWIDTH 14 0
BBX 12 18 1 0
BITMAP
30C0
1980
0F00
0F00
0000
FFF0
C1F0
C3E0
03C0
07C0
0F80
1F00
1F00
3E00
7C00
7C30
F830
FFF0
ENDCHAR
STARTCHAR uni0186
ENCODING 390
SWIDTH 711 0
DWIDTH 17 0
BBX 15 17 1 0
BITMAP
3F80
FFF0
C0F8
007C
003C
003E
001E
001E
001E
001E
001E
001E
003C
C03C
C078
E0F0
7F80
ENDCHAR
STARTCHAR uni0189
ENCODING 393
SWIDTH 794 0
DWIDTH 19 0
BBX 18 17 0 0
BITMAP
7FF800
3C1E00
3C0F00
3C0780
3C0380
3C03C0
3C03C0
3C03C0
FFC3C0
3C03C0
3C03C0
3C03C0
3C0780
3C0780
3C0F00
3C1E00
7FF800
ENDCHAR
STARTCHAR uni018E
ENCODING 398
SWIDTH 601 0
DWIDTH 14 0
BBX 13 17 1 0
BITMAP
FFF8
C1E0
C1E0
01E0
01E0
01E0
01E0
21E0
3FE0
21E0
01E0
01E0
01E0
01E0
C1E0
C1E0
FFF8
ENDCHAR
STARTCHAR florin
ENCODING 402
SWIDTH 623 0
DWIDTH 15 0
BBX 12 21 2 -4
BITMAP
01F0
0330
0630
0E00
1E00
1E00
1C00
1C00
7F80
3C00
3C00
3C00
7800
7800
7800
7800
7800
F000
F000
F000
F000
ENDCHAR
STARTCHAR uni0197
ENCODING 407
SWIDTH 349 0
DWIDTH 8 0
BBX 8 17 0 0
BITMAP
FF
3C
3C
3C
3C
3C
3C
FF
FF
3C
3C
3C
3C
3C
3C
3C
FF
ENDCHAR
STARTCHAR uni019A
ENCODING 410
SWIDTH 325 0
DWIDTH 8 0
BBX 8 18 0 0
BITMAP
FC
3C
3C
3C
3C
3C
3C
3C
FF
FF
3C
3C
3C
3C
3C
3C
3C
FF
ENDCHAR
STARTCHAR uni019D
ENCODING 413
SWIDTH 788 0
DWIDTH 19 0
BBX 20 22 -2 -5
BITMAP
3E03F0
0F00C0
0F80C0
0FC0C0
0FC0C0
0FE0C0
0DF0C0
0CF8C0
0CF8C0
0C7CC0
0C3EC0
0F1FC0
0F0FC0
0F0FC0
0F07C0
0F03C0
0F03C0
0F0000
CF0000
CF0000
CE0000
FC0000
ENDCHAR
STARTCHAR uni019F
ENCODING 415
SWIDTH 810 0
DWIDTH 19 0
BBX 18 17 1 0
BITMAP
07F800
1E1E00
3C0F00
780780
780780
F003C0
F003C0
FFFFC0
FFFFC0
F003C0
F003C0
F003C0
780780
780780
3C0F00
1E1E00
03F000
ENDCHAR
STARTCHAR Ohorn
ENCODING 416
SWIDTH 810 0
DWIDTH 19 0
BBX 20 17 1 0
BITMAP
07F8F0
1E1EF0
3C0FF0
7807F0
7807F0
F003F0
F003E0
F003C0
F003C0
F003C0
F003C0
F003C0
780780
780780
3C0F00
1E1E00
03F000
ENDCHAR
STARTCHAR ohorn
ENCODING 417
SWIDTH 617 0
DWIDTH 15 0
BBX 16 13 1 0
BITMAP
0F8F
38EF
78FF
707F
F07F
F07F
F07E
F078
F078
7070
78F0
38E0
0F80
ENDCHAR
STARTCHAR uni01A7
ENCODING 423
SWIDTH 556 0
DWIDTH 13 0
BBX 12 17 1 0
BITMAP
3F80
71E0
60E0
60F0
00F0
01F0
07F0
1FE0
3FC0
7F00
FC00
F800
F000
F030
7030
3870
0FE0
ENDCHAR
STARTCHAR uni01A8
ENCODING 424
SWIDTH 525 0
DWIDTH 13 0
BBX 10 13 1 0
BITMAP
3F00
6780
63C0
63C0
07C0
3FC0
7F80
FF00
F800
F0C0
F0C0
79C0
1F80
ENDCHAR
STARTCHAR uni01AE
ENCODING 430
SWIDTH 714 0
DWIDTH 17 0
BBX 16 22 1 -5
BITMAP
FFFF
C3C3
C3C3
C3C3
03C0
03C0
03C0
03C0
03C0
03C0
03C0
03C0
03C0
03C0
03C0
03C0
03C0
03C0
03CC
03CC
01CC
00FC
ENDCHAR
STARTCHAR Uhorn
ENCODING 431
SWIDTH 747 0
DWIDTH 18 0
BBX 20 17 0 0
BITMAP
FF0FF0
3C03F0
3C03F0
3C03F0
3C0370
3C0370
3C03E0
3C0300
3C0300
3C0300
3C0300
3C0300
3C0300
3C0300
1E0600
0F0C00
03F800
ENDCHAR
STARTCHAR uhorn
ENCODING 432
SWIDTH 654 0
DWIDTH 16 0
BBX 19 13 0 0
BITMAP
FCFDE0
3C3DE0
3C3DE0
3C3DE0
3C3CE0
3C3CE0
3C3DC0
3C3C00
3C3C00
3C7C00
3FBC00
1FBE00
0E3F00
ENDCHAR
STARTCHAR uni01B5
ENCODING 437
SWIDTH 639 0
DWIDTH 15 0
BBX 13 17 1 0
BITMAP
7FF8
60F8
60F8
01F0
01E0
03E0
07C0
1FE0
1FE0
0F00
1F00
3E00
3C00
7C00
7818
F818
FFF8
ENDCHAR
STARTCHAR uni01B6
ENCODING 438
SWIDTH 584 0
DWIDTH 14 0
BBX 12 13 1 0
BITMAP
FFF0
C1F0
C3E0
03C0
07C0
3FC0
3FC0
1F00
3E00
7C00
7C30
F830
FFF0
ENDCHAR
STARTCHAR uni01BB
ENCODING 443
SWIDTH 623 0
DWIDTH 15 0
BBX 12 17 1 0
BITMAP
7F80
E1E0
C0F0
C0F0
00F0
00F0
00E0
FFF0
FFF0
0600
0800
1000
3000
7FF0
7FF0
FFF0
FFF0
ENDCHAR
STARTCHAR uni01BC
ENCODING 444
SWIDTH 623 0
DWIDTH 15 0
BBX 10 17 3 0
BITMAP
FFC0
FFC0
FFC0
8000
8000
8000
8000
FC00
0F80
0780
03C0
03C0
03C0
C3C0
C380
C780
FE00
ENDCHAR
STARTCHAR uni01C0
ENCODING 448
SWIDTH 259 0
DWIDTH 6 0
BBX 2 22 2 -4
BITMAP
C0
C0
C0
C0
C0
C0
C0
C0
C0
C0
C0
C0
C0
C0
C0
C0
C0
C0
C0
C0
C0
C0
ENDCHAR
STARTCHAR uni01C2
ENCODING 450
SWIDTH 623 0
DWIDTH 15 0
BBX 14 22 1 -4
BITMAP
0300
0300
0300
0300
0300
0300
0300
0300
FFFC
FFFC
0300
0300
FFFC
FFFC
0300
0300
0300
0300
0300
0300
0300
0300
ENDCHAR
STARTCHAR uni01C3
ENCODING 451
SWIDTH 265 0
DWIDTH 6 0
BBX 4 17 1 0
BITMAP
F0
F0
F0
F0
F0
F0
E0
E0
60
60
40
40
00
F0
F0
F0
F0
ENDCHAR
STARTCHAR uni01CD
ENCODING 461
SWIDTH 795 0
DWIDTH 19 0
BBX 19 22 0 0
BITMAP
030C00
019800
00F000
00F000
000000
006000
00E000
00F000
01F000
01F800
017800
027800
027C00
043C00
043E00
081E00
0FFF00
100F00
100780
200780
6003C0
F80FE0
ENDCHAR
STARTCHAR uni01CE
ENCODING 462
SWIDTH 556 0
DWIDTH 13 0
BBX 13 18 0 0
BITMAP
30C0
1980
0F00
0F00
0000
3F80
71C0
61E0
01E0
01E0
3FE0
79E0
F1E0
F1E0
F1E0
F9E0
7FE0
3C78
ENDCHAR
STARTCHAR uni01CF
ENCODING 463
SWIDTH 349 0
DWIDTH 8 0
BBX 8 22 0 0
BITMAP
C3
66
3C
3C
00
FF
3C
3C
3C
3C
3C
3C
3C
3C
3C
3C
3C
3C
3C
3C
3C
FF
ENDCHAR
STARTCHAR uni01D0
ENCODING 464
SWIDTH 325 0
DWIDTH 8 0
BBX 8 18 0 0
BITMAP
C3
66
3C
3C
00
FC
3C
3C
3C
3C
3C
3C
3C
3C
3C
3C
3C
FF
ENDCHAR
STARTCHAR uni01D1
ENCODING 465
SWIDTH 810 0
DWIDTH 19 0
BBX 18 22 1 0
BITMAP
061800
033000
01E000
01E000
000000
07F800
1E1E00
3C0F00
780780
780780
F003C0
F003C0
F003C0
F003C0
F003C0
F003C0
F003C0
780780
780780
3C0F00
1E1E00
03F000
ENDCHAR
STARTCHAR uni01D2
ENCODING 466
SWIDTH 617 0
DWIDTH 15 0
BBX 13 18 1 0
BITMAP
1860
0CC0
0780
0780
0000
0F80
38E0
78F0
7070
F078
F078
F078
F078
F078
7070
78F0
38E0
0F80
ENDCHAR
STARTCHAR uni01D3
ENCODING 467
SWIDTH 747 0
DWIDTH 18 0
BBX 18 22 0 0
BITMAP
0C3000
066000
03C000
03C000
000000
FF0FC0
3C0300
3C0300
3C0300
3C0300
3C0300
3C0300
3C0300
3C0300
3C0300
3C0300
3C0300
3C0300
3C0300
1E0600
0F0C00
03F800
ENDCHAR
STARTCHAR uni01D4
ENCODING 468
SWIDTH 654 0
DWIDTH 16 0
BBX 16 18 0 0
BITMAP
0C30
0660
03C0
03C0
0000
FCFC
3C3C
3C3C
3C3C
3C3C
3C3C
3C3C
3C3C
3C3C
3C7C
3FBC
1FBE
0E3F
ENDCHAR
STARTCHAR uni01D5
ENCODING 469
SWIDTH 747 0
DWIDTH 18 0
BBX 18 24 0 0
BITMAP
07F000
07F000
000000
063000
063000
063000
000000
FF0FC0
3C0300
3C0300
3C0300
3C0300
3C0300
3C0300
3C0300
3C0300
3C0300
3C0300
3C0300
3C0300
3C0300
1E0600
0F0C00
03F800
ENDCHAR
STARTCHAR uni01D6
ENCODING 470
SWIDTH 654 0
DWIDTH 16 0
BBX 16 20 0 0
BITMAP
0FE0
0FE0
0000
0630
0630
0630
0000
FCFC
3C3C
3C3C
3C3C
3C3C
3C3C
3C3C
3C3C
3C3C
3C7C
3FBC
1FBE
0E3F
ENDCHAR
STARTCHAR uni01D7
ENCODING 471
SWIDTH 747 0
DWIDTH 18 0
BBX 18 26 0 0
BITMAP
007800
006000
00C000
018000
000000
063000
063000
063000
000000
FF0FC0
3C0300
3C0300
3C0300
3C0300
3C0300
3C0300
3C0300
3C0300
3C0300
3C0300
3C0300
3C0300
3C0300
1E0600
0F0C00
03F800
ENDCHAR
STARTCHAR uni01D8
ENCODING 472
SWIDTH 654 0
DWIDTH 16 0
BBX 16 22 0 0
BITMAP
00F0
00C0
0180
0300
0000
0630
0630
0630
0000
FCFC
3C3C
3C3C
3C3C
3C3C
3C3C
3C3C
3C3C
3C3C
3C7C
3FBC
1FBE
0E3F
ENDCHAR
STARTCHAR uni01D9
ENCODING 473
SWIDTH 747 0
DWIDTH 18 0
BBX 18 26 0 0
BITMAP
061800
033000
01E000
01E000
000000
063000
063000
063000
000000
FF0FC0
3C0300
3C0300
3C0300
3C0300
3C0300
3C0300
3C0300
3C0300
3C0300
3C0300
3C0300
3C0300
3C0300
1E0600
0F0C00
03F800
ENDCHAR
STARTCHAR uni01DA
ENCODING 474
SWIDTH 654 0
DWIDTH 16 0
BBX 16 22 0 0
BITMAP
0C30
0660
03C0
03C0
0000
0630
0630
0630
0000
FCFC
3C3C
3C3C
3C3C
3C3C
3C3C
3C3C
3C3C
3C3C
3C7C
3FBC
1FBE
0E3F
ENDCHAR
STARTCHAR uni01DB
ENCODING 475
SWIDTH 747 0
DWIDTH 18 0
BBX 18 26 0 0
BITMAP
078000
018000
00C000
006000
000000
063000
063000
063000
000000
FF0FC0
3C0300
3C0300
3C0300
3C0300
3C0300
3C0300
3C0300
3C0300
3C0300
3C0300
3C0300
3C0300
3C0300
1E0600
0F0C00
03F800
ENDCHAR
STARTCHAR uni01DC
ENCODING 476
SWIDTH 654 0
DWIDTH 16 0
BBX 16 22 0 0
BITMAP
0F00
0300
0180
00C0
0000
0630
0630
0630
0000
FCFC
3C3C
3C3C
3C3C
3C3C
3C3C
3C3C
3C3C
3C3C
3C7C
3FBC
1FBE
0E3F
ENDCHAR
STARTCHAR uni01DD
ENCODING 477
SWIDTH 568 0
DWIDTH 14 0
BBX 12 13 1 0
BITMAP
7F00
FFC0
83E0
01E0
00F0
00F0
00F0
FFF0
F0F0
F0E0
70E0
39C0
1F00
ENDCHAR
STARTCHAR uni01DE
ENCODING 478
SWIDTH 795 0
DWIDTH 19 0
BBX 19 24 0 0
BITMAP
03F800
03F800
000000
031800
031800
031800
000000
006000
00E000
00F000
01F000
01F800
017800
027800
027C00
043C00
043E00
081E00
0FFF00
100F00
100780
200780
6003C0
F80FE0
ENDCHAR
STARTCHAR uni01DF
ENCODING 479
SWIDTH 556 0
DWIDTH 13 0
BBX 13 20 0 0
BITMAP
1FC0
1FC0
0000
18C0
18C0
18C0
0000
3F80
71C0
61E0
01E0
01E0
3FE0
79E0
F1E0
F1E0
F1E0
F9E0
7FE0
3C78
ENDCHAR
STARTCHAR uni01E0
ENCODING 480
SWIDTH 795 0
DWIDTH 19 0
BBX 19 25 0 0
BITMAP
03F800
03F800
000000
00E000
00E000
00E000
00E000
000000
006000
00E000
00F000
01F000
01F800
017800
027800
027C00
043C00
043E00
081E00
0FFF00
100F00
100780
200780
6003C0
F80FE0
ENDCHAR
STARTCHAR uni01E1
ENCODING 481
SWIDTH 556 0
DWIDTH 13 0
BBX 13 21 0 0
BITMAP
1FC0
1FC0
0000
0700
0700
0700
0700
0000
3F80
71C0
61E0
01E0
01E0
3FE0
79E0
F1E0
F1E0
F1E0
F9E0
7FE0
3C78
ENDCHAR
STARTCHAR uni01E2
ENCODING 482
SWIDTH 959 0
DWIDTH 23 0
BBX 22 20 0 0
BITMAP
007F00
007F00
000000
003FF8
003C18
007C18
00FC00
00BC00
013C00
013C00
023C30
063FF0
043C30
083C00
0FFC00
103C00
303C00
203C0C
603C0C
F0FFFC
ENDCHAR
STARTCHAR uni01E3
ENCODING 483
SWIDTH 858 0
DWIDTH 21 0
BBX 19 16 0 0
BITMAP
01FC00
01FC00
000000
3F9F00
70F3C0
60F1C0
00F1E0
00F1E0
1FFFE0
78F000
F0F000
F0F000
F0F800
F8FC20
7F3FE0
3C1FC0
ENDCHAR
STARTCHAR uni01E4
ENCODING 484
SWIDTH 753 0
DWIDTH 18 0
BBX 18 17 1 0
BITMAP
03FC00
1E0E00
3C0600
780600
780000
F00000
F00000
F00000
F00000
F07F80
F01E00
F03FC0
783FC0
781E00
3C1E00
1E1E00
03FC00
ENDCHAR
STARTCHAR uni01E5
ENCODING 485
SWIDTH 599 0
DWIDTH 14 0
BBX 14 18 0 -5
BITMAP
0FFC
38E8
78F0
78F0
78F0
78F0
38E0
18E0
07C0
3800
7FF0
3FF8
FFFC
FFFC
F078
F070
78E0
3FC0
ENDCHAR
STARTCHAR Gcaron
ENCODING 486
SWIDTH 753 0
DWIDTH 18 0
BBX 17 22 1 0
BITMAP
0C3000
066000
03C000
03C000
000000
03FC00
1E0E00
3C0600
780600
780000
F00000
F00000
F00000
F00000
F07F80
F01E00
F01E00
781E00
781E00
3C1E00
1E1E00
03FC00
ENDCHAR
STARTCHAR gcaron
ENCODING 487
SWIDTH 599 0
DWIDTH 14 0
BBX 14 23 0 -5
BITMAP
1860
0CC0
0780
0780
0000
0FFC
38E8
78F0
78F0
78F0
78F0
38E0
18E0
07C0
3800
7FF0
3FF8
1FF8
7078
F078
F070
78E0
3FC0
ENDCHAR
STARTCHAR uni01E8
ENCODING 488
SWIDTH 747 0
DWIDTH 18 0
BBX 17 22 1 0
BITMAP
186000
0CC000
078000
078000
000000
FF1F00
3C0C00
3C1800
3C3000
3C6000
3C4000
3C8000
3DC000
3FC000
3FE000
3DF000
3CF800
3CF800
3C7C00
3C3E00
3C1F00
FF3F80
ENDCHAR
STARTCHAR uni01E9
ENCODING 489
SWIDTH 654 0
DWIDTH 15 0
BBX 15 23 1 0
BITMAP
6180
3300
1E00
1E00
0000
FC00
3C00
3C00
3C00
3C00
3C3C
3C30
3C20
3C40
3C80
3DC0
3FC0
3FE0
3DF0
3CF0
3CF8
3C7C
FF3E
ENDCHAR
STARTCHAR uni01EA
ENCODING 490
SWIDTH 810 0
DWIDTH 19 0
BBX 18 21 1 -4
BITMAP
07F800
1E1E00
3C0F00
780780
780780
F003C0
F003C0
F003C0
F003C0
F003C0
F003C0
F003C0
780780
780780
3C0F00
1E1E00
03F000
00C000
018000
01A000
00E000
ENDCHAR
STARTCHAR uni01EB
ENCODING 491
SWIDTH 617 0
DWIDTH 15 0
BBX 13 17 1 -4
BITMAP
0F80
38E0
78F0
7070
F078
F078
F078
F078
F078
7070
78F0
38E0
0F80
0300
0600
0680
0380
ENDCHAR
STARTCHAR uni01EC
ENCODING 492
SWIDTH 810 0
DWIDTH 19 0
BBX 18 24 1 -4
BITMAP
03F800
03F800
000000
07F800
1E1E00
3C0F00
780780
780780
F003C0
F003C0
F003C0
F003C0
F003C0
F003C0
F003C0
780780
780780
3C0F00
1E1E00
03F000
00C000
018000
01A000
00E000
ENDCHAR
STARTCHAR uni01ED
ENCODING 493
SWIDTH 617 0
DWIDTH 15 0
BBX 13 20 1 -4
BITMAP
1FC0
1FC0
0000
0F80
38E0
78F0
7070
F078
F078
F078
F078
F078
7070
78F0
38E0
0F80
0300
0600
0680
0380
ENDCHAR
STARTCHAR uni01F0
ENCODING 496
SWIDTH 355 0
DWIDTH 9 0
BBX 9 23 0 -5
BITMAP
6180
3300
1E00
1E00
0000
1F00
0F00
0F00
0F00
0F00
0F00
0F00
0F00
0F00
0F00
0F00
0F00
0F00
0F00
CF00
CF00
CE00
FC00
ENDCHAR
STARTCHAR uni01F4
ENCODING 500
SWIDTH 753 0
DWIDTH 18 0
BBX 17 22 1 0
BITMAP
00F000
00C000
018000
030000
000000
03FC00
1E0E00
3C0600
780600
780000
F00000
F00000
F00000
F00000
F07F80
F01E00
F01E00
781E00
781E00
3C1E00
1E1E00
03FC00
ENDCHAR
STARTCHAR uni01F5
ENCODING 501
SWIDTH 599 0
DWIDTH 14 0
BBX 14 23 0 -5
BITMAP
01E0
0180
0300
0600
0000
0FFC
38E8
78F0
78F0
78F0
78F0
38E0
18E0
07C0
3800
7FF0
3FF8
1FF8
7078
F078
F070
78E0
3FC0
ENDCHAR
STARTCHAR uni01F8
ENCODING 504
SWIDTH 788 0
DWIDTH 19 0
BBX 18 22 0 0
BITMAP
0F0000
030000
018000
00C000
000000
F80FC0
3C0300
3E0300
3F0300
3F0300
3F8300
37C300
33E300
33E300
31F300
30FB00
307F00
307F00
303F00
301F00
300F00
FC0F00
ENDCHAR
STARTCHAR uni01F9
ENCODING 505
SWIDTH 654 0
DWIDTH 16 0
BBX 16 18 0 0
BITMAP
1E00
0600
0300
0180
0000
FC70
7DF8
3DFC
3E3C
3C3C
3C3C
3C3C
3C3C
3C3C
3C3C
3C3C
3C3C
FFFF
ENDCHAR
STARTCHAR Aringacute
ENCODING 506
SWIDTH 795 0
DWIDTH 19 0
BBX 19 27 0 0
BITMAP
003C00
003000
006000
00C000
000000
006000
009000
009000
006000
000000
006000
00E000
00F000
01F000
01F800
017800
027800
027C00
043C00
043E00
081E00
0FFF00
100F00
100780
200780
6003C0
F80FE0
ENDCHAR
STARTCHAR aringacute
ENCODING 507
SWIDTH 556 0
DWIDTH 13 0
BBX 13 23 0 0
BITMAP
03C0
0300
0600
0C00
0000
0600
0900
0900
0600
0000
3F80
71C0
61E0
01E0
01E0
3FE0
79E0
F1E0
F1E0
F1E0
F9E0
7FE0
3C78
ENDCHAR
STARTCHAR AEacute
ENCODING 508
SWIDTH 959 0
DWIDTH 23 0
BBX 22 22 0 0
BITMAP
000780
000600
000C00
001800
000000
003FF8
003C18
007C18
00FC00
00BC00
013C00
013C00
023C30
063FF0
043C30
083C00
0FFC00
103C00
303C00
203C0C
603C0C
F0FFFC
ENDCHAR
STARTCHAR aeacute
ENCODING 509
SWIDTH 858 0
DWIDTH 21 0
BBX 19 18 0 0
BITMAP
003C00
003000
006000
00C000
000000
3F9F00
70F3C0
60F1C0
00F1E0
00F1E0
1FFFE0
78F000
F0F000
F0F000
F0F800
F8FC20
7F3FE0
3C1FC0
ENDCHAR
STARTCHAR Oslashacute
ENCODING 510
SWIDTH 810 0
DWIDTH 19 0
BBX 18 22 1 0
BITMAP
007800
006000
00C000
018000
000000
03F0C0
1E1F00
3C0F00
780780
780F80
F01BC0
F033C0
F063C0
F0C3C0
F183C0
F303C0
F603C0
7C0780
780780
3C0F00
3E1E00
C7F000
ENDCHAR
STARTCHAR oslashacute
ENCODING 511
SWIDTH 617 0
DWIDTH 15 0
BBX 16 18 0 0
BITMAP
00F0
00C0
0180
0300
0000
07E3
1E7C
3C3C
383C
787E
78DE
799E
7B1E
7E1E
3C1C
3C3C
3C78
C7E0
ENDCHAR
STARTCHAR uni0200
ENCODING 512
SWIDTH 795 0
DWIDTH 19 0
BBX 19 22 0 0
BITMAP
07E000
032000
019000
00D800
000000
006000
00E000
00F000
01F000
01F800
017800
027800
027C00
043C00
043E00
081E00
0FFF00
100F00
100780
200780
6003C0
F80FE0
ENDCHAR
STARTCHAR uni0201
ENCODING 513
SWIDTH 556 0
DWIDTH 13 0
BBX 13 18 0 0
BITMAP
3F00
1900
0C80
06C0
0000
3F80
71C0
61E0
01E0
01E0
3FE0
79E0
F1E0
F1E0
F1E0
F9E0
7FE0
3C78
ENDCHAR
STARTCHAR uni0202
ENCODING 514
SWIDTH 795 0
DWIDTH 19 0
BBX 19 22 0 0
BITMAP
00F000
01F800
03FC00
020400
000000
006000
00E000
00F000
01F000
01F800
017800
027800
027C00
043C00
043E00
081E00
0FFF00
100F00
100780
200780
6003C0
F80FE0
ENDCHAR
STARTCHAR uni0203
ENCODING 515
SWIDTH 556 0
DWIDTH 13 0
BBX 13 18 0 0
BITMAP
0F00
1F80
3FC0
2040
0000
3F80
71C0
61E0
01E0
01E0
3FE0
79E0
F1E0
F1E0
F1E0
F9E0
7FE0
3C78
ENDCHAR
STARTCHAR uni0204
ENCODING 516
SWIDTH 601 0
DWIDTH 14 0
BBX 13 22 1 0
BITMAP
3F00
1900
0C80
06C0
0000
FFF8
3C18
3C18
3C00
3C00
3C00
3C00
3C20
3FE0
3C20
3C00
3C00
3C00
3C00
3C18
3C18
FFF8
ENDCHAR
STARTCHAR uni0205
ENCODING 517
SWIDTH 568 0
DWIDTH 14 0
BBX 12 18 1 0
BITMAP
3F00
1900
0C80
06C0
0000
0F80
39C0
70E0
70F0
F0F0
FFF0
F000
F000
F000
7800
7C10
3FF0
0FE0
ENDCHAR
STARTCHAR uni0206
ENCODING 518
SWIDTH 601 0
DWIDTH 14 0
BBX 13 22 1 0
BITMAP
0F00
1F80
3FC0
2040
0000
FFF8
3C18
3C18
3C00
3C00
3C00
3C00
3C20
3FE0
3C20
3C00
3C00
3C00
3C00
3C18
3C18
FFF8
ENDCHAR
STARTCHAR uni0207
ENCODING 519
SWIDTH 568 0
DWIDTH 14 0
BBX 12 18 1 0
BITMAP
0F00
1F80
3FC0
2040
0000
0F80
39C0
70E0
70F0
F0F0
FFF0
F000
F000
F000
7800
7C10
3FF0
0FE0
ENDCHAR
STARTCHAR uni0208
ENCODING 520
SWIDTH 349 0
DWIDTH 8 0
BBX 9 22 -1 0
BITMAP
FC00
6400
3200
1B00
0000
7F80
1E00
1E00
1E00
1E00
1E00
1E00
1E00
1E00
1E00
1E00
1E00
1E00
1E00
1E00
1E00
7F80
ENDCHAR
STARTCHAR uni0209
ENCODING 521
SWIDTH 325 0
DWIDTH 8 0
BBX 9 18 -1 0
BITMAP
FC00
6400
3200
1B00
0000
7E00
1E00
1E00
1E00
1E00
1E00
1E00
1E00
1E00
1E00
1E00
1E00
7F80
ENDCHAR
STARTCHAR uni020A
ENCODING 522
SWIDTH 349 0
DWIDTH 8 0
BBX 8 22 0 0
BITMAP
3C
7E
FF
81
00
FF
3C
3C
3C
3C
3C
3C
3C
3C
3C
3C
3C
3C
3C
3C
3C
FF
ENDCHAR
STARTCHAR uni020B
ENCODING 523
SWIDTH 325 0
DWIDTH 8 0
BBX 8 18 0 0
BITMAP
3C
7E
FF
81
00
FC
3C
3C
3C
3C
3C
3C
3C
3C
3C
3C
3C
FF
ENDCHAR
STARTCHAR uni020C
ENCODING 524
SWIDTH 810 0
DWIDTH 19 0
BBX 18 22 1 0
BITMAP
0FC000
064000
032000
01B000
000000
07F800
1E1E00
3C0F00
780780
780780
F003C0
F003C0
F003C0
F003C0
F003C0
F003C0
F003C0
780780
780780
3C0F00
1E1E00
03F000
ENDCHAR
STARTCHAR uni020D
ENCODING 525
SWIDTH 617 0
DWIDTH 15 0
BBX 13 18 1 0
BITMAP
3F00
1900
0C80
06C0
0000
0F80
38E0
78F0
7070
F078
F078
F078
F078
F078
7070
78F0
38E0
0F80
ENDCHAR
STARTCHAR uni020E
ENCODING 526
SWIDTH 810 0
DWIDTH 19 0
BBX 18 22 1 0
BITMAP
01E000
03F000
07F800
040800
000000
07F800
1E1E00
3C0F00
780780
780780
F003C0
F003C0
F003C0
F003C0
F003C0
F003C0
F003C0
780780
780780
3C0F00
1E1E00
03F000
ENDCHAR
STARTCHAR uni020F
ENCODING 527
SWIDTH 617 0
DWIDTH 15 0
BBX 13 18 1 0
BITMAP
0780
0FC0
1FE0
1020
0000
0F80
38E0
78F0
7070
F078
F078
F078
F078
F078
7070
78F0
38E0
0F80
ENDCHAR
STARTCHAR uni0210
ENCODING 528
SWIDTH 720 0
DWIDTH 17 0
BBX 17 22 0 0
BITMAP
1F8000
0C8000
064000
036000
000000
FFE000
3C7800
3C3C00
3C3C00
3C3C00
3C3C00
3C7C00
3CF800
3FF000
3DE000
3CF000
3CF800
3C7C00
3C7C00
3C3E00
3C1F00
FF1F80
ENDCHAR
STARTCHAR uni0211
ENCODING 529
SWIDTH 462 0
DWIDTH 11 0
BBX 11 18 0 0
BITMAP
7E00
3200
1900
0D80
0000
FCE0
3DE0
3FE0
3E60
3C00
3C00
3C00
3C00
3C00
3C00
3C00
3C00
FF00
ENDCHAR
STARTCHAR uni0212
ENCODING 530
SWIDTH 720 0
DWIDTH 17 0
BBX 17 22 0 0
BITMAP
03C000
07E000
0FF000
081000
000000
FFE000
3C7800
3C3C00
3C3C00
3C3C00
3C3C00
3C7C00
3CF800
3FF000
3DE000
3CF000
3CF800
3C7C00
3C7C00
3C3E00
3C1F00
FF1F80
ENDCHAR
STARTCHAR uni0213
ENCODING 531
SWIDTH 462 0
DWIDTH 11 0
BBX 11 18 0 0
BITMAP
0F00
1F80
3FC0
2040
0000
FCE0
3DE0
3FE0
3E60
3C00
3C00
3C00
3C00
3C00
3C00
3C00
3C00
FF00
ENDCHAR
STARTCHAR uni0214
ENCODING 532
SWIDTH 747 0
DWIDTH 18 0
BBX 18 22 0 0
BITMAP
0FC000
064000
032000
01B000
000000
FF0FC0
3C0300
3C0300
3C0300
3C0300
3C0300
3C0300
3C0300
3C0300
3C0300
3C0300
3C0300
3C0300
3C0300
1E0600
0F0C00
03F800
ENDCHAR
STARTCHAR uni0215
ENCODING 533
SWIDTH 654 0
DWIDTH 16 0
BBX 16 18 0 0
BITMAP
1F80
0C80
0640
0360
0000
FCFC
3C3C
3C3C
3C3C
3C3C
3C3C
3C3C
3C3C
3C3C
3C7C
3FBC
1FBE
0E3F
ENDCHAR
STARTCHAR uni0216
ENCODING 534
SWIDTH 747 0
DWIDTH 18 0
BBX 18 22 0 0
BITMAP
03C000
07E000
0FF000
081000
000000
FF0FC0
3C0300
3C0300
3C0300
3C0300
3C0300
3C0300
3C0300
3C0300
3C0300
3C0300
3C0300
3C0300
3C0300
1E0600
0F0C00
03F800
ENDCHAR
STARTCHAR uni0217
ENCODING 535
SWIDTH 654 0
DWIDTH 16 0
BBX 16 18 0 0
BITMAP
03C0
07E0
0FF0
0810
0000
FCFC
3C3C
3C3C
3C3C
3C3C
3C3C
3C3C
3C3C
3C3C
3C7C
3FBC
1FBE
0E3F
ENDCHAR
STARTCHAR Scommaaccent
ENCODING 536
SWIDTH 556 0
DWIDTH 13 0
BBX 12 26 1 -9
BITMAP
1FC0
78E0
7060
F060
F000
F800
FE00
7F80
3FC0
0FE0
03F0
01F0
00F0
C0F0
C0E0
E1C0
7F00
0000
0F00
0F00
0F00
0F00
0700
0700
0600
0C00
ENDCHAR
STARTCHAR scommaaccent
ENCODING 537
SWIDTH 525 0
DWIDTH 13 0
BBX 10 22 1 -9
BITMAP
3F00
7980
F180
F180
F800
FF00
7F80
3FC0
07C0
C3C0
C3C0
E780
7E00
0000
1E00
1E00
1E00
1E00
0E00
0E00
0C00
1800
ENDCHAR
STARTCHAR Tcommaaccent
ENCODING 538
SWIDTH 714 0
DWIDTH 17 0
BBX 16 26 1 -9
BITMAP
FFFF
C3C3
C3C3
C3C3
03C0
03C0
03C0
03C0
03C0
03C0
03C0
03C0
03C0
03C0
03C0
03C0
0FF0
0000
03C0
03C0
03C0
03C0
01C0
01C0
0180
0300
ENDCHAR
STARTCHAR tcommaaccent
ENCODING 539
SWIDTH 389 0
DWIDTH 9 0
BBX 9 25 0 -9
BITMAP
1C00
3C00
3C00
FF80
3C00
3C00
3C00
3C00
3C00
3C00
3C00
3C00
3C00
3C00
1F80
0F80
0000
1E00
1E00
1E00
1E00
0E00
0E00
0C00
1800
ENDCHAR
STARTCHAR uni021E
ENCODING 542
SWIDTH 798 0
DWIDTH 19 0
BBX 18 22 1 0
BITMAP
061800
033000
01E000
01E000
000000
FF3FC0
3C0F00
3C0F00
3C0F00
3C0F00
3C0F00
3C0F00
3C0F00
3FFF00
3C0F00
3C0F00
3C0F00
3C0F00
3C0F00
3C0F00
3C0F00
FF3FC0
ENDCHAR
STARTCHAR uni021F
ENCODING 543
SWIDTH 654 0
DWIDTH 16 0
BBX 16 23 0 0
BITMAP
6180
3300
1E00
1E00
0000
FC00
3C00
3C00
3C00
3C00
3C70
3DF8
3DFC
3E3C
3C3C
3C3C
3C3C
3C3C
3C3C
3C3C
3C3C
3C3C
FFFF
ENDCHAR
STARTCHAR uni0226
ENCODING 550
SWIDTH 795 0
DWIDTH 19 0
BBX 19 22 0 0
BITMAP
00E000
00E000
00E000
00E000
000000
006000
00E000
00F000
01F000
01F800
017800
027800
027C00
043C00
043E00
081E00
0FFF00
100F00
100780
200780
6003C0
F80FE0
ENDCHAR
STARTCHAR uni0227
ENCODING 551
SWIDTH 556 0
DWIDTH 13 0
BBX 13 18 0 0
BITMAP
0700
0700
0700
0700
0000
3F80
71C0
61E0
01E0
01E0
3FE0
79E0
F1E0
F1E0
F1E0
F9E0
7FE0
3C78
ENDCHAR
STARTCHAR uni0228
ENCODING 552
SWIDTH 601 0
DWIDTH 14 0
BBX 13 22 1 -5
BITMAP
FFF8
3C18
3C18
3C00
3C00
3C00
3C00
3C20
3FE0
3C20
3C00
3C00
3C00
3C00
3C18
3C18
FFF8
0400
0F00
0700
0700
0E00
ENDCHAR
STARTCHAR uni0229
ENCODING 553
SWIDTH 568 0
DWIDTH 14 0
BBX 12 18 1 -5
BITMAP
0F80
39C0
70E0
70F0
F0F0
FFF0
F000
F000
F000
7800
7C10
3FF0
0FE0
0400
0F00
0700
0700
0E00
ENDCHAR
STARTCHAR uni022A
ENCODING 554
SWIDTH 810 0
DWIDTH 19 0
BBX 18 24 1 0
BITMAP
07F000
07F000
000000
063000
063000
063000
000000
07F800
1E1E00
3C0F00
780780
780780
F003C0
F003C0
F003C0
F003C0
F003C0
F003C0
F003C0
780780
780780
3C0F00
1E1E00
03F000
ENDCHAR
STARTCHAR uni022B
ENCODING 555
SWIDTH 617 0
DWIDTH 15 0
BBX 13 20 1 0
BITMAP
1FC0
1FC0
0000
18C0
18C0
18C0
0000
0F80
38E0
78F0
7070
F078
F078
F078
F078
F078
7070
78F0
38E0
0F80
ENDCHAR
STARTCHAR uni022C
ENCODING 556
SWIDTH 810 0
DWIDTH 19 0
BBX 18 25 1 0
BITMAP
03F800
03F800
000000
038800
07F800
07F800
047000
000000
07F800
1E1E00
3C0F00
780780
780780
F003C0
F003C0
F003C0
F003C0
F003C0
F003C0
F003C0
780780
780780
3C0F00
1E1E00
03F000
ENDCHAR
STARTCHAR uni022D
ENCODING 557
SWIDTH 617 0
DWIDTH 15 0
BBX 13 21 1 0
BITMAP
1FC0
1FC0
0000
1C40
3FC0
3FC0
2380
0000
0F80
38E0
78F0
7070
F078
F078
F078
F078
F078
7070
78F0
38E0
0F80
ENDCHAR
STARTCHAR uni022E
ENCODING 558
SWIDTH 810 0
DWIDTH 19 0
BBX 18 22 1 0
BITMAP
00E000
00E000
00E000
00E000
000000
07F800
1E1E00
3C0F00
780780
780780
F003C0
F003C0
F003C0
F003C0
F003C0
F003C0
F003C0
780780
780780
3C0F00
1E1E00
03F000
ENDCHAR
STARTCHAR uni022F
ENCODING 559
SWIDTH 617 0
DWIDTH 15 0
BBX 13 18 1 0
BITMAP
0700
0700
0700
0700
0000
0F80
38E0
78F0
7070
F078
F078
F078
F078
F078
7070
78F0
38E0
0F80
ENDCHAR
STARTCHAR uni0230
ENCODING 560
SWIDTH 810 0
DWIDTH 19 0
BBX 18 25 1 0
BITMAP
03F800
03F800
000000
00E000
00E000
00E000
00E000
000000
07F800
1E1E00
3C0F00
780780
780780
F003C0
F003C0
F003C0
F003C0
F003C0
F003C0
F003C0
780780
780780
3C0F00
1E1E00
03F000
ENDCHAR
STARTCHAR uni0231
ENCODING 561
SWIDTH 617 0
DWIDTH 15 0
BBX 13 21 1 0
BITMAP
1FC0
1FC0
0000
0700
0700
0700
0700
0000
0F80
38E0
78F0
7070
F078
F078
F078
F078
F078
7070
78F0
38E0
0F80
ENDCHAR
STARTCHAR uni0232
ENCODING 562
SWIDTH 717 0
DWIDTH 17 0
BBX 18 20 0 0
BITMAP
0FE000
0FE000
000000
FF07C0
7C0300
3E0200
1F0200
1F0400
0F8800
07C800
07D000
03E000
01E000
01E000
01E000
01E000
01E000
01E000
01E000
07F800
ENDCHAR
STARTCHAR uni0233
ENCODING 563
SWIDTH 654 0
DWIDTH 16 0
BBX 16 21 0 -5
BITMAP
0FE0
0FE0
0000
FE1F
7C04
3C0C
3E08
1E18
1F10
0F30
0FA0
07C0
07C0
0380
0380
0300
0100
0200
0600
0C00
3C00
ENDCHAR
STARTCHAR uni0250
ENCODING 592
SWIDTH 556 0
DWIDTH 13 0
BBX 13 13 0 0
BITMAP
F1E0
3FF0
3CF8
3C78
3C78
3C78
3CF0
3FE0
3C00
3C00
3C30
1C70
0FE0
ENDCHAR
STARTCHAR uni0254
ENCODING 596
SWIDTH 541 0
DWIDTH 13 0
BBX 11 13 1 0
BITMAP
FE00
E380
C1C0
C1C0
01E0
01E0
01E0
01E0
01E0
03C0
87C0
FF80
7E00
ENDCHAR
STARTCHAR uni0258
ENCODING 600
SWIDTH 568 0
DWIDTH 14 0
BBX 12 13 1 0
BITMAP
1F00
39C0
70E0
F0E0
F0F0
FFF0
00F0
00F0
00F0
01E0
83E0
FFC0
7F00
ENDCHAR
STARTCHAR uni0259
ENCODING 601
SWIDTH 568 0
DWIDTH 14 0
BBX 12 13 1 0
BITMAP
7F00
FFC0
83E0
01E0
00F0
00F0
00F0
FFF0
F0F0
F0E0
70E0
39C0
1F00
ENDCHAR
STARTCHAR uni025F
ENCODING 607
SWIDTH 416 0
DWIDTH 10 0
BBX 11 18 0 -5
BITMAP
1FE0
0780
0780
0780
0780
0780
0780
0780
0780
0780
0780
0780
7FE0
0780
0780
C780
C700
7E00
ENDCHAR
STARTCHAR uni0265
ENCODING 613
SWIDTH 654 0
DWIDTH 16 0
BBX 16 18 0 -5
BITMAP
FFFF
3C3C
3C3C
3C3C
3C3C
3C3C
3C3C
3C3C
3C3C
3C7C
3FBC
1FBC
0E3C
003C
003C
003C
003C
003F
ENDCHAR
STARTCHAR uni0275
ENCODING 629
SWIDTH 617 0
DWIDTH 15 0
BBX 13 13 1 0
BITMAP
0F80
38E0
78F0
7070
F078
FFF8
FFF8
F078
F078
7070
78F0
38E0
0F80
ENDCHAR
STARTCHAR uni0279
ENCODING 633
SWIDTH 462 0
DWIDTH 11 0
BBX 11 13 0 0
BITMAP
1FE0
0780
0780
0780
0780
0780
0780
0780
0780
CF80
FF80
F780
E7E0
ENDCHAR
STARTCHAR uni0287
ENCODING 647
SWIDTH 389 0
DWIDTH 9 0
BBX 9 16 0 0
BITMAP
F800
FC00
1E00
1E00
1E00
1E00
1E00
1E00
1E00
1E00
1E00
1E00
FF80
1E00
1E00
1C00
ENDCHAR
STARTCHAR uni0288
ENCODING 648
SWIDTH 389 0
DWIDTH 9 0
BBX 10 21 0 -5
BITMAP
1C00
3C00
3C00
FF80
3C00
3C00
3C00
3C00
3C00
3C00
3C00
3C00
3C00
3C00
3C00
3C00
3C00
3CC0
3CC0
1CC0
0FC0
ENDCHAR
STARTCHAR uni0289
ENCODING 649
SWIDTH 654 0
DWIDTH 16 0
BBX 16 13 0 0
BITMAP
FCFC
3C3C
3C3C
3C3C
3C3C
FFFF
FFFF
3C3C
3C3C
3C7C
3FBC
1FBE
0E3F
ENDCHAR
STARTCHAR uni028C
ENCODING 652
SWIDTH 657 0
DWIDTH 16 0
BBX 16 13 0 0
BITMAP
0180
01C0
03C0
03E0
07E0
05F0
0CF0
08F8
1878
1078
303C
203E
F87F
ENDCHAR
STARTCHAR uni028D
ENCODING 653
SWIDTH 880 0
DWIDTH 21 0
BBX 21 13 0 0
BITMAP
030300
070300
078780
078780
0F8780
0FCBC0
0BCBC0
13F3C0
11F1E0
31F1E0
21E1F0
20E0F0
F8C3F8
ENDCHAR
STARTCHAR uni028E
ENCODING 654
SWIDTH 654 0
DWIDTH 16 0
BBX 16 18 0 0
BITMAP
003C
0030
0060
0040
0080
00C0
01C0
01C0
03E0
03E0
05F0
0CF0
08F8
1878
107C
303C
203E
F87F
ENDCHAR
STARTCHAR uni029E
ENCODING 670
SWIDTH 654 0
DWIDTH 15 0
BBX 15 18 1 -5
BITMAP
F9FE
7C78
3E78
1E78
1F78
0FF8
07F8
0778
0278
0478
0878
1878
7878
0078
0078
0078
0078
007E
ENDCHAR
STARTCHAR uni02BB
ENCODING 699
SWIDTH 265 0
DWIDTH 6 0
BBX 4 7 1 11
BITMAP
70
E0
E0
F0
F0
F0
F0
ENDCHAR
STARTCHAR afii57929
ENCODING 700
SWIDTH 265 0
DWIDTH 6 0
BBX 4 7 1 11
BITMAP
F0
F0
F0
F0
70
70
E0
ENDCHAR
STARTCHAR afii64937
ENCODING 701
SWIDTH 265 0
DWIDTH 6 0
BBX 4 7 1 11
BITMAP
F0
F0
F0
F0
E0
E0
70
ENDCHAR
STARTCHAR circumflex
ENCODING 710
SWIDTH 617 0
DWIDTH 15 0
BBX 8 4 3 14
BITMAP
3C
3C
66
C3
ENDCHAR
STARTCHAR caron
ENCODING 711
SWIDTH 617 0
DWIDTH 15 0
BBX 8 4 3 14
BITMAP
C3
66
3C
3C
ENDCHAR
STARTCHAR uni02C8
ENCODING 712
SWIDTH 253 0
DWIDTH 6 0
BBX 3 7 2 11
BITMAP
E0
E0
E0
E0
40
40
40
ENDCHAR
STARTCHAR macron
ENCODING 713
SWIDTH 617 0
DWIDTH 15 0
BBX 7 2 4 15
BITMAP
FE
FE
ENDCHAR
STARTCHAR uni02CA
ENCODING 714
SWIDTH 617 0
DWIDTH 15 0
BBX 6 4 5 14
BITMAP
3C
30
60
C0
ENDCHAR
STARTCHAR uni02CB
ENCODING 715
SWIDTH 617 0
DWIDTH 15 0
BBX 6 4 4 14
BITMAP
F0
30
18
0C
ENDCHAR
STARTCHAR uni02CD
ENCODING 717
SWIDTH 617 0
DWIDTH 15 0
BBX 7 2 4 -3
BITMAP
FE
FE
ENDCHAR
STARTCHAR uni02CE
ENCODING 718
SWIDTH 617 0
DWIDTH 15 0
BBX 6 4 4 -5
BITMAP
F0
30
18
0C
ENDCHAR
STARTCHAR uni02CF
ENCODING 719
SWIDTH 617 0
DWIDTH 15 0
BBX 6 4 5 -5
BITMAP
3C
30
60
C0
ENDCHAR
STARTCHAR breve
ENCODING 728
SWIDTH 617 0
DWIDTH 15 0
BBX 8 4 3 14
BITMAP
81
FF
7E
3C
ENDCHAR
STARTCHAR dotaccent
ENCODING 729
SWIDTH 617 0
DWIDTH 15 0
BBX 3 4 6 13
BITMAP
E0
E0
E0
E0
ENDCHAR
STARTCHAR ring
ENCODING 730
SWIDTH 617 0
DWIDTH 15 0
BBX 4 4 5 14
BITMAP
60
90
90
60
ENDCHAR
STARTCHAR ogonek
ENCODING 731
SWIDTH 617 0
DWIDTH 15 0
BBX 4 4 6 -4
BITMAP
60
C0
D0
70
ENDCHAR
STARTCHAR tilde
ENCODING 732
SWIDTH 617 0
DWIDTH 15 0
BBX 8 4 3 13
BITMAP
71
FF
FF
8E
ENDCHAR
STARTCHAR hungarumlaut
ENCODING 733
SWIDTH 617 0
DWIDTH 15 0
BBX 8 4 5 14
BITMAP
3F
26
4C
D8
ENDCHAR
STARTCHAR uni02EE
ENCODING 750
SWIDTH 470 0
DWIDTH 11 0
BBX 9 7 1 11
BITMAP
F780
F780
F780
F780
7380
6300
C600
ENDCHAR
STARTCHAR uni037E
ENCODING 894
SWIDTH 265 0
DWIDTH 6 0
BBX 4 17 1 -4
BITMAP
F0
F0
F0
F0
00
00
00
00
00
F0
F0
F0
F0
70
70
60
C0
ENDCHAR
STARTCHAR tonos
ENCODING 900
SWIDTH 617 0
DWIDTH 15 0
BBX 6 4 5 14
BITMAP
3C
30
60
C0
ENDCHAR
STARTCHAR dieresistonos
ENCODING 901
SWIDTH 617 0
DWIDTH 15 0
BBX 8 8 4 14
BITMAP
0F
0C
18
30
00
C6
C6
C6
ENDCHAR
STARTCHAR anoteleia
ENCODING 903
SWIDTH 623 0
DWIDTH 15 0
BBX 3 4 6 5
BITMAP
E0
E0
E0
E0
ENDCHAR
STARTCHAR mu
ENCODING 956
SWIDTH 705 0
DWIDTH 17 0
BBX 16 17 0 -4
BITMAP
FCFC
3C3C
3C3C
3C3C
3C3C
3C3C
3C3C
3C3C
3C3C
3C7C
3FFC
3FBC
3F3F
3C00
3C00
3C00
3C00
ENDCHAR
STARTCHAR uni1E00
ENCODING 7680
SWIDTH 795 0
DWIDTH 19 0
BBX 19 22 0 -5
BITMAP
006000
00E000
00F000
01F000
01F800
017800
027800
027C00
043C00
043E00
081E00
0FFF00
100F00
100780
200780
6003C0
F80FE0
000000
003000
004800
004800
003000
ENDCHAR
STARTCHAR uni1E01
ENCODING 7681
SWIDTH 556 0
DWIDTH 13 0
BBX 13 18 0 -5
BITMAP
3F80
71C0
61E0
01E0
01E0
3FE0
79E0
F1E0
F1E0
F1E0
F9E0
7FE0
3C78
0000
0600
0900
0900
0600
ENDCHAR
STARTCHAR uni1E02
ENCODING 7682
SWIDTH 639 0
DWIDTH 15 0
BBX 14 22 0 0
BITMAP
0700
0700
0700
0700
0000
FFE0
3CF0
3C78
3C78
3C78
3C78
3C70
3CC0
3FC0
3CF0
3C78
3C3C
3C3C
3C3C
3C3C
3C78
FFE0
ENDCHAR
STARTCHAR uni1E03
ENCODING 7683
SWIDTH 640 0
DWIDTH 15 0
BBX 15 23 0 0
BITMAP
1C00
1C00
1C00
1C00
0000
FC00
3C00
3C00
3C00
3C00
3CF0
3DFC
3FFC
3E3E
3C1E
3C1E
3C1E
3C1E
3C1E
3C3C
3E3C
3BF8
39F0
ENDCHAR
STARTCHAR uni1E04
ENCODING 7684
SWIDTH 639 0
DWIDTH 15 0
BBX 14 22 0 -5
BITMAP
FFE0
3CF0
3C78
3C78
3C78
3C78
3C70
3CC0
3FC0
3CF0
3C78
3C3C
3C3C
3C3C
3C3C
3C78
FFE0
0000
0380
0380
0380
0380
ENDCHAR
STARTCHAR uni1E05
ENCODING 7685
SWIDTH 640 0
DWIDTH 15 0
BBX 15 23 0 -5
BITMAP
FC00
3C00
3C00
3C00
3C00
3CF0
3DFC
3FFC
3E3E
3C1E
3C1E
3C1E
3C1E
3C1E
3C3C
3E3C
3BF8
39F0
0000
0380
0380
0380
0380
ENDCHAR
STARTCHAR uni1E06
ENCODING 7686
SWIDTH 639 0
DWIDTH 15 0
BBX 14 20 0 -3
BITMAP
FFE0
3CF0
3C78
3C78
3C78
3C78
3C70
3CC0
3FC0
3CF0
3C78
3C3C
3C3C
3C3C
3C3C
3C78
FFE0
0000
0FE0
0FE0
ENDCHAR
STARTCHAR uni1E07
ENCODING 7687
SWIDTH 640 0
DWIDTH 15 0
BBX 15 21 0 -3
BITMAP
FC00
3C00
3C00
3C00
3C00
3CF0
3DFC
3FFC
3E3E
3C1E
3C1E
3C1E
3C1E
3C1E
3C3C
3E3C
3BF8
39F0
0000
0FE0
0FE0
ENDCHAR
STARTCHAR uni1E08
ENCODING 7688
SWIDTH 711 0
DWIDTH 17 0
BBX 15 27 1 -5
BITMAP
01E0
0180
0300
0600
0000
03FC
1E0E
3C06
7806
7800
F000
F000
F000
F000
F000
F000
F800
7800
7C00
3E06
1FFE
03F8
0100
03C0
01C0
01C0
0380
ENDCHAR
STARTCHAR uni1E09
ENCODING 7689
SWIDTH 541 0
DWIDTH 13 0
BBX 11 23 1 -5
BITMAP
03C0
0300
0600
0C00
0000
0FE0
38E0
7060
7060
F000
F000
F000
F000
F000
7800
7C20
3FE0
0FC0
0400
0F00
0700
0700
0E00
ENDCHAR
STARTCHAR uni1E0A
ENCODING 7690
SWIDTH 794 0
DWIDTH 19 0
BBX 18 22 0 0
BITMAP
01C000
01C000
01C000
01C000
000000
FFF800
3C1E00
3C0F00
3C0780
3C0380
3C03C0
3C03C0
3C03C0
3C03C0
3C03C0
3C03C0
3C0380
3C0780
3C0780
3C0F00
3C1E00
FFF800
ENDCHAR
STARTCHAR uni1E0B
ENCODING 7691
SWIDTH 652 0
DWIDTH 16 0
BBX 15 23 1 0
BITMAP
00E0
00E0
00E0
00E0
0000
01F8
0078
0078
0078
0078
1E78
3FF8
78F8
7078
F078
F078
F078
F078
F078
F8F8
7FF8
7F7C
1E7E
ENDCHAR
STARTCHAR uni1E0C
ENCODING 7692
SWIDTH 794 0
DWIDTH 19 0
BBX 18 22 0 -5
BITMAP
FFF800
3C1E00
3C0F00
3C0780
3C0380
3C03C0
3C03C0
3C03C0
3C03C0
3C03C0
3C03C0
3C0380
3C0780
3C0780
3C0F00
3C1E00
FFF800
000000
01C000
01C000
01C000
01C000
ENDCHAR
STARTCHAR uni1E0D
ENCODING 7693
SWIDTH 652 0
DWIDTH 16 0
BBX 15 23 1 -5
BITMAP
01F8
0078
0078
0078
0078
1E78
3FF8
78F8
7078
F078
F078
F078
F078
F078
F8F8
7FF8
7F7C
1E7E
0000
0380
0380
0380
0380
ENDCHAR
STARTCHAR uni1E0E
ENCODING 7694
SWIDTH 794 0
DWIDTH 19 0
BBX 18 20 0 -3
BITMAP
FFF800
3C1E00
3C0F00
3C0780
3C0380
3C03C0
3C03C0
3C03C0
3C03C0
3C03C0
3C03C0
3C0380
3C0780
3C0780
3C0F00
3C1E00
FFF800
000000
07F000
07F000
ENDCHAR
STARTCHAR uni1E0F
ENCODING 7695
SWIDTH 652 0
DWIDTH 16 0
BBX 15 21 1 -3
BITMAP
01F8
0078
0078
0078
0078
1E78
3FF8
78F8
7078
F078
F078
F078
F078
F078
F8F8
7FF8
7F7C
1E7E
0000
0FE0
0FE0
ENDCHAR
STARTCHAR uni1E10
ENCODING 7696
SWIDTH 794 0
DWIDTH 19 0
BBX 18 22 0 -5
BITMAP
FFF800
3C1E00
3C0F00
3C0780
3C0380
3C03C0
3C03C0
3C03C0
3C03C0
3C03C0
3C03C0
3C0380
3C0780
3C0780
3C0F00
3C1E00
FFF800
008000
01E000
00E000
00E000
01C000
ENDCHAR
STARTCHAR uni1E11
ENCODING 7697
SWIDTH 652 0
DWIDTH 16 0
BBX 15 23 1 -5
BITMAP
01F8
0078
0078
0078
0078
1E78
3FF8
78F8
7078
F078
F078
F078
F078
F078
F8F8
7FF8
7F7C
1FFE
0100
03C0
01C0
01C0
0380
ENDCHAR
STARTCHAR uni1E12
ENCODING 7698
SWIDTH 794 0
DWIDTH 19 0
BBX 18 22 0 -5
BITMAP
FFF800
3C1E00
3C0F00
3C0780
3C0380
3C03C0
3C03C0
3C03C0
3C03C0
3C03C0
3C03C0
3C0380
3C0780
3C0780
3C0F00
3C1E00
FFF800
000000
01E000
01E000
033000
061800
ENDCHAR
STARTCHAR uni1E13
ENCODING 7699
SWIDTH 652 0
DWIDTH 16 0
BBX 15 23 1 -5
BITMAP
01F8
0078
0078
0078
0078
1E78
3FF8
78F8
7078
F078
F078
F078
F078
F078
F8F8
7FF8
7F7C
1E7E
0000
0780
0780
0CC0
1860
ENDCHAR
STARTCHAR uni1E14
ENCODING 7700
SWIDTH 601 0
DWIDTH 14 0
BBX 13 25 1 0
BITMAP
1E00
0600
0300
0180
0000
1FC0
1FC0
0000
FFF8
3C18
3C18
3C00
3C00
3C00
3C00
3C20
3FE0
3C20
3C00
3C00
3C00
3C00
3C18
3C18
FFF8
ENDCHAR
STARTCHAR uni1E15
ENCODING 7701
SWIDTH 568 0
DWIDTH 14 0
BBX 12 21 1 0
BITMAP
3C00
0C00
0600
0300
0000
1FC0
1FC0
0000
0F80
39C0
70E0
70F0
F0F0
FFF0
F000
F000
F000
7800
7C10
3FF0
0FE0
ENDCHAR
STARTCHAR uni1E16
ENCODING 7702
SWIDTH 601 0
DWIDTH 14 0
BBX 13 25 1 0
BITMAP
01E0
0180
0300
0600
0000
1FC0
1FC0
0000
FFF8
3C18
3C18
3C00
3C00
3C00
3C00
3C20
3FE0
3C20
3C00
3C00
3C00
3C00
3C18
3C18
FFF8
ENDCHAR
STARTCHAR uni1E17
ENCODING 7703
SWIDTH 568 0
DWIDTH 14 0
BBX 12 21 1 0
BITMAP
03C0
0300
0600
0C00
0000
1FC0
1FC0
0000
0F80
39C0
70E0
70F0
F0F0
FFF0
F000
F000
F000
7800
7C10
3FF0
0FE0
ENDCHAR
STARTCHAR uni1E18
ENCODING 7704
SWIDTH 601 0
DWIDTH 14 0
BBX 13 22 1 -5
BITMAP
FFF8
3C18
3C18
3C00
3C00
3C00
3C00
3C20
3FE0
3C20
3C00
3C00
3C00
3C00
3C18
3C18
FFF8
0000
0F00
0F00
1980
30C0
ENDCHAR
STARTCHAR uni1E19
ENCODING 7705
SWIDTH 568 0
DWIDTH 14 0
BBX 12 18 1 -5
BITMAP
0F80
39C0
70E0
70F0
F0F0
FFF0
F000
F000
F000
7800
7C10
3FF0
0FE0
0000
0F00
0F00
1980
30C0
ENDCHAR
STARTCHAR uni1E1A
ENCODING 7706
SWIDTH 601 0
DWIDTH 14 0
BBX 13 22 1 -5
BITMAP
FFF8
3C18
3C18
3C00
3C00
3C00
3C00
3C20
3FE0
3C20
3C00
3C00
3C00
3C00
3C18
3C18
FFF8
0000
1C40
3FC0
3FC0
2380
ENDCHAR
STARTCHAR uni1E1B
ENCODING 7707
SWIDTH 568 0
DWIDTH 14 0
BBX 12 18 1 -5
BITMAP
0F80
39C0
70E0
70F0
F0F0
FFF0
F000
F000
F000
7800
7C10
3FF0
0FE0
0000
1C40
3FC0
3FC0
2380
ENDCHAR
STARTCHAR uni1E1C
ENCODING 7708
SWIDTH 601 0
DWIDTH 14 0
BBX 13 27 1 -5
BITMAP
2040
3FC0
1F80
0F00
0000
FFF8
3C18
3C18
3C00
3C00
3C00
3C00
3C20
3FE0
3C20
3C00
3C00
3C00
3C00
3C18
3C18
FFF8
0400
0F00
0700
0700
0E00
ENDCHAR
STARTCHAR uni1E1D
ENCODING 7709
SWIDTH 568 0
DWIDTH 14 0
BBX 12 23 1 -5
BITMAP
2040
3FC0
1F80
0F00
0000
0F80
39C0
70E0
70F0
F0F0
FFF0
F000
F000
F000
7800
7C10
3FF0
0FE0
0400
0F00
0700
0700
0E00
ENDCHAR
STARTCHAR uni1E1E
ENCODING 7710
SWIDTH 584 0
DWIDTH 14 0
BBX 13 22 0 0
BITMAP
0700
0700
0700
0700
0000
FFF8
3C18
3C18
3C00
3C00
3C00
3C00
3C20
3FE0
3C20
3C00
3C00
3C00
3C00
3C00
3C00
FF00
ENDCHAR
STARTCHAR uni1E1F
ENCODING 7711
SWIDTH 416 0
DWIDTH 10 0
BBX 11 23 0 0
BITMAP
0E00
0E00
0E00
0E00
0000
0FC0
1C60
3C60
3C00
3C00
FFC0
3C00
3C00
3C00
3C00
3C00
3C00
3C00
3C00
3C00
3C00
3C00
FF00
ENDCHAR
STARTCHAR uni1E20
ENCODING 7712
SWIDTH 753 0
DWIDTH 18 0
BBX 17 20 1 0
BITMAP
0FE000
0FE000
000000
03FC00
1E0E00
3C0600
780600
780000
F00000
F00000
F00000
F00000
F07F80
F01E00
F01E00
781E00
781E00
3C1E00
1E1E00
03FC00
ENDCHAR
STARTCHAR uni1E21
ENCODING 7713
SWIDTH 599 0
DWIDTH 14 0
BBX 14 21 0 -5
BITMAP
0FE0
0FE0
0000
0FFC
38E8
78F0
78F0
78F0
78F0
38E0
18E0
07C0
3800
7FF0
3FF8
1FF8
7078
F078
F070
78E0
3FC0
ENDCHAR
STARTCHAR uni1E22
ENCODING 7714
SWIDTH 798 0
DWIDTH 19 0
BBX 18 22 1 0
BITMAP
00E000
00E000
00E000
00E000
000000
FF3FC0
3C0F00
3C0F00
3C0F00
3C0F00
3C0F00
3C0F00
3C0F00
3FFF00
3C0F00
3C0F00
3C0F00
3C0F00
3C0F00
3C0F00
3C0F00
FF3FC0
ENDCHAR
STARTCHAR uni1E23
ENCODING 7715
SWIDTH 654 0
DWIDTH 16 0
BBX 16 23 0 0
BITMAP
0E00
0E00
0E00
0E00
0000
FC00
3C00
3C00
3C00
3C00
3C70
3DF8
3DFC
3E3C
3C3C
3C3C
3C3C
3C3C
3C3C
3C3C
3C3C
3C3C
FFFF
ENDCHAR
STARTCHAR uni1E24
ENCODING 7716
SWIDTH 798 0
DWIDTH 19 0
BBX 18 22 1 -5
BITMAP
FF3FC0
3C0F00
3C0F00
3C0F00
3C0F00
3C0F00
3C0F00
3C0F00
3FFF00
3C0F00
3C0F00
3C0F00
3C0F00
3C0F00
3C0F00
3C0F00
FF3FC0
000000
00E000
00E000
00E000
00E000
ENDCHAR
STARTCHAR uni1E25
ENCODING 7717
SWIDTH 654 0
DWIDTH 16 0
BBX 16 23 0 -5
BITMAP
FC00
3C00
3C00
3C00
3C00
3C70
3DF8
3DFC
3E3C
3C3C
3C3C
3C3C
3C3C
3C3C
3C3C
3C3C
3C3C
FFFF
0000
01C0
01C0
01C0
01C0
ENDCHAR
STARTCHAR uni1E26
ENCODING 7718
SWIDTH 798 0
DWIDTH 19 0
BBX 18 21 1 0
BITMAP
031800
031800
031800
000000
FF3FC0
3C0F00
3C0F00
3C0F00
3C0F00
3C0F00
3C0F00
3C0F00
3FFF00
3C0F00
3C0F00
3C0F00
3C0F00
3C0F00
3C0F00
3C0F00
FF3FC0
ENDCHAR
STARTCHAR uni1E27
ENCODING 7719
SWIDTH 654 0
DWIDTH 16 0
BBX 16 22 0 0
BITMAP
3180
3180
3180
0000
FC00
3C00
3C00
3C00
3C00
3C70
3DF8
3DFC
3E3C
3C3C
3C3C
3C3C
3C3C
3C3C
3C3C
3C3C
3C3C
FFFF
ENDCHAR
STARTCHAR uni1E28
ENCODING 7720
SWIDTH 798 0
DWIDTH 19 0
BBX 18 22 1 -5
BITMAP
FF3FC0
3C0F00
3C0F00
3C0F00
3C0F00
3C0F00
3C0F00
3C0F00
3FFF00
3C0F00
3C0F00
3C0F00
3C0F00
3C0F00
3C0F00
3C0F00
FFFFC0
008000
01E000
00E000
00E000
01C000
ENDCHAR
STARTCHAR uni1E29
ENCODING 7721
SWIDTH 654 0
DWIDTH 16 0
BBX 16 23 0 -5
BITMAP
FC00
3C00
3C00
3C00
3C00
3C70
3DF8
3DFC
3E3C
3C3C
3C3C
3C3C
3C3C
3C3C
3C3C
3C3C
3C3C
FFFF
0100
03C0
01C0
01C0
0380
ENDCHAR
STARTCHAR uni1E2A
ENCODING 7722
SWIDTH 798 0
DWIDTH 19 0
BBX 18 22 1 -5
BITMAP
FF3FC0
3C0F00
3C0F00
3C0F00
3C0F00
3C0F00
3C0F00
3C0F00
3FFF00
3C0F00
3C0F00
3C0F00
3C0F00
3C0F00
3C0F00
3C0F00
FF3FC0
000000
040800
07F800
03F000
01E000
ENDCHAR
STARTCHAR uni1E2B
ENCODING 7723
SWIDTH 654 0
DWIDTH 16 0
BBX 16 23 0 -5
BITMAP
FC00
3C00
3C00
3C00
3C00
3C70
3DF8
3DFC
3E3C
3C3C
3C3C
3C3C
3C3C
3C3C
3C3C
3C3C
3C3C
FFFF
0000
0810
0FF0
07E0
03C0
ENDCHAR
STARTCHAR uni1E2C
ENCODING 7724
SWIDTH 349 0
DWIDTH 8 0
BBX 8 22 0 -5
BITMAP
FF
3C
3C
3C
3C
3C
3C
3C
3C
3C
3C
3C
3C
3C
3C
3C
FF
00
71
FF
FF
8E
ENDCHAR
STARTCHAR uni1E2D
ENCODING 7725
SWIDTH 325 0
DWIDTH 8 0
BBX 8 23 0 -5
BITMAP
3C
3C
3C
3C
00
FC
3C
3C
3C
3C
3C
3C
3C
3C
3C
3C
3C
FF
00
71
FF
FF
8E
ENDCHAR
STARTCHAR uni1E2E
ENCODING 7726
SWIDTH 349 0
DWIDTH 8 0
BBX 8 26 0 0
BITMAP
0F
0C
18
30
00
C6
C6
C6
00
FF
3C
3C
3C
3C
3C
3C
3C
3C
3C
3C
3C
3C
3C
3C
3C
FF
ENDCHAR
STARTCHAR uni1E2F
ENCODING 7727
SWIDTH 325 0
DWIDTH 8 0
BBX 8 22 0 0
BITMAP
0F
0C
18
30
00
C6
C6
C6
00
FC
3C
3C
3C
3C
3C
3C
3C
3C
3C
3C
3C
FF
ENDCHAR
STARTCHAR uni1E30
ENCODING 7728
SWIDTH 747 0
DWIDTH 18 0
BBX 17 22 1 0
BITMAP
01E000
018000
030000
060000
000000
FF1F00
3C0C00
3C1800
3C3000
3C6000
3C4000
3C8000
3DC000
3FC000
3FE000
3DF000
3CF800
3CF800
3C7C00
3C3E00
3C1F00
FF3F80
ENDCHAR
STARTCHAR uni1E31
ENCODING 7729
SWIDTH 654 0
DWIDTH 15 0
BBX 15 23 1 0
BITMAP
0780
0600
0C00
1800
0000
FC00
3C00
3C00
3C00
3C00
3C3C
3C30
3C20
3C40
3C80
3DC0
3FC0
3FE0
3DF0
3CF0
3CF8
3C7C
FF3E
ENDCHAR
STARTCHAR uni1E32
ENCODING 7730
SWIDTH 747 0
DWIDTH 18 0
BBX 17 22 1 -5
BITMAP
FF1F00
3C0C00
3C1800
3C3000
3C6000
3C4000
3C8000
3DC000
3FC000
3FE000
3DF000
3CF800
3CF800
3C7C00
3C3E00
3C1F00
FF3F80
000000
01C000
01C000
01C000
01C000
ENDCHAR
STARTCHAR uni1E33
ENCODING 7731
SWIDTH 654 0
DWIDTH 15 0
BBX 15 23 1 -5
BITMAP
FC00
3C00
3C00
3C00
3C00
3C3C
3C30
3C20
3C40
3C80
3DC0
3FC0
3FE0
3DF0
3CF0
3CF8
3C7C
FF3E
0000
0380
0380
0380
0380
ENDCHAR
STARTCHAR uni1E34
ENCODING 7732
SWIDTH 747 0
DWIDTH 18 0
BBX 17 20 1 -3
BITMAP
FF1F00
3C0C00
3C1800
3C3000
3C6000
3C4000
3C8000
3DC000
3FC000
3FE000
3DF000
3CF800
3CF800
3C7C00
3C3E00
3C1F00
FF3F80
000000
07F000
07F000
ENDCHAR
STARTCHAR uni1E35
ENCODING 7733
SWIDTH 654 0
DWIDTH 15 0
BBX 15 21 1 -3
BITMAP
FC00
3C00
3C00
3C00
3C00
3C3C
3C30
3C20
3C40
3C80
3DC0
3FC0
3FE0
3DF0
3CF0
3CF8
3C7C
FF3E
0000
0FE0
0FE0
ENDCHAR
STARTCHAR uni1E36
ENCODING 7734
SWIDTH 584 0
DWIDTH 14 0
BBX 14 22 0 -5
BITMAP
FF00
3C00
3C00
3C00
3C00
3C00
3C00
3C00
3C00
3C00
3C00
3C00
3C00
3C0C
3C0C
3C0C
FFFC
0000
0700
0700
0700
0700
ENDCHAR
STARTCHAR uni1E37
ENCODING 7735
SWIDTH 325 0
DWIDTH 8 0
BBX 8 23 0 -5
BITMAP
FC
3C
3C
3C
3C
3C
3C
3C
3C
3C
3C
3C
3C
3C
3C
3C
3C
FF
00
1C
1C
1C
1C
ENDCHAR
STARTCHAR uni1E38
ENCODING 7736
SWIDTH 584 0
DWIDTH 14 0
BBX 14 25 0 -5
BITMAP
3F80
3F80
0000
FF00
3C00
3C00
3C00
3C00
3C00
3C00
3C00
3C00
3C00
3C00
3C00
3C00
3C0C
3C0C
3C0C
FFFC
0000
0700
0700
0700
0700
ENDCHAR
STARTCHAR uni1E39
ENCODING 7737
SWIDTH 325 0
DWIDTH 8 0
BBX 8 26 0 -5
BITMAP
FE
FE
00
FC
3C
3C
3C
3C
3C
3C
3C
3C
3C
3C
3C
3C
3C
3C
3C
3C
FF
00
1C
1C
1C
1C
ENDCHAR
STARTCHAR uni1E3A
ENCODING 7738
SWIDTH 584 0
DWIDTH 14 0
BBX 14 20 0 -3
BITMAP
FF00
3C00
3C00
3C00
3C00
3C00
3C00
3C00
3C00
3C00
3C00
3C00
3C00
3C0C
3C0C
3C0C
FFFC
0000
1FC0
1FC0
ENDCHAR
STARTCHAR uni1E3B
ENCODING 7739
SWIDTH 325 0
DWIDTH 8 0
BBX 8 21 0 -3
BITMAP
FC
3C
3C
3C
3C
3C
3C
3C
3C
3C
3C
3C
3C
3C
3C
3C
3C
FF
00
7F
7F
ENDCHAR
STARTCHAR uni1E3C
ENCODING 7740
SWIDTH 584 0
DWIDTH 14 0
BBX 14 22 0 -5
BITMAP
FF00
3C00
3C00
3C00
3C00
3C00
3C00
3C00
3C00
3C00
3C00
3C00
3C00
3C0C
3C0C
3C0C
FFFC
0000
0780
0780
0CC0
1860
ENDCHAR
STARTCHAR uni1E3D
ENCODING 7741
SWIDTH 325 0
DWIDTH 8 0
BBX 8 23 0 -5
BITMAP
FC
3C
3C
3C
3C
3C
3C
3C
3C
3C
3C
3C
3C
3C
3C
3C
3C
FF
00
3C
3C
66
C3
ENDCHAR
STARTCHAR uni1E3E
ENCODING 7742
SWIDTH 904 0
DWIDTH 22 0
BBX 21 22 0 0
BITMAP
003C00
003000
006000
00C000
000000
FE01F8
3E03E0
3E03E0
3F03E0
3F07E0
3787E0
378DE0
37CDE0
33D9E0
33F9E0
31F9E0
31F1E0
31F1E0
30E1E0
30E1E0
3001E0
FC07F8
ENDCHAR
STARTCHAR uni1E3F
ENCODING 7743
SWIDTH 967 0
DWIDTH 23 0
BBX 24 18 0 0
BITMAP
001E00
001800
003000
006000
000000
FCF0F0
3DF9F8
3FFFFC
3E3E3C
3C3C3C
3C3C3C
3C3C3C
3C3C3C
3C3C3C
3C3C3C
3C3C3C
3C3C3C
FFFFFF
ENDCHAR
STARTCHAR uni1E40
ENCODING 7744
SWIDTH 904 0
DWIDTH 22 0
BBX 21 22 0 0
BITMAP
007000
007000
007000
007000
000000
FE01F8
3E03E0
3E03E0
3F03E0
3F07E0
3787E0
378DE0
37CDE0
33D9E0
33F9E0
31F9E0
31F1E0
31F1E0
30E1E0
30E1E0
3001E0
FC07F8
ENDCHAR
STARTCHAR uni1E41
ENCODING 7745
SWIDTH 967 0
DWIDTH 23 0
BBX 24 18 0 0
BITMAP
003800
003800
003800
003800
000000
FCF0F0
3DF9F8
3FFFFC
3E3E3C
3C3C3C
3C3C3C
3C3C3C
3C3C3C
3C3C3C
3C3C3C
3C3C3C
3C3C3C
FFFFFF
ENDCHAR
STARTCHAR uni1E42
ENCODING 7746
SWIDTH 904 0
DWIDTH 22 0
BBX 21 22 0 -5
BITMAP
FE01F8
3E03E0
3E03E0
3F03E0
3F07E0
3787E0
378DE0
37CDE0
33D9E0
33F9E0
31F9E0
31F1E0
31F1E0
30E1E0
30E1E0
3001E0
FC07F8
000000
003800
003800
003800
003800
ENDCHAR
STARTCHAR uni1E43
ENCODING 7747
SWIDTH 967 0
DWIDTH 23 0
BBX 24 18 0 -5
BITMAP
FCF0F0
3DF9F8
3FFFFC
3E3E3C
3C3C3C
3C3C3C
3C3C3C
3C3C3C
3C3C3C
3C3C3C
3C3C3C
3C3C3C
FFFFFF
000000
001C00
001C00
001C00
001C00
ENDCHAR
STARTCHAR uni1E44
ENCODING 7748
SWIDTH 788 0
DWIDTH 19 0
BBX 18 22 0 0
BITMAP
01C000
01C000
01C000
01C000
000000
F80FC0
3C0300
3E0300
3F0300
3F0300
3F8300
37C300
33E300
33E300
31F300
30FB00
307F00
307F00
303F00
301F00
300F00
FC0F00
ENDCHAR
STARTCHAR uni1E45
ENCODING 7749
SWIDTH 654 0
DWIDTH 16 0
BBX 16 18 0 0
BITMAP
0380
0380
0380
0380
0000
FC70
7DF8
3DFC
3E3C
3C3C
3C3C
3C3C
3C3C
3C3C
3C3C
3C3C
3C3C
FFFF
ENDCHAR
STARTCHAR uni1E46
ENCODING 7750
SWIDTH 788 0
DWIDTH 19 0
BBX 18 22 0 -5
BITMAP
F80FC0
3C0300
3E0300
3F0300
3F0300
3F8300
37C300
33E300
33E300
31F300
30FB00
307F00
307F00
303F00
301F00
300F00
FC0F00
000000
00E000
00E000
00E000
00E000
ENDCHAR
STARTCHAR uni1E47
ENCODING 7751
SWIDTH 654 0
DWIDTH 16 0
BBX 16 18 0 -5
BITMAP
FC70
7DF8
3DFC
3E3C
3C3C
3C3C
3C3C
3C3C
3C3C
3C3C
3C3C
3C3C
FFFF
0000
01C0
01C0
01C0
01C0
ENDCHAR
STARTCHAR uni1E48
ENCODING 7752
SWIDTH 788 0
DWIDTH 19 0
BBX 18 20 0 -3
BITMAP
F80FC0
3C0300
3E0300
3F0300
3F0300
3F8300
37C300
33E300
33E300
31F300
30FB00
307F00
307F00
303F00
301F00
300F00
FC0F00
000000
03F800
03F800
ENDCHAR
STARTCHAR uni1E49
ENCODING 7753
SWIDTH 654 0
DWIDTH 16 0
BBX 16 16 0 -3
BITMAP
FC70
7DF8
3DFC
3E3C
3C3C
3C3C
3C3C
3C3C
3C3C
3C3C
3C3C
3C3C
FFFF
0000
07F0
07F0
ENDCHAR
STARTCHAR uni1E4A
ENCODING 7754
SWIDTH 788 0
DWIDTH 19 0
BBX 18 22 0 -5
BITMAP
F80FC0
3C0300
3E0300
3F0300
3F0300
3F8300
37C300
33E300
33E300
31F300
30FB00
307F00
307F00
303F00
301F00
300F00
FC0F00
000000
01E000
01E000
033000
061800
ENDCHAR
STARTCHAR uni1E4B
ENCODING 7755
SWIDTH 654 0
DWIDTH 16 0
BBX 16 18 0 -5
BITMAP
FC70
7DF8
3DFC
3E3C
3C3C
3C3C
3C3C
3C3C
3C3C
3C3C
3C3C
3C3C
FFFF
0000
03C0
03C0
0660
0C30
ENDCHAR
STARTCHAR uni1E4C
ENCODING 7756
SWIDTH 810 0
DWIDTH 19 0
BBX 18 27 1 0
BITMAP
007800
006000
00C000
018000
000000
038800
07F800
07F800
047000
000000
07F800
1E1E00
3C0F00
780780
780780
F003C0
F003C0
F003C0
F003C0
F003C0
F003C0
F003C0
780780
780780
3C0F00
1E1E00
03F000
ENDCHAR
STARTCHAR uni1E4D
ENCODING 7757
SWIDTH 617 0
DWIDTH 15 0
BBX 13 23 1 0
BITMAP
03C0
0300
0600
0C00
0000
1C40
3FC0
3FC0
2380
0000
0F80
38E0
78F0
7070
F078
F078
F078
F078
F078
7070
78F0
38E0
0F80
ENDCHAR
STARTCHAR uni1E4E
ENCODING 7758
SWIDTH 810 0
DWIDTH 19 0
BBX 18 26 1 0
BITMAP
031800
031800
031800
000000
038800
07F800
07F800
047000
000000
07F800
1E1E00
3C0F00
780780
780780
F003C0
F003C0
F003C0
F003C0
F003C0
F003C0
F003C0
780780
780780
3C0F00
1E1E00
03F000
ENDCHAR
STARTCHAR uni1E4F
ENCODING 7759
SWIDTH 617 0
DWIDTH 15 0
BBX 13 22 1 0
BITMAP
18C0
18C0
18C0
0000
1C40
3FC0
3FC0
2380
0000
0F80
38E0
78F0
7070
F078
F078
F078
F078
F078
7070
78F0
38E0
0F80
ENDCHAR
STARTCHAR uni1E50
ENCODING 7760
SWIDTH 810 0
DWIDTH 19 0
BBX 18 25 1 0
BITMAP
078000
018000
00C000
006000
000000
03F800
03F800
000000
07F800
1E1E00
3C0F00
780780
780780
F003C0
F003C0
F003C0
F003C0
F003C0
F003C0
F003C0
780780
780780
3C0F00
1E1E00
03F000
ENDCHAR
STARTCHAR uni1E51
ENCODING 7761
SWIDTH 617 0
DWIDTH 15 0
BBX 13 21 1 0
BITMAP
1E00
0600
0300
0180
0000
1FC0
1FC0
0000
0F80
38E0
78F0
7070
F078
F078
F078
F078
F078
7070
78F0
38E0
0F80
ENDCHAR
STARTCHAR uni1E52
ENCODING 7762
SWIDTH 810 0
DWIDTH 19 0
BBX 18 25 1 0
BITMAP
007800
006000
00C000
018000
000000
03F800
03F800
000000
07F800
1E1E00
3C0F00
780780
780780
F003C0
F003C0
F003C0
F003C0
F003C0
F003C0
F003C0
780780
780780
3C0F00
1E1E00
03F000
ENDCHAR
STARTCHAR uni1E53
ENCODING 7763
SWIDTH 617 0
DWIDTH 15 0
BBX 13 21 1 0
BITMAP
01E0
0180
0300
0600
0000
1FC0
1FC0
0000
0F80
38E0
78F0
7070
F078
F078
F078
F078
F078
7070
78F0
38E0
0F80
ENDCHAR
STARTCHAR uni1E54
ENCODING 7764
SWIDTH 614 0
DWIDTH 15 0
BBX 14 22 0 0
BITMAP
01E0
0180
0300
0600
0000
FFE0
3C78
3C3C
3C3C
3C3C
3C3C
3C3C
3C38
3C70
3FC0
3C00
3C00
3C00
3C00
3C00
3C00
FF00
ENDCHAR
STARTCHAR uni1E55
ENCODING 7765
SWIDTH 652 0
DWIDTH 16 0
BBX 15 23 0 -5
BITMAP
00F0
00C0
0180
0300
0000
FCF0
7DFC
3FFC
3E3E
3C1E
3C1E
3C1E
3C1E
3C1E
3C3C
3E3C
3FF8
3CF0
3C00
3C00
3C00
3C00
FF00
ENDCHAR
STARTCHAR uni1E56
ENCODING 7766
SWIDTH 614 0
DWIDTH 15 0
BBX 14 22 0 0
BITMAP
0380
0380
0380
0380
0000
FFE0
3C78
3C3C
3C3C
3C3C
3C3C
3C3C
3C38
3C70
3FC0
3C00
3C00
3C00
3C00
3C00
3C00
FF00
ENDCHAR
STARTCHAR uni1E57
ENCODING 7767
SWIDTH 652 0
DWIDTH 16 0
BBX 15 23 0 -5
BITMAP
0380
0380
0380
0380
0000
FCF0
7DFC
3FFC
3E3E
3C1E
3C1E
3C1E
3C1E
3C1E
3C3C
3E3C
3FF8
3CF0
3C00
3C00
3C00
3C00
FF00
ENDCHAR
STARTCHAR uni1E58
ENCODING 7768
SWIDTH 720 0
DWIDTH 17 0
BBX 17 22 0 0
BITMAP
038000
038000
038000
038000
000000
FFE000
3C7800
3C3C00
3C3C00
3C3C00
3C3C00
3C7C00
3CF800
3FF000
3DE000
3CF000
3CF800
3C7C00
3C7C00
3C3E00
3C1F00
FF1F80
ENDCHAR
STARTCHAR uni1E59
ENCODING 7769
SWIDTH 462 0
DWIDTH 11 0
BBX 11 18 0 0
BITMAP
0E00
0E00
0E00
0E00
0000
FCE0
3DE0
3FE0
3E60
3C00
3C00
3C00
3C00
3C00
3C00
3C00
3C00
FF00
ENDCHAR
STARTCHAR uni1E5A
ENCODING 7770
SWIDTH 720 0
DWIDTH 17 0
BBX 17 22 0 -5
BITMAP
FFE000
3C7800
3C3C00
3C3C00
3C3C00
3C3C00
3C7C00
3CF800
3FF000
3DE000
3CF000
3CF800
3C7C00
3C7C00
3C3E00
3C1F00
FF1F80
000000
01C000
01C000
01C000
01C000
ENDCHAR
STARTCHAR uni1E5B
ENCODING 7771
SWIDTH 462 0
DWIDTH 11 0
BBX 11 18 0 -5
BITMAP
FCE0
3DE0
3FE0
3E60
3C00
3C00
3C00
3C00
3C00
3C00
3C00
3C00
FF00
0000
1C00
1C00
1C00
1C00
ENDCHAR
STARTCHAR uni1E5C
ENCODING 7772
SWIDTH 720 0
DWIDTH 17 0
BBX 17 25 0 -5
BITMAP
0FE000
0FE000
000000
FFE000
3C7800
3C3C00
3C3C00
3C3C00
3C3C00
3C7C00
3CF800
3FF000
3DE000
3CF000
3CF800
3C7C00
3C7C00
3C3E00
3C1F00
FF1F80
000000
01C000
01C000
01C000
01C000
ENDCHAR
STARTCHAR uni1E5D
ENCODING 7773
SWIDTH 462 0
DWIDTH 11 0
BBX 11 21 0 -5
BITMAP
3F80
3F80
0000
FCE0
3DE0
3FE0
3E60
3C00
3C00
3C00
3C00
3C00
3C00
3C00
3C00
FF00
0000
1C00
1C00
1C00
1C00
ENDCHAR
STARTCHAR uni1E5E
ENCODING 7774
SWIDTH 720 0
DWIDTH 17 0
BBX 17 20 0 -3
BITMAP
FFE000
3C7800
3C3C00
3C3C00
3C3C00
3C3C00
3C7C00
3CF800
3FF000
3DE000
3CF000
3CF800
3C7C00
3C7C00
3C3E00
3C1F00
FF1F80
000000
07F000
07F000
ENDCHAR
STARTCHAR uni1E5F
ENCODING 7775
SWIDTH 462 0
DWIDTH 11 0
BBX 11 16 0 -3
BITMAP
FCE0
3DE0
3FE0
3E60
3C00
3C00
3C00
3C00
3C00
3C00
3C00
3C00
FF00
0000
7F00
7F00
ENDCHAR
STARTCHAR uni1E60
ENCODING 7776
SWIDTH 556 0
DWIDTH 13 0
BBX 12 22 1 0
BITMAP
0E00
0E00
0E00
0E00
0000
1FC0
78E0
7060
F060
F000
F800
FE00
7F80
3FC0
0FE0
03F0
01F0
00F0
C0F0
C0E0
E1C0
7F00
ENDCHAR
STARTCHAR uni1E61
ENCODING 7777
SWIDTH 525 0
DWIDTH 13 0
BBX 10 18 1 0
BITMAP
1C00
1C00
1C00
1C00
0000
3F00
7980
F180
F180
F800
FF00
7F80
3FC0
07C0
C3C0
C3C0
E780
7E00
ENDCHAR
STARTCHAR uni1E62
ENCODING 7778
SWIDTH 556 0
DWIDTH 13 0
BBX 12 22 1 -5
BITMAP
1FC0
78E0
7060
F060
F000
F800
FE00
7F80
3FC0
0FE0
03F0
01F0
00F0
C0F0
C0E0
E1C0
7F00
0000
0700
0700
0700
0700
ENDCHAR
STARTCHAR uni1E63
ENCODING 7779
SWIDTH 525 0
DWIDTH 13 0
BBX 10 18 1 -5
BITMAP
3F00
7980
F180
F180
F800
FF00
7F80
3FC0
07C0
C3C0
C3C0
E780
7E00
0000
1C00
1C00
1C00
1C00
ENDCHAR
STARTCHAR uni1E64
ENCODING 7780
SWIDTH 556 0
DWIDTH 13 0
BBX 12 27 1 0
BITMAP
0700
0700
0700
0700
0000
0780
0600
0C00
1800
0000
1FC0
78E0
7060
F060
F000
F800
FE00
7F80
3FC0
0FE0
03F0
01F0
00F0
C0F0
C0E0
E1C0
7F00
ENDCHAR
STARTCHAR uni1E65
ENCODING 7781
SWIDTH 525 0
DWIDTH 13 0
BBX 10 23 1 0
BITMAP
0E00
0E00
0E00
0E00
0000
0780
0600
0C00
1800
0000
3F00
7980
F180
F180
F800
FF00
7F80
3FC0
07C0
C3C0
C3C0
E780
7E00
ENDCHAR
STARTCHAR uni1E66
ENCODING 7782
SWIDTH 556 0
DWIDTH 13 0
BBX 12 27 1 0
BITMAP
0700
0700
0700
0700
0000
30C0
1980
0F00
0F00
0000
1FC0
78E0
7060
F060
F000
F800
FE00
7F80
3FC0
0FE0
03F0
01F0
00F0
C0F0
C0E0
E1C0
7F00
ENDCHAR
STARTCHAR uni1E67
ENCODING 7783
SWIDTH 525 0
DWIDTH 13 0
BBX 10 23 1 0
BITMAP
0E00
0E00
0E00
0E00
0000
6180
3300
1E00
1E00
0000
3F00
7980
F180
F180
F800
FF00
7F80
3FC0
07C0
C3C0
C3C0
E780
7E00
ENDCHAR
STARTCHAR uni1E68
ENCODING 7784
SWIDTH 556 0
DWIDTH 13 0
BBX 12 27 1 -5
BITMAP
0E00
0E00
0E00
0E00
0000
1FC0
78E0
7060
F060
F000
F800
FE00
7F80
3FC0
0FE0
03F0
01F0
00F0
C0F0
C0E0
E1C0
7F00
0000
0700
0700
0700
0700
ENDCHAR
STARTCHAR uni1E69
ENCODING 7785
SWIDTH 525 0
DWIDTH 13 0
BBX 10 23 1 -5
BITMAP
1C00
1C00
1C00
1C00
0000
3F00
7980
F180
F180
F800
FF00
7F80
3FC0
07C0
C3C0
C3C0
E780
7E00
0000
1C00
1C00
1C00
1C00
ENDCHAR
STARTCHAR uni1E6A
ENCODING 7786
SWIDTH 714 0
DWIDTH 17 0
BBX 16 22 1 0
BITMAP
01C0
01C0
01C0
01C0
0000
FFFF
C3C3
C3C3
C3C3
03C0
03C0
03C0
03C0
03C0
03C0
03C0
03C0
03C0
03C0
03C0
03C0
0FF0
ENDCHAR
STARTCHAR uni1E6B
ENCODING 7787
SWIDTH 389 0
DWIDTH 9 0
BBX 9 21 0 0
BITMAP
1C00
1C00
1C00
1C00
0000
1C00
3C00
3C00
FF80
3C00
3C00
3C00
3C00
3C00
3C00
3C00
3C00
3C00
3C00
1F80
0F80
ENDCHAR
STARTCHAR uni1E6C
ENCODING 7788
SWIDTH 714 0
DWIDTH 17 0
BBX 16 22 1 -5
BITMAP
FFFF
C3C3
C3C3
C3C3
03C0
03C0
03C0
03C0
03C0
03C0
03C0
03C0
03C0
03C0
03C0
03C0
0FF0
0000
01C0
01C0
01C0
01C0
ENDCHAR
STARTCHAR uni1E6D
ENCODING 7789
SWIDTH 389 0
DWIDTH 9 0
BBX 9 21 0 -5
BITMAP
1C00
3C00
3C00
FF80
3C00
3C00
3C00
3C00
3C00
3C00
3C00
3C00
3C00
3C00
1F80
0F80
0000
1C00
1C00
1C00
1C00
ENDCHAR
STARTCHAR uni1E6E
ENCODING 7790
SWIDTH 714 0
DWIDTH 17 0
BBX 16 20 1 -3
BITMAP
FFFF
C3C3
C3C3
C3C3
03C0
03C0
03C0
03C0
03C0
03C0
03C0
03C0
03C0
03C0
03C0
03C0
0FF0
0000
07F0
07F0
ENDCHAR
STARTCHAR uni1E6F
ENCODING 7791
SWIDTH 389 0
DWIDTH 9 0
BBX 9 19 0 -3
BITMAP
1C00
3C00
3C00
FF80
3C00
3C00
3C00
3C00
3C00
3C00
3C00
3C00
3C00
3C00
1F80
0F80
0000
7F00
7F00
ENDCHAR
STARTCHAR uni1E70
ENCODING 7792
SWIDTH 714 0
DWIDTH 17 0
BBX 16 22 1 -5
BITMAP
FFFF
C3C3
C3C3
C3C3
03C0
03C0
03C0
03C0
03C0
03C0
03C0
03C0
03C0
03C0
03C0
03C0
0FF0
0000
03C0
03C0
0660
0C30
ENDCHAR
STARTCHAR uni1E71
ENCODING 7793
SWIDTH 389 0
DWIDTH 9 0
BBX 9 21 0 -5
BITMAP
1C00
3C00
3C00
FF80
3C00
3C00
3C00
3C00
3C00
3C00
3C00
3C00
3C00
3C00
1F80
0F80
0000
1E00
1E00
3300
6180
ENDCHAR
STARTCHAR uni1E72
ENCODING 7794
SWIDTH 747 0
DWIDTH 18 0
BBX 18 21 0 -4
BITMAP
FF0FC0
3C0300
3C0300
3C0300
3C0300
3C0300
3C0300
3C0300
3C0300
3C0300
3C0300
3C0300
3C0300
3C0300
1E0600
0F0C00
03F800
000000
063000
063000
063000
ENDCHAR
STARTCHAR uni1E73
ENCODING 7795
SWIDTH 654 0
DWIDTH 16 0
BBX 16 17 0 -4
BITMAP
FCFC
3C3C
3C3C
3C3C
3C3C
3C3C
3C3C
3C3C
3C3C
3C7C
3FBC
1FBE
0E3F
0000
0630
0630
0630
ENDCHAR
STARTCHAR uni1E74
ENCODING 7796
SWIDTH 747 0
DWIDTH 18 0
BBX 18 22 0 -5
BITMAP
FF0FC0
3C0300
3C0300
3C0300
3C0300
3C0300
3C0300
3C0300
3C0300
3C0300
3C0300
3C0300
3C0300
3C0300
1E0600
0F0C00
03F800
000000
038800
07F800
07F800
047000
ENDCHAR
STARTCHAR uni1E75
ENCODING 7797
SWIDTH 654 0
DWIDTH 16 0
BBX 16 18 0 -5
BITMAP
FCFC
3C3C
3C3C
3C3C
3C3C
3C3C
3C3C
3C3C
3C3C
3C7C
3FBC
1FBE
0E3F
0000
0388
07F8
07F8
0470
ENDCHAR
STARTCHAR uni1E76
ENCODING 7798
SWIDTH 747 0
DWIDTH 18 0
BBX 18 22 0 -5
BITMAP
FF0FC0
3C0300
3C0300
3C0300
3C0300
3C0300
3C0300
3C0300
3C0300
3C0300
3C0300
3C0300
3C0300
3C0300
1E0600
0F0C00
03F800
000000
01E000
01E000
033000
061800
ENDCHAR
STARTCHAR uni1E77
ENCODING 7799
SWIDTH 654 0
DWIDTH 16 0
BBX 16 18 0 -5
BITMAP
FCFC
3C3C
3C3C
3C3C
3C3C
3C3C
3C3C
3C3C
3C3C
3C7C
3FBC
1FBE
0E3F
0000
01E0
01E0
0330
0618
ENDCHAR
STARTCHAR uni1E78
ENCODING 7800
SWIDTH 747 0
DWIDTH 18 0
BBX 18 27 0 0
BITMAP
007800
006000
00C000
018000
000000
071000
0FF000
0FF000
08E000
000000
FF0FC0
3C0300
3C0300
3C0300
3C0300
3C0300
3C0300
3C0300
3C0300
3C0300
3C0300
3C0300
3C0300
3C0300
1E0600
0F0C00
03F800
ENDCHAR
STARTCHAR uni1E79
ENCODING 7801
SWIDTH 654 0
DWIDTH 16 0
BBX 16 23 0 0
BITMAP
00F0
00C0
0180
0300
0000
0710
0FF0
0FF0
08E0
0000
FCFC
3C3C
3C3C
3C3C
3C3C
3C3C
3C3C
3C3C
3C3C
3C7C
3FBC
1FBE
0E3F
ENDCHAR
STARTCHAR uni1E7A
ENCODING 7802
SWIDTH 747 0
DWIDTH 18 0
BBX 18 24 0 0
BITMAP
063000
063000
063000
000000
07F000
07F000
000000
FF0FC0
3C0300
3C0300
3C0300
3C0300
3C0300
3C0300
3C0300
3C0300
3C0300
3C0300
3C0300
3C0300
3C0300
1E0600
0F0C00
03F800
ENDCHAR
STARTCHAR uni1E7B
ENCODING 7803
SWIDTH 654 0
DWIDTH 16 0
BBX 16 20 0 0
BITMAP
0C60
0C60
0C60
0000
0FE0
0FE0
0000
FCFC
3C3C
3C3C
3C3C
3C3C
3C3C
3C3C
3C3C
3C3C
3C7C
3FBC
1FBE
0E3F
ENDCHAR
STARTCHAR uni1E7C
ENCODING 7804
SWIDTH 753 0
DWIDTH 18 0
BBX 18 22 0 0
BITMAP
071000
0FF000
0FF000
08E000
000000
FE07C0
7C0100
3C0300
3E0200
1E0200
1F0600
0F0400
0F8C00
078800
078800
07D000
03D000
03E000
01E000
01E000
00C000
00C000
ENDCHAR
STARTCHAR uni1E7D
ENCODING 7805
SWIDTH 657 0
DWIDTH 16 0
BBX 16 18 0 0
BITMAP
0E20
1FE0
1FE0
11C0
0000
FE1F
7C04
3C0C
1E08
1E18
1F10
0F30
0FA0
07E0
07C0
03C0
0380
0180
ENDCHAR
STARTCHAR uni1E7E
ENCODING 7806
SWIDTH 753 0
DWIDTH 18 0
BBX 18 22 0 -5
BITMAP
FE07C0
7C0100
3C0300
3E0200
1E0200
1F0600
0F0400
0F8C00
078800
078800
07D000
03D000
03E000
01E000
01E000
00C000
00C000
000000
01C000
01C000
01C000
01C000
ENDCHAR
STARTCHAR uni1E7F
ENCODING 7807
SWIDTH 657 0
DWIDTH 16 0
BBX 16 18 0 -5
BITMAP
FE1F
7C04
3C0C
1E08
1E18
1F10
0F30
0FA0
07E0
07C0
03C0
0380
0180
0000
0380
0380
0380
0380
ENDCHAR
STARTCHAR Wgrave
ENCODING 7808
SWIDTH 955 0
DWIDTH 23 0
BBX 23 22 0 0
BITMAP
03C000
00C000
006000
003000
000000
FE083E
781C08
7C1C08
3C1C10
3C3E10
3E3E10
1E3E10
1E5F20
1E4F20
0F4F20
0F8FC0
0F87C0
0F87C0
070380
070380
070380
020100
ENDCHAR
STARTCHAR wgrave
ENCODING 7809
SWIDTH 880 0
DWIDTH 21 0
BBX 21 18 0 0
BITMAP
03C000
00C000
006000
003000
000000
FE18F8
783820
7C3C20
3C7C60
3C7C40
1E7E40
1E9E80
1E9F80
0F0F80
0F0F00
0F0F00
060700
060600
ENDCHAR
STARTCHAR Wacute
ENCODING 7810
SWIDTH 955 0
DWIDTH 23 0
BBX 23 22 0 0
BITMAP
003C00
003000
006000
00C000
000000
FE083E
781C08
7C1C08
3C1C10
3C3E10
3E3E10
1E3E10
1E5F20
1E4F20
0F4F20
0F8FC0
0F87C0
0F87C0
070380
070380
070380
020100
ENDCHAR
STARTCHAR wacute
ENCODING 7811
SWIDTH 880 0
DWIDTH 21 0
BBX 21 18 0 0
BITMAP
003C00
003000
006000
00C000
000000
FE18F8
783820
7C3C20
3C7C60
3C7C40
1E7E40
1E9E80
1E9F80
0F0F80
0F0F00
0F0F00
060700
060600
ENDCHAR
STARTCHAR Wdieresis
ENCODING 7812
SWIDTH 955 0
DWIDTH 23 0
BBX 23 21 0 0
BITMAP
018C00
018C00
018C00
000000
FE083E
781C08
7C1C08
3C1C10
3C3E10
3E3E10
1E3E10
1E5F20
1E4F20
0F4F20
0F8FC0
0F87C0
0F87C0
070380
070380
070380
020100
ENDCHAR
STARTCHAR wdieresis
ENCODING 7813
SWIDTH 880 0
DWIDTH 21 0
BBX 21 17 0 0
BITMAP
031800
031800
031800
000000
FE18F8
783820
7C3C20
3C7C60
3C7C40
1E7E40
1E9E80
1E9F80
0F0F80
0F0F00
0F0F00
060700
060600
ENDCHAR
STARTCHAR uni1E86
ENCODING 7814
SWIDTH 955 0
DWIDTH 23 0
BBX 23 22 0 0
BITMAP
007000
007000
007000
007000
000000
FE083E
781C08
7C1C08
3C1C10
3C3E10
3E3E10
1E3E10
1E5F20
1E4F20
0F4F20
0F8FC0
0F87C0
0F87C0
070380
070380
070380
020100
ENDCHAR
STARTCHAR uni1E87
ENCODING 7815
SWIDTH 880 0
DWIDTH 21 0
BBX 21 18 0 0
BITMAP
00E000
00E000
00E000
00E000
000000
FE18F8
783820
7C3C20
3C7C60
3C7C40
1E7E40
1E9E80
1E9F80
0F0F80
0F0F00
0F0F00
060700
060600
ENDCHAR
STARTCHAR uni1E88
ENCODING 7816
SWIDTH 955 0
DWIDTH 23 0
BBX 23 22 0 -5
BITMAP
FE083E
781C08
7C1C08
3C1C10
3C3E10
3E3E10
1E3E10
1E5F20
1E4F20
0F4F20
0F8FC0
0F87C0
0F87C0
070380
070380
070380
020100
000000
003800
003800
003800
003800
ENDCHAR
STARTCHAR uni1E89
ENCODING 7817
SWIDTH 880 0
DWIDTH 21 0
BBX 21 18 0 -5
BITMAP
FE18F8
783820
7C3C20
3C7C60
3C7C40
1E7E40
1E9E80
1E9F80
0F0F80
0F0F00
0F0F00
060700
060600
000000
007000
007000
007000
007000
ENDCHAR
STARTCHAR uni1E8A
ENCODING 7818
SWIDTH 702 0
DWIDTH 17 0
BBX 17 22 0 0
BITMAP
038000
038000
038000
038000
000000
7F0F80
3E0600
3E0400
1F0C00
0F0800
0F9000
07E000
03E000
03E000
07F000
06F000
0EF800
1C7C00
183C00
303E00
701F00
F87F80
ENDCHAR
STARTCHAR uni1E8B
ENCODING 7819
SWIDTH 608 0
DWIDTH 15 0
BBX 15 18 0 0
BITMAP
0700
0700
0700
0700
0000
FF3E
7C18
3E30
1F20
0FC0
0F80
07C0
07E0
05F0
09F0
10F8
307C
F8FE
ENDCHAR
STARTCHAR uni1E8C
ENCODING 7820
SWIDTH 702 0
DWIDTH 17 0
BBX 17 21 0 0
BITMAP
0C6000
0C6000
0C6000
000000
7F0F80
3E0600
3E0400
1F0C00
0F0800
0F9000
07E000
03E000
03E000
07F000
06F000
0EF800
1C7C00
183C00
303E00
701F00
F87F80
ENDCHAR
STARTCHAR uni1E8D
ENCODING 7821
SWIDTH 608 0
DWIDTH 15 0
BBX 15 17 0 0
BITMAP
18C0
18C0
18C0
0000
FF3E
7C18
3E30
1F20
0FC0
0F80
07C0
07E0
05F0
09F0
10F8
307C
F8FE
ENDCHAR
STARTCHAR uni1E8E
ENCODING 7822
SWIDTH 717 0
DWIDTH 17 0
BBX 18 22 0 0
BITMAP
038000
038000
038000
038000
000000
FF07C0
7C0300
3E0200
1F0200
1F0400
0F8800
07C800
07D000
03E000
01E000
01E000
01E000
01E000
01E000
01E000
01E000
07F800
ENDCHAR
STARTCHAR uni1E8F
ENCODING 7823
SWIDTH 654 0
DWIDTH 16 0
BBX 16 23 0 -5
BITMAP
0380
0380
0380
0380
0000
FE1F
7C04
3C0C
3E08
1E18
1F10
0F30
0FA0
07C0
07C0
0380
0380
0300
0100
0200
0600
0C00
3C00
ENDCHAR
STARTCHAR uni1E90
ENCODING 7824
SWIDTH 639 0
DWIDTH 15 0
BBX 13 22 1 0
BITMAP
03C0
03C0
0660
0C30
0000
7FF8
60F8
60F8
01F0
01E0
03E0
07C0
0780
0F80
0F00
1F00
3E00
3C00
7C00
7818
F818
FFF8
ENDCHAR
STARTCHAR uni1E91
ENCODING 7825
SWIDTH 584 0
DWIDTH 14 0
BBX 12 18 1 0
BITMAP
0F00
0F00
1980
30C0
0000
FFF0
C1F0
C3E0
03C0
07C0
0F80
1F00
1F00
3E00
7C00
7C30
F830
FFF0
ENDCHAR
STARTCHAR uni1E92
ENCODING 7826
SWIDTH 639 0
DWIDTH 15 0
BBX 13 22 1 -5
BITMAP
7FF8
60F8
60F8
01F0
01E0
03E0
07C0
0780
0F80
0F00
1F00
3E00
3C00
7C00
7818
F818
FFF8
0000
0E00
0E00
0E00
0E00
ENDCHAR
STARTCHAR uni1E93
ENCODING 7827
SWIDTH 584 0
DWIDTH 14 0
BBX 12 18 1 -5
BITMAP
FFF0
C1F0
C3E0
03C0
07C0
0F80
1F00
1F00
3E00
7C00
7C30
F830
FFF0
0000
0E00
0E00
0E00
0E00
ENDCHAR
STARTCHAR uni1E94
ENCODING 7828
SWIDTH 639 0
DWIDTH 15 0
BBX 13 20 1 -3
BITMAP
7FF8
60F8
60F8
01F0
01E0
03E0
07C0
0780
0F80
0F00
1F00
3E00
3C00
7C00
7818
F818
FFF8
0000
3F80
3F80
ENDCHAR
STARTCHAR uni1E95
ENCODING 7829
SWIDTH 584 0
DWIDTH 14 0
BBX 12 16 1 -3
BITMAP
FFF0
C1F0
C3E0
03C0
07C0
0F80
1F00
1F00
3E00
7C00
7C30
F830
FFF0
0000
3F80
3F80
ENDCHAR
STARTCHAR uni1E96
ENCODING 7830
SWIDTH 654 0
DWIDTH 16 0
BBX 16 21 0 -3
BITMAP
FC00
3C00
3C00
3C00
3C00
3C70
3DF8
3DFC
3E3C
3C3C
3C3C
3C3C
3C3C
3C3C
3C3C
3C3C
3C3C
FFFF
0000
07F0
07F0
ENDCHAR
STARTCHAR uni1E97
ENCODING 7831
SWIDTH 389 0
DWIDTH 9 0
BBX 9 20 0 0
BITMAP
6300
6300
6300
0000
1C00
3C00
3C00
FF80
3C00
3C00
3C00
3C00
3C00
3C00
3C00
3C00
3C00
3C00
1F80
0F80
ENDCHAR
STARTCHAR uni1E98
ENCODING 7832
SWIDTH 880 0
DWIDTH 21 0
BBX 21 18 0 0
BITMAP
006000
009000
009000
006000
000000
FE18F8
783820
7C3C20
3C7C60
3C7C40
1E7E40
1E9E80
1E9F80
0F0F80
0F0F00
0F0F00
060700
060600
ENDCHAR
STARTCHAR uni1E99
ENCODING 7833
SWIDTH 654 0
DWIDTH 16 0
BBX 16 23 0 -5
BITMAP
0300
0480
0480
0300
0000
FE1F
7C04
3C0C
3E08
1E18
1F10
0F30
0FA0
07C0
07C0
0380
0380
0300
0100
0200
0600
0C00
3C00
ENDCHAR
STARTCHAR uni1EA0
ENCODING 7840
SWIDTH 795 0
DWIDTH 19 0
BBX 19 22 0 -5
BITMAP
006000
00E000
00F000
01F000
01F800
017800
027800
027C00
043C00
043E00
081E00
0FFF00
100F00
100780
200780
6003C0
F80FE0
000000
007000
007000
007000
007000
ENDCHAR
STARTCHAR uni1EA1
ENCODING 7841
SWIDTH 556 0
DWIDTH 13 0
BBX 13 18 0 -5
BITMAP
3F80
71C0
61E0
01E0
01E0
3FE0
79E0
F1E0
F1E0
F1E0
F9E0
7FE0
3C78
0000
0700
0700
0700
0700
ENDCHAR
STARTCHAR uni1EA4
ENCODING 7844
SWIDTH 795 0
DWIDTH 19 0
BBX 19 27 0 0
BITMAP
003C00
003000
006000
00C000
000000
00F000
00F000
019800
030C00
000000
006000
00E000
00F000
01F000
01F800
017800
027800
027C00
043C00
043E00
081E00
0FFF00
100F00
100780
200780
6003C0
F80FE0
ENDCHAR
STARTCHAR uni1EA5
ENCODING 7845
SWIDTH 556 0
DWIDTH 13 0
BBX 13 23 0 0
BITMAP
03C0
0300
0600
0C00
0000
0F00
0F00
1980
30C0
0000
3F80
71C0
61E0
01E0
01E0
3FE0
79E0
F1E0
F1E0
F1E0
F9E0
7FE0
3C78
ENDCHAR
STARTCHAR uni1EA6
ENCODING 7846
SWIDTH 795 0
DWIDTH 19 0
BBX 19 27 0 0
BITMAP
03C000
00C000
006000
003000
000000
00F000
00F000
019800
030C00
000000
006000
00E000
00F000
01F000
01F800
017800
027800
027C00
043C00
043E00
081E00
0FFF00
100F00
100780
200780
6003C0
F80FE0
ENDCHAR
STARTCHAR uni1EA7
ENCODING 7847
SWIDTH 556 0
DWIDTH 13 0
BBX 13 23 0 0
BITMAP
3C00
0C00
0600
0300
0000
0F00
0F00
1980
30C0
0000
3F80
71C0
61E0
01E0
01E0
3FE0
79E0
F1E0
F1E0
F1E0
F9E0
7FE0
3C78
ENDCHAR
STARTCHAR uni1EAA
ENCODING 7850
SWIDTH 795 0
DWIDTH 19 0
BBX 19 27 0 0
BITMAP
01C400
03FC00
03FC00
023800
000000
00F000
00F000
019800
030C00
000000
006000
00E000
00F000
01F000
01F800
017800
027800
027C00
043C00
043E00
081E00
0FFF00
100F00
100780
200780
6003C0
F80FE0
ENDCHAR
STARTCHAR uni1EAB
ENCODING 7851
SWIDTH 556 0
DWIDTH 13 0
BBX 13 23 0 0
BITMAP
1C40
3FC0
3FC0
2380
0000
0F00
0F00
1980
30C0
0000
3F80
71C0
61E0
01E0
01E0
3FE0
79E0
F1E0
F1E0
F1E0
F9E0
7FE0
3C78
ENDCHAR
STARTCHAR uni1EAC
ENCODING 7852
SWIDTH 795 0
DWIDTH 19 0
BBX 19 27 0 -5
BITMAP
00F000
00F000
019800
030C00
000000
006000
00E000
00F000
01F000
01F800
017800
027800
027C00
043C00
043E00
081E00
0FFF00
100F00
100780
200780
6003C0
F80FE0
000000
007000
007000
007000
007000
ENDCHAR
STARTCHAR uni1EAD
ENCODING 7853
SWIDTH 556 0
DWIDTH 13 0
BBX 13 23 0 -5
BITMAP
0780
0780
0CC0
1860
0000
3F80
71C0
61E0
01E0
01E0
3FE0
79E0
F1E0
F1E0
F1E0
F9E0
7FE0
3C78
0000
0700
0700
0700
0700
ENDCHAR
STARTCHAR uni1EAE
ENCODING 7854
SWIDTH 795 0
DWIDTH 19 0
BBX 19 27 0 0
BITMAP
003C00
003000
006000
00C000
000000
020400
03FC00
01F800
00F000
000000
006000
00E000
00F000
01F000
01F800
017800
027800
027C00
043C00
043E00
081E00
0FFF00
100F00
100780
200780
6003C0
F80FE0
ENDCHAR
STARTCHAR uni1EAF
ENCODING 7855
SWIDTH 556 0
DWIDTH 13 0
BBX 13 23 0 0
BITMAP
03C0
0300
0600
0C00
0000
2040
3FC0
1F80
0F00
0000
3F80
71C0
61E0
01E0
01E0
3FE0
79E0
F1E0
F1E0
F1E0
F9E0
7FE0
3C78
ENDCHAR
STARTCHAR uni1EB0
ENCODING 7856
SWIDTH 795 0
DWIDTH 19 0
BBX 19 27 0 0
BITMAP
03C000
00C000
006000
003000
000000
020400
03FC00
01F800
00F000
000000
006000
00E000
00F000
01F000
01F800
017800
027800
027C00
043C00
043E00
081E00
0FFF00
100F00
100780
200780
6003C0
F80FE0
ENDCHAR
STARTCHAR uni1EB1
ENCODING 7857
SWIDTH 556 0
DWIDTH 13 0
BBX 13 23 0 0
BITMAP
3C00
0C00
0600
0300
0000
2040
3FC0
1F80
0F00
0000
3F80
71C0
61E0
01E0
01E0
3FE0
79E0
F1E0
F1E0
F1E0
F9E0
7FE0
3C78
ENDCHAR
STARTCHAR uni1EB4
ENCODING 7860
SWIDTH 795 0
DWIDTH 19 0
BBX 19 27 0 0
BITMAP
01C400
03FC00
03FC00
023800
000000
020400
03FC00
01F800
00F000
000000
006000
00E000
00F000
01F000
01F800
017800
027800
027C00
043C00
043E00
081E00
0FFF00
100F00
100780
200780
6003C0
F80FE0
ENDCHAR
STARTCHAR uni1EB5
ENCODING 7861
SWIDTH 556 0
DWIDTH 13 0
BBX 13 23 0 0
BITMAP
1C40
3FC0
3FC0
2380
0000
2040
3FC0
1F80
0F00
0000
3F80
71C0
61E0
01E0
01E0
3FE0
79E0
F1E0
F1E0
F1E0
F9E0
7FE0
3C78
ENDCHAR
STARTCHAR uni1EB6
ENCODING 7862
SWIDTH 795 0
DWIDTH 19 0
BBX 19 27 0 -5
BITMAP
020400
03FC00
01F800
00F000
000000
006000
00E000
00F000
01F000
01F800
017800
027800
027C00
043C00
043E00
081E00
0FFF00
100F00
100780
200780
6003C0
F80FE0
000000
007000
007000
007000
007000
ENDCHAR
STARTCHAR uni1EB7
ENCODING 7863
SWIDTH 556 0
DWIDTH 13 0
BBX 13 23 0 -5
BITMAP
1020
1FE0
0FC0
0780
0000
3F80
71C0
61E0
01E0
01E0
3FE0
79E0
F1E0
F1E0
F1E0
F9E0
7FE0
3C78
0000
0700
0700
0700
0700
ENDCHAR
STARTCHAR uni1EB8
ENCODING 7864
SWIDTH 601 0
DWIDTH 14 0
BBX 13 22 1 -5
BITMAP
FFF8
3C18
3C18
3C00
3C00
3C00
3C00
3C20
3FE0
3C20
3C00
3C00
3C00
3C00
3C18
3C18
FFF8
0000
0700
0700
0700
0700
ENDCHAR
STARTCHAR uni1EB9
ENCODING 7865
SWIDTH 568 0
DWIDTH 14 0
BBX 12 18 1 -5
BITMAP
0F80
39C0
70E0
70F0
F0F0
FFF0
F000
F000
F000
7800
7C10
3FF0
0FE0
0000
0700
0700
0700
0700
ENDCHAR
STARTCHAR uni1EBC
ENCODING 7868
SWIDTH 601 0
DWIDTH 14 0
BBX 13 22 1 0
BITMAP
1C40
3FC0
3FC0
2380
0000
FFF8
3C18
3C18
3C00
3C00
3C00
3C00
3C20
3FE0
3C20
3C00
3C00
3C00
3C00
3C18
3C18
FFF8
ENDCHAR
STARTCHAR uni1EBD
ENCODING 7869
SWIDTH 568 0
DWIDTH 14 0
BBX 12 18 1 0
BITMAP
1C40
3FC0
3FC0
2380
0000
0F80
39C0
70E0
70F0
F0F0
FFF0
F000
F000
F000
7800
7C10
3FF0
0FE0
ENDCHAR
STARTCHAR uni1EBE
ENCODING 7870
SWIDTH 601 0
DWIDTH 14 0
BBX 13 27 1 0
BITMAP
01E0
0180
0300
0600
0000
0780
0780
0CC0
1860
0000
FFF8
3C18
3C18
3C00
3C00
3C00
3C00
3C20
3FE0
3C20
3C00
3C00
3C00
3C00
3C18
3C18
FFF8
ENDCHAR
STARTCHAR uni1EBF
ENCODING 7871
SWIDTH 568 0
DWIDTH 14 0
BBX 12 23 1 0
BITMAP
03C0
0300
0600
0C00
0000
0F00
0F00
1980
30C0
0000
0F80
39C0
70E0
70F0
F0F0
FFF0
F000
F000
F000
7800
7C10
3FF0
0FE0
ENDCHAR
STARTCHAR uni1EC0
ENCODING 7872
SWIDTH 601 0
DWIDTH 14 0
BBX 13 27 1 0
BITMAP
1E00
0600
0300
0180
0000
0780
0780
0CC0
1860
0000
FFF8
3C18
3C18
3C00
3C00
3C00
3C00
3C20
3FE0
3C20
3C00
3C00
3C00
3C00
3C18
3C18
FFF8
ENDCHAR
STARTCHAR uni1EC1
ENCODING 7873
SWIDTH 568 0
DWIDTH 14 0
BBX 12 23 1 0
BITMAP
3C00
0C00
0600
0300
0000
0F00
0F00
1980
30C0
0000
0F80
39C0
70E0
70F0
F0F0
FFF0
F000
F000
F000
7800
7C10
3FF0
0FE0
ENDCHAR
STARTCHAR uni1EC4
ENCODING 7876
SWIDTH 601 0
DWIDTH 14 0
BBX 13 27 1 0
BITMAP
0E20
1FE0
1FE0
11C0
0000
0780
0780
0CC0
1860
0000
FFF8
3C18
3C18
3C00
3C00
3C00
3C00
3C20
3FE0
3C20
3C00
3C00
3C00
3C00
3C18
3C18
FFF8
ENDCHAR
STARTCHAR uni1EC5
ENCODING 7877
SWIDTH 568 0
DWIDTH 14 0
BBX 12 23 1 0
BITMAP
1C40
3FC0
3FC0
2380
0000
0F00
0F00
1980
30C0
0000
0F80
39C0
70E0
70F0
F0F0
FFF0
F000
F000
F000
7800
7C10
3FF0
0FE0
ENDCHAR
STARTCHAR uni1EC6
ENCODING 7878
SWIDTH 601 0
DWIDTH 14 0
BBX 13 27 1 -5
BITMAP
0F00
0F00
1980
30C0
0000
FFF8
3C18
3C18
3C00
3C00
3C00
3C00
3C20
3FE0
3C20
3C00
3C00
3C00
3C00
3C18
3C18
FFF8
0000
0700
0700
0700
0700
ENDCHAR
STARTCHAR uni1EC7
ENCODING 7879
SWIDTH 568 0
DWIDTH 14 0
BBX 12 23 1 -5
BITMAP
0F00
0F00
1980
30C0
0000
0F80
39C0
70E0
70F0
F0F0
FFF0
F000
F000
F000
7800
7C10
3FF0
0FE0
0000
0700
0700
0700
0700
ENDCHAR
STARTCHAR uni1ECA
ENCODING 7882
SWIDTH 349 0
DWIDTH 8 0
BBX 8 22 0 -5
BITMAP
FF
3C
3C
3C
3C
3C
3C
3C
3C
3C
3C
3C
3C
3C
3C
3C
FF
00
1C
1C
1C
1C
ENDCHAR
STARTCHAR uni1ECB
ENCODING 7883
SWIDTH 325 0
DWIDTH 8 0
BBX 8 23 0 -5
BITMAP
3C
3C
3C
3C
00
FC
3C
3C
3C
3C
3C
3C
3C
3C
3C
3C
3C
FF
00
1C
1C
1C
1C
ENDCHAR
STARTCHAR uni1ECC
ENCODING 7884
SWIDTH 810 0
DWIDTH 19 0
BBX 18 22 1 -5
BITMAP
07F800
1E1E00
3C0F00
780780
780780
F003C0
F003C0
F003C0
F003C0
F003C0
F003C0
F003C0
780780
780780
3C0F00
1E1E00
03F000
000000
00E000
00E000
00E000
00E000
ENDCHAR
STARTCHAR uni1ECD
ENCODING 7885
SWIDTH 617 0
DWIDTH 15 0
BBX 13 18 1 -5
BITMAP
0F80
38E0
78F0
7070
F078
F078
F078
F078
F078
7070
78F0
38E0
0F80
0000
0700
0700
0700
0700
ENDCHAR
STARTCHAR uni1ED0
ENCODING 7888
SWIDTH 810 0
DWIDTH 19 0
BBX 18 27 1 0
BITMAP
007800
006000
00C000
018000
000000
01E000
01E000
033000
061800
000000
07F800
1E1E00
3C0F00
780780
780780
F003C0
F003C0
F003C0
F003C0
F003C0
F003C0
F003C0
780780
780780
3C0F00
1E1E00
03F000
ENDCHAR
STARTCHAR uni1ED1
ENCODING 7889
SWIDTH 617 0
DWIDTH 15 0
BBX 13 23 1 0
BITMAP
03C0
0300
0600
0C00
0000
0F00
0F00
1980
30C0
0000
0F80
38E0
78F0
7070
F078
F078
F078
F078
F078
7070
78F0
38E0
0F80
ENDCHAR
STARTCHAR uni1ED2
ENCODING 7890
SWIDTH 810 0
DWIDTH 19 0
BBX 18 27 1 0
BITMAP
078000
018000
00C000
006000
000000
01E000
01E000
033000
061800
000000
07F800
1E1E00
3C0F00
780780
780780
F003C0
F003C0
F003C0
F003C0
F003C0
F003C0
F003C0
780780
780780
3C0F00
1E1E00
03F000
ENDCHAR
STARTCHAR uni1ED3
ENCODING 7891
SWIDTH 617 0
DWIDTH 15 0
BBX 13 23 1 0
BITMAP
3C00
0C00
0600
0300
0000
0F00
0F00
1980
30C0
0000
0F80
38E0
78F0
7070
F078
F078
F078
F078
F078
7070
78F0
38E0
0F80
ENDCHAR
STARTCHAR uni1ED6
ENCODING 7894
SWIDTH 810 0
DWIDTH 19 0
BBX 18 27 1 0
BITMAP
038800
07F800
07F800
047000
000000
01E000
01E000
033000
061800
000000
07F800
1E1E00
3C0F00
780780
780780
F003C0
F003C0
F003C0
F003C0
F003C0
F003C0
F003C0
780780
780780
3C0F00
1E1E00
03F000
ENDCHAR
STARTCHAR uni1ED7
ENCODING 7895
SWIDTH 617 0
DWIDTH 15 0
BBX 13 23 1 0
BITMAP
1C40
3FC0
3FC0
2380
0000
0F00
0F00
1980
30C0
0000
0F80
38E0
78F0
7070
F078
F078
F078
F078
F078
7070
78F0
38E0
0F80
ENDCHAR
STARTCHAR uni1ED8
ENCODING 7896
SWIDTH 810 0
DWIDTH 19 0
BBX 18 27 1 -5
BITMAP
01E000
01E000
033000
061800
000000
07F800
1E1E00
3C0F00
780780
780780
F003C0
F003C0
F003C0
F003C0
F003C0
F003C0
F003C0
780780
780780
3C0F00
1E1E00
03F000
000000
00E000
00E000
00E000
00E000
ENDCHAR
STARTCHAR uni1ED9
ENCODING 7897
SWIDTH 617 0
DWIDTH 15 0
BBX 13 23 1 -5
BITMAP
0780
0780
0CC0
1860
0000
0F80
38E0
78F0
7070
F078
F078
F078
F078
F078
7070
78F0
38E0
0F80
0000
0700
0700
0700
0700
ENDCHAR
STARTCHAR uni1EDA
ENCODING 7898
SWIDTH 810 0
DWIDTH 19 0
BBX 20 22 1 0
BITMAP
001E00
001800
003000
006000
000000
07F8F0
1E1EF0
3C0FF0
7807F0
7807F0
F003F0
F003E0
F003C0
F003C0
F003C0
F003C0
F003C0
780780
780780
3C0F00
1E1E00
03F000
ENDCHAR
STARTCHAR uni1EDB
ENCODING 7899
SWIDTH 617 0
DWIDTH 15 0
BBX 16 18 1 0
BITMAP
0078
0060
00C0
0180
0000
0F8F
38EF
78FF
707F
F07F
F07F
F07E
F078
F078
7070
78F0
38E0
0F80
ENDCHAR
STARTCHAR uni1EDC
ENCODING 7900
SWIDTH 810 0
DWIDTH 19 0
BBX 20 22 1 0
BITMAP
01E000
006000
003000
001800
000000
07F8F0
1E1EF0
3C0FF0
7807F0
7807F0
F003F0
F003E0
F003C0
F003C0
F003C0
F003C0
F003C0
780780
780780
3C0F00
1E1E00
03F000
ENDCHAR
STARTCHAR uni1EDD
ENCODING 7901
SWIDTH 617 0
DWIDTH 15 0
BBX 16 18 1 0
BITMAP
0780
0180
00C0
0060
0000
0F8F
38EF
78FF
707F
F07F
F07F
F07E
F078
F078
7070
78F0
38E0
0F80
ENDCHAR
STARTCHAR uni1EE0
ENCODING 7904
SWIDTH 810 0
DWIDTH 19 0
BBX 20 22 1 0
BITMAP
00E200
01FE00
01FE00
011C00
000000
07F8F0
1E1EF0
3C0FF0
7807F0
7807F0
F003F0
F003E0
F003C0
F003C0
F003C0
F003C0
F003C0
780780
780780
3C0F00
1E1E00
03F000
ENDCHAR
STARTCHAR uni1EE1
ENCODING 7905
SWIDTH 617 0
DWIDTH 15 0
BBX 16 18 1 0
BITMAP
0388
07F8
07F8
0470
0000
0F8F
38EF
78FF
707F
F07F
F07F
F07E
F078
F078
7070
78F0
38E0
0F80
ENDCHAR
STARTCHAR uni1EE2
ENCODING 7906
SWIDTH 810 0
DWIDTH 19 0
BBX 20 22 1 -5
BITMAP
07F8F0
1E1EF0
3C0FF0
7807F0
7807F0
F003F0
F003E0
F003C0
F003C0
F003C0
F003C0
F003C0
780780
780780
3C0F00
1E1E00
03F000
000000
00E000
00E000
00E000
00E000
ENDCHAR
STARTCHAR uni1EE3
ENCODING 7907
SWIDTH 617 0
DWIDTH 15 0
BBX 16 18 1 -5
BITMAP
0F8F
38EF
78FF
707F
F07F
F07F
F07E
F078
F078
7070
78F0
38E0
0F80
0000
0380
0380
0380
0380
ENDCHAR
STARTCHAR uni1EE4
ENCODING 7908
SWIDTH 747 0
DWIDTH 18 0
BBX 18 22 0 -5
BITMAP
FF0FC0
3C0300
3C0300
3C0300
3C0300
3C0300
3C0300
3C0300
3C0300
3C0300
3C0300
3C0300
3C0300
3C0300
1E0600
0F0C00
03F800
000000
01C000
01C000
01C000
01C000
ENDCHAR
STARTCHAR uni1EE5
ENCODING 7909
SWIDTH 654 0
DWIDTH 16 0
BBX 16 18 0 -5
BITMAP
FCFC
3C3C
3C3C
3C3C
3C3C
3C3C
3C3C
3C3C
3C3C
3C7C
3FBC
1FBE
0E3F
0000
01C0
01C0
01C0
01C0
ENDCHAR
STARTCHAR uni1EE8
ENCODING 7912
SWIDTH 747 0
DWIDTH 18 0
BBX 20 22 0 0
BITMAP
001E00
001800
003000
006000
000000
FF0FF0
3C03F0
3C03F0
3C03F0
3C0370
3C0370
3C03E0
3C0300
3C0300
3C0300
3C0300
3C0300
3C0300
3C0300
1E0600
0F0C00
03F800
ENDCHAR
STARTCHAR uni1EE9
ENCODING 7913
SWIDTH 654 0
DWIDTH 16 0
BBX 19 18 0 0
BITMAP
003C00
003000
006000
00C000
000000
FCFDE0
3C3DE0
3C3DE0
3C3DE0
3C3CE0
3C3CE0
3C3DC0
3C3C00
3C3C00
3C7C00
3FBC00
1FBE00
0E3F00
ENDCHAR
STARTCHAR uni1EEA
ENCODING 7914
SWIDTH 747 0
DWIDTH 18 0
BBX 20 22 0 0
BITMAP
01E000
006000
003000
001800
000000
FF0FF0
3C03F0
3C03F0
3C03F0
3C0370
3C0370
3C03E0
3C0300
3C0300
3C0300
3C0300
3C0300
3C0300
3C0300
1E0600
0F0C00
03F800
ENDCHAR
STARTCHAR uni1EEB
ENCODING 7915
SWIDTH 654 0
DWIDTH 16 0
BBX 19 18 0 0
BITMAP
03C000
00C000
006000
003000
000000
FCFDE0
3C3DE0
3C3DE0
3C3DE0
3C3CE0
3C3CE0
3C3DC0
3C3C00
3C3C00
3C7C00
3FBC00
1FBE00
0E3F00
ENDCHAR
STARTCHAR uni1EEE
ENCODING 7918
SWIDTH 747 0
DWIDTH 18 0
BBX 20 22 0 0
BITMAP
00E200
01FE00
01FE00
011C00
000000
FF0FF0
3C03F0
3C03F0
3C03F0
3C0370
3C0370
3C03E0
3C0300
3C0300
3C0300
3C0300
3C0300
3C0300
3C0300
1E0600
0F0C00
03F800
ENDCHAR
STARTCHAR uni1EEF
ENCODING 7919
SWIDTH 654 0
DWIDTH 16 0
BBX 19 18 0 0
BITMAP
01C400
03FC00
03FC00
023800
000000
FCFDE0
3C3DE0
3C3DE0
3C3DE0
3C3CE0
3C3CE0
3C3DC0
3C3C00
3C3C00
3C7C00
3FBC00
1FBE00
0E3F00
ENDCHAR
STARTCHAR uni1EF0
ENCODING 7920
SWIDTH 747 0
DWIDTH 18 0
BBX 20 22 0 -5
BITMAP
FF0FF0
3C03F0
3C03F0
3C03F0
3C0370
3C0370
3C03E0
3C0300
3C0300
3C0300
3C0300
3C0300
3C0300
3C0300
1E0600
0F0C00
03F800
000000
01C000
01C000
01C000
01C000
ENDCHAR
STARTCHAR uni1EF1
ENCODING 7921
SWIDTH 654 0
DWIDTH 16 0
BBX 19 18 0 -5
BITMAP
FCFDE0
3C3DE0
3C3DE0
3C3DE0
3C3CE0
3C3CE0
3C3DC0
3C3C00
3C3C00
3C7C00
3FBC00
1FBE00
0E3F00
000000
00E000
00E000
00E000
00E000
ENDCHAR
STARTCHAR Ygrave
ENCODING 7922
SWIDTH 717 0
DWIDTH 17 0
BBX 18 22 0 0
BITMAP
0F0000
030000
018000
00C000
000000
FF07C0
7C0300
3E0200
1F0200
1F0400
0F8800
07C800
07D000
03E000
01E000
01E000
01E000
01E000
01E000
01E000
01E000
07F800
ENDCHAR
STARTCHAR ygrave
ENCODING 7923
SWIDTH 654 0
DWIDTH 16 0
BBX 16 23 0 -5
BITMAP
1E00
0600
0300
0180
0000
FE1F
7C04
3C0C
3E08
1E18
1F10
0F30
0FA0
07C0
07C0
0380
0380
0300
0100
0200
0600
0C00
3C00
ENDCHAR
STARTCHAR uni1EF4
ENCODING 7924
SWIDTH 717 0
DWIDTH 17 0
BBX 18 22 0 -5
BITMAP
FF07C0
7C0300
3E0200
1F0200
1F0400
0F8800
07C800
07D000
03E000
01E000
01E000
01E000
01E000
01E000
01E000
01E000
07F800
000000
00E000
00E000
00E000
00E000
ENDCHAR
STARTCHAR uni1EF5
ENCODING 7925
SWIDTH 654 0
DWIDTH 16 0
BBX 16 23 0 -10
BITMAP
FE1F
7C04
3C0C
3E08
1E18
1F10
0F30
0FA0
07C0
07C0
0380
0380
0300
0100
0200
0600
0C00
3C00
0000
0700
0700
0700
0700
ENDCHAR
STARTCHAR uni1EF8
ENCODING 7928
SWIDTH 717 0
DWIDTH 17 0
BBX 18 22 0 0
BITMAP
071000
0FF000
0FF000
08E000
000000
FF07C0
7C0300
3E0200
1F0200
1F0400
0F8800
07C800
07D000
03E000
01E000
01E000
01E000
01E000
01E000
01E000
01E000
07F800
ENDCHAR
STARTCHAR uni1EF9
ENCODING 7929
SWIDTH 654 0
DWIDTH 16 0
BBX 16 23 0 -5
BITMAP
0E20
1FE0
1FE0
11C0
0000
FE1F
7C04
3C0C
3E08
1E18
1F10
0F30
0FA0
07C0
07C0
0380
0380
0300
0100
0200
0600
0C00
3C00
ENDCHAR
STARTCHAR uni2000
ENCODING 8192
SWIDTH 500 0
DWIDTH 13 0
BBX 1 1 0 0
BITMAP
00
ENDCHAR
STARTCHAR uni2001
ENCODING 8193
SWIDTH 1000 0
DWIDTH 25 0
BBX 1 1 0 0
BITMAP
00
ENDCHAR
STARTCHAR uni2002
ENCODING 8194
SWIDTH 500 0
DWIDTH 13 0
BBX 1 1 0 0
BITMAP
00
ENDCHAR
STARTCHAR uni2003
ENCODING 8195
SWIDTH 1000 0
DWIDTH 25 0
BBX 1 1 0 0
BITMAP
00
ENDCHAR
STARTCHAR uni2004
ENCODING 8196
SWIDTH 333 0
DWIDTH 8 0
BBX 1 1 0 0
BITMAP
00
ENDCHAR
STARTCHAR uni2005
ENCODING 8197
SWIDTH 250 0
DWIDTH 6 0
BBX 1 1 0 0
BITMAP
00
ENDCHAR
STARTCHAR uni2006
ENCODING 8198
SWIDTH 167 0
DWIDTH 4 0
BBX 1 1 0 0
BITMAP
00
ENDCHAR
STARTCHAR uni2007
ENCODING 8199
SWIDTH 623 0
DWIDTH 15 0
BBX 1 1 0 0
BITMAP
00
ENDCHAR
STARTCHAR uni2008
ENCODING 8200
SWIDTH 265 0
DWIDTH 6 0
BBX 1 1 0 0
BITMAP
00
ENDCHAR
STARTCHAR uni2009
ENCODING 8201
SWIDTH 200 0
DWIDTH 5 0
BBX 1 1 0 0
BITMAP
00
ENDCHAR
STARTCHAR uni200A
ENCODING 8202
SWIDTH 100 0
DWIDTH 3 0
BBX 1 1 0 0
BITMAP
00
ENDCHAR
STARTCHAR uni200B
ENCODING 8203
SWIDTH 0 0
DWIDTH 0 0
BBX 1 1 0 0
BITMAP
00
ENDCHAR
STARTCHAR uni2010
ENCODING 8208
SWIDTH 289 0
DWIDTH 7 0
BBX 5 3 1 6
BITMAP
F8
F8
F8
ENDCHAR
STARTCHAR uni2011
ENCODING 8209
SWIDTH 289 0
DWIDTH 7 0
BBX 5 3 1 6
BITMAP
F8
F8
F8
ENDCHAR
STARTCHAR figuredash
ENCODING 8210
SWIDTH 500 0
DWIDTH 12 0
BBX 11 2 1 7
BITMAP
FFE0
FFE0
ENDCHAR
STARTCHAR endash
ENCODING 8211
SWIDTH 500 0
DWIDTH 12 0
BBX 11 2 1 7
BITMAP
FFE0
FFE0
ENDCHAR
STARTCHAR emdash
ENCODING 8212
SWIDTH 1000 0
DWIDTH 24 0
BBX 22 2 1 6
BITMAP
FFFFFC
FFFFFC
ENDCHAR
STARTCHAR afii00208
ENCODING 8213
SWIDTH 1000 0
DWIDTH 24 0
BBX 22 2 1 6
BITMAP
FFFFFC
FFFFFC
ENDCHAR
STARTCHAR quoteleft
ENCODING 8216
SWIDTH 265 0
DWIDTH 6 0
BBX 4 7 1 11
BITMAP
70
E0
E0
F0
F0
F0
F0
ENDCHAR
STARTCHAR quoteright
ENCODING 8217
SWIDTH 265 0
DWIDTH 6 0
BBX 4 7 1 11
BITMAP
F0
F0
F0
F0
70
70
E0
ENDCHAR
STARTCHAR quotesinglbase
ENCODING 8218
SWIDTH 265 0
DWIDTH 6 0
BBX 4 8 1 -4
BITMAP
F0
F0
F0
F0
70
70
60
C0
ENDCHAR
STARTCHAR quotereversed
ENCODING 8219
SWIDTH 265 0
DWIDTH 6 0
BBX 4 7 1 11
BITMAP
F0
F0
F0
F0
E0
E0
70
ENDCHAR
STARTCHAR quotedblleft
ENCODING 8220
SWIDTH 470 0
DWIDTH 11 0
BBX 9 7 1 11
BITMAP
3180
6300
E700
F780
F780
F780
F780
ENDCHAR
STARTCHAR quotedblright
ENCODING 8221
SWIDTH 470 0
DWIDTH 11 0
BBX 9 7 1 11
BITMAP
F780
F780
F780
F780
7380
6300
C600
ENDCHAR
STARTCHAR quotedblbase
ENCODING 8222
SWIDTH 470 0
DWIDTH 11 0
BBX 9 8 1 -4
BITMAP
F780
F780
F780
F780
7380
7380
6300
C600
ENDCHAR
STARTCHAR uni201F
ENCODING 8223
SWIDTH 470 0
DWIDTH 11 0
BBX 9 7 1 11
BITMAP
F780
F780
F780
F780
E700
6300
3180
ENDCHAR
STARTCHAR dagger
ENCODING 8224
SWIDTH 623 0
DWIDTH 15 0
BBX 12 21 1 -4
BITMAP
0F00
0F00
0F00
0F00
0F00
0F00
CF30
FFF0
CF30
0F00
0F00
0F00
0F00
0F00
0F00
0F00
0F00
0F00
0F00
0F00
0F00
ENDCHAR
STARTCHAR daggerdbl
ENCODING 8225
SWIDTH 623 0
DWIDTH 15 0
BBX 12 21 1 -4
BITMAP
0F00
0F00
0F00
0F00
0F00
CF30
FFF0
CF30
0F00
0F00
0F00
0F00
CF30
FFF0
CF30
0F00
0F00
0F00
0F00
0F00
0F00
ENDCHAR
STARTCHAR bullet
ENCODING 8226
SWIDTH 623 0
DWIDTH 15 0
BBX 8 8 3 4
BITMAP
3C
7E
FF
FF
FF
FF
7E
3C
ENDCHAR
STARTCHAR ellipsis
ENCODING 8230
SWIDTH 1000 0
DWIDTH 24 0
BBX 19 3 3 0
BITMAP
E0E0E0
E0E0E0
E0E0E0
ENDCHAR
STARTCHAR perthousand
ENCODING 8240
SWIDTH 1139 0
DWIDTH 27 0
BBX 29 17 0 0
BITMAP
3E00E000
6301C000
E3838000
E3870000
E38E0000
E39C0000
E3B80000
63700000
3EE00000
01CF83E0
0398C630
0738EE38
0E38EE38
1C38EE38
3838EE38
7018C630
E00F83E0
ENDCHAR
STARTCHAR guilsinglleft
ENCODING 8249
SWIDTH 337 0
DWIDTH 8 0
BBX 6 11 1 1
BITMAP
04
0C
18
38
70
E0
70
38
18
0C
04
ENDCHAR
STARTCHAR guilsinglright
ENCODING 8250
SWIDTH 337 0
DWIDTH 8 0
BBX 6 11 1 1
BITMAP
80
C0
60
70
38
1C
38
70
60
C0
80
ENDCHAR
STARTCHAR fraction
ENCODING 8260
SWIDTH 55 0
DWIDTH 1 0
BBX 18 17 -5 0
BITMAP
0007C0
000700
000F00
001E00
003C00
007800
007000
00F000
01E000
03C000
038000
078000
0F0000
1E0000
3C0000
380000
F80000
ENDCHAR
STARTCHAR oneinferior
ENCODING 8321
SWIDTH 374 0
DWIDTH 9 0
BBX 6 10 -15 -5
BITMAP
F0
30
30
30
30
30
30
30
30
FC
ENDCHAR
STARTCHAR twoinferior
ENCODING 8322
SWIDTH 374 0
DWIDTH 9 0
BBX 7 10 -14 -5
BITMAP
FC
CE
86
06
0C
18
30
40
FE
FE
ENDCHAR
STARTCHAR threeinferior
ENCODING 8323
SWIDTH 374 0
DWIDTH 9 0
BBX 7 10 -14 -5
BITMAP
FC
8E
86
04
78
0C
06
86
8E
F8
ENDCHAR
STARTCHAR uni20A5
ENCODING 8357
SWIDTH 967 0
DWIDTH 23 0
BBX 24 22 0 -4
BITMAP
000060
0000C0
0000C0
000180
000180
FCF3F0
3DFBF8
3FFFFC
3E3E3C
3C3C3C
3C3C3C
3C3C3C
3C3C3C
3C3C3C
3C3C3C
3C7C3C
3C7C3C
FFFFFF
00C000
018000
018000
030000
ENDCHAR
STARTCHAR uni20A6
ENCODING 8358
SWIDTH 788 0
DWIDTH 19 0
BBX 18 17 0 0
BITMAP
F80FC0
3C0300
3E0300
3F0300
3F0300
3FFF00
3FFF00
33E300
33E300
3FFF00
3FFF00
307F00
307F00
303F00
301F00
300F00
FC0F00
ENDCHAR
STARTCHAR uni20A9
ENCODING 8361
SWIDTH 955 0
DWIDTH 23 0
BBX 23 17 0 0
BITMAP
FE083E
781C08
7C1C08
3C1C10
3C3E10
3FFFF0
1FFFF0
1E5F20
1E4F20
0FFFE0
0FFFE0
0F87C0
0F87C0
070380
070380
070380
020100
ENDCHAR
STARTCHAR Euro
ENCODING 8364
SWIDTH 711 0
DWIDTH 17 0
BBX 19 17 -3 0
BITMAP
003FC0
01E0E0
03C060
078060
078000
FFFC00
FFFC00
0F0000
0F0000
FFFC00
FFFC00
0F8000
078000
07C000
03E060
01FFE0
003F80
ENDCHAR
STARTCHAR uni20AD
ENCODING 8365
SWIDTH 747 0
DWIDTH 18 0
BBX 17 17 1 0
BITMAP
FF1F00
3C0C00
3C1800
3C3000
3C6000
3C4000
3C8000
FFFF80
FFFF80
3FE000
3DF000
3CF800
3CF800
3C7C00
3C3E00
3C1F00
FF3F80
ENDCHAR
STARTCHAR uni2103
ENCODING 8451
SWIDTH 957 0
DWIDTH 23 0
BBX 21 17 1 0
BITMAP
600FF0
907838
90F018
61E018
01E000
03C000
03C000
03C000
03C000
03C000
03C000
03E000
01E000
01F000
00F818
007FF8
000FE0
ENDCHAR
STARTCHAR uni2109
ENCODING 8457
SWIDTH 830 0
DWIDTH 20 0
BBX 18 17 1 0
BITMAP
67FFC0
91E0C0
91E0C0
61E000
01E000
01E000
01E000
01E100
01FF00
01E100
01E000
01E000
01E000
01E000
01E000
01E000
07F800
ENDCHAR
STARTCHAR trademark
ENCODING 8482
SWIDTH 1044 0
DWIDTH 25 0
BBX 24 9 0 8
BITMAP
FFCF0F
8E479E
8E479E
8E47FE
0E07EE
0E06EE
0E06EE
0E064E
1F0E0F
ENDCHAR
STARTCHAR uni212A
ENCODING 8490
SWIDTH 747 0
DWIDTH 18 0
BBX 17 17 1 0
BITMAP
FF1F00
3C0C00
3C1800
3C3000
3C6000
3C4000
3C8000
3DC000
3FC000
3FE000
3DF000
3CF800
3CF800
3C7C00
3C3E00
3C1F00
FF3F80
ENDCHAR
STARTCHAR uni212B
ENCODING 8491
SWIDTH 795 0
DWIDTH 19 0
BBX 19 22 0 0
BITMAP
006000
009000
009000
006000
000000
006000
00E000
00F000
01F000
01F800
017800
027800
027C00
043C00
043E00
081E00
0FFF00
100F00
100780
200780
6003C0
F80FE0
ENDCHAR
STARTCHAR uni2132
ENCODING 8498
SWIDTH 584 0
DWIDTH 14 0
BBX 13 17 0 0
BITMAP
07F8
01E0
01E0
01E0
01E0
01E0
01E0
21E0
3FE0
21E0
01E0
01E0
01E0
01E0
C1E0
C1E0
FFF8
ENDCHAR
STARTCHAR universal
ENCODING 8704
SWIDTH 795 0
DWIDTH 19 0
BBX 19 17 0 0
BITMAP
F80FE0
6003C0
200780
100780
100F00
0FFF00
081E00
043E00
043C00
027C00
027800
017800
01F800
01F000
00F000
00E000
006000
ENDCHAR
STARTCHAR existential
ENCODING 8707
SWIDTH 601 0
DWIDTH 14 0
BBX 13 17 1 0
BITMAP
FFF8
C1E0
C1E0
01E0
01E0
01E0
01E0
21E0
3FE0
21E0
01E0
01E0
01E0
01E0
C1E0
C1E0
FFF8
ENDCHAR
STARTCHAR uni2204
ENCODING 8708
SWIDTH 601 0
DWIDTH 14 0
BBX 13 22 1 -2
BITMAP
0018
0030
0030
FFF8
C1E0
C1E0
01E0
01E0
01E0
03E0
23E0
3FE0
27E0
0DE0
0DE0
19E0
19E0
F1E0
F1E0
FFF8
6000
C000
ENDCHAR
STARTCHAR minus
ENCODING 8722
SWIDTH 623 0
DWIDTH 15 0
BBX 14 2 1 6
BITMAP
FFFC
FFFC
ENDCHAR
STARTCHAR fraction
ENCODING 8725
SWIDTH 55 0
DWIDTH 1 0
BBX 18 17 -5 0
BITMAP
0007C0
000700
000F00
001E00
003C00
007800
007000
00F000
01E000
03C000
038000
078000
0F0000
1E0000
3C0000
380000
F80000
ENDCHAR
STARTCHAR periodcentered
ENCODING 8729
SWIDTH 623 0
DWIDTH 15 0
BBX 3 4 6 5
BITMAP
E0
E0
E0
E0
ENDCHAR
STARTCHAR uni2236
ENCODING 8758
SWIDTH 265 0
DWIDTH 6 0
BBX 4 13 1 0
BITMAP
F0
F0
F0
F0
00
00
00
00
00
F0
F0
F0
F0
ENDCHAR
STARTCHAR uni2259
ENCODING 8793
SWIDTH 623 0
DWIDTH 15 0
BBX 14 11 1 4
BITMAP
0780
0780
0CC0
1860
0000
FFFC
FFFC
0000
0000
FFFC
FFFC
ENDCHAR
STARTCHAR uni225A
ENCODING 8794
SWIDTH 623 0
DWIDTH 15 0
BBX 14 11 1 4
BITMAP
1860
0CC0
0780
0780
0000
FFFC
FFFC
0000
0000
FFFC
FFFC
ENDCHAR
STARTCHAR notequal
ENCODING 8800
SWIDTH 623 0
DWIDTH 15 0
BBX 14 22 1 -4
BITMAP
000C
0018
0018
0030
0030
0060
0060
00C0
FFFC
FFFC
0180
0300
FFFC
FFFC
0600
0C00
0C00
1800
1800
3000
3000
6000
ENDCHAR
STARTCHAR equivalence
ENCODING 8801
SWIDTH 623 0
DWIDTH 15 0
BBX 14 8 0 3
BITMAP
FFFC
FFFC
0000
FFFC
FFFC
0000
FFFC
FFFC
ENDCHAR
STARTCHAR uni2262
ENCODING 8802
SWIDTH 623 0
DWIDTH 15 0
BBX 14 22 0 -4
BITMAP
000C
0018
0018
0030
0030
0060
0060
FFFC
FFFC
0180
FFFC
FFFC
0300
FFFC
FFFC
0C00
0C00
1800
1800
3000
3000
6000
ENDCHAR
STARTCHAR lessequal
ENCODING 8804
SWIDTH 623 0
DWIDTH 15 0
BBX 14 17 1 -3
BITMAP
0004
001C
0078
01E0
0780
1E00
F800
7800
1E00
0780
01E0
0078
001C
0004
0000
FFFC
FFFC
ENDCHAR
STARTCHAR greaterequal
ENCODING 8805
SWIDTH 623 0
DWIDTH 15 0
BBX 14 17 1 -3
BITMAP
8000
E000
7800
1E00
0780
01E0
0078
007C
01E0
0780
1E00
7800
E000
8000
0000
FFFC
FFFC
ENDCHAR
STARTCHAR uni226E
ENCODING 8814
SWIDTH 623 0
DWIDTH 15 0
BBX 14 22 1 -4
BITMAP
000C
0018
0018
0030
0034
007C
0078
01E0
07C0
1F80
F980
7B00
1F00
0780
07E0
0C78
0C1C
1804
1800
3000
3000
6000
ENDCHAR
STARTCHAR uni226F
ENCODING 8815
SWIDTH 623 0
DWIDTH 15 0
BBX 14 22 1 -4
BITMAP
000C
0018
0018
0030
8030
E060
7860
1EC0
07C0
01E0
01F8
037C
03E0
0780
1E00
7C00
EC00
9800
1800
3000
3000
6000
ENDCHAR
STARTCHAR uni2270
ENCODING 8816
SWIDTH 623 0
DWIDTH 15 0
BBX 14 22 1 -5
BITMAP
000C
0018
0018
0034
003C
0078
01E0
07C0
1EC0
F980
7980
1F00
0780
07E0
0678
0C1C
0C04
1800
FFFC
FFFC
3000
6000
ENDCHAR
STARTCHAR uni2271
ENCODING 8817
SWIDTH 623 0
DWIDTH 15 0
BBX 14 22 1 -5
BITMAP
000C
0018
0018
8030
E030
7860
1E60
07C0
01E0
01F8
01FC
03E0
0780
1E00
7E00
EC00
8C00
1800
FFFC
FFFC
3000
6000
ENDCHAR
STARTCHAR fi
ENCODING -1
SWIDTH 672 0
DWIDTH 16 0
BBX 15 18 1 0
BITMAP
0FF8
1DF8
3DF8
3C78
3C00
FFF8
3C78
3C78
3C78
3C78
3C78
3C78
3C78
3C78
3C78
3C78
3C78
FCFE
ENDCHAR
STARTCHAR fl
ENCODING -1
SWIDTH 672 0
DWIDTH 16 0
BBX 16 18 0 0
BITMAP
0FFC
1C7C
3C3C
3C3C
3C3C
FF3C
3C3C
3C3C
3C3C
3C3C
3C3C
3C3C
3C3C
3C3C
3C3C
3C3C
3C3C
FFFF
ENDCHAR
ENDFONT
